<svg width="30" height="36" viewBox="0 0 30 36" fill="none" xmlns="http://www.w3.org/2000/svg">
<g opacity="0.9">
<path d="M26.7836 35.5H3.21645C2.48128 35.5 1.78478 35.2344 1.27822 34.7743C0.773267 34.3157 0.5 33.7047 0.5 33.079V14.7074C0.5 14.0817 0.773267 13.4706 1.27822 13.012C1.78478 12.552 2.48128 12.2863 3.21645 12.2863H26.7821C27.516 12.2908 28.21 12.558 28.7159 13.0174C29.2201 13.4753 29.4953 14.0843 29.5 14.7093V33.079C29.5 33.7047 29.2267 34.3157 28.7218 34.7743C28.2152 35.2344 27.5187 35.5 26.7836 35.5ZM3.21645 12.407C2.56202 12.407 1.92587 12.6427 1.44987 13.075C0.972257 13.5087 0.693519 14.1079 0.693519 14.7441V33.1157C0.693519 33.7519 0.972251 34.3511 1.44987 34.7849C1.92589 35.2172 2.56204 35.4528 3.21645 35.4528H26.7836C27.438 35.4528 28.0741 35.2172 28.5501 34.7849C29.0278 34.3511 29.3065 33.7519 29.3065 33.1157V14.7441C29.3065 14.1079 29.0277 13.5087 28.5501 13.075C28.0741 12.6427 27.438 12.407 26.7836 12.407H3.21645Z" stroke="black"/>
<path d="M24.1112 12.2053L24.1022 12.205H24.0931C24.05 12.205 24.0173 12.189 24.0001 12.1734C23.9921 12.1661 23.9886 12.1602 23.9873 12.1573C23.987 12.1566 23.9867 12.156 23.9866 12.1555C23.9864 12.155 23.9863 12.1546 23.9863 12.1544L23.9862 12.1539V8.97556C23.9862 6.85565 23.0585 4.83356 21.4257 3.3507C19.7945 1.8693 17.5916 1.04427 15.3035 1.04427C13.0154 1.04427 10.8125 1.8693 9.18125 3.3507C7.54845 4.83356 6.62073 6.85565 6.62073 8.97556V12.1171L6.62066 12.1176C6.62057 12.118 6.62031 12.119 6.61963 12.1205C6.6183 12.1234 6.61487 12.1294 6.60682 12.1367C6.58963 12.1523 6.55687 12.1683 6.51385 12.1683C6.47083 12.1683 6.43807 12.1523 6.42088 12.1367C6.41283 12.1294 6.4094 12.1234 6.40807 12.1205C6.40739 12.119 6.40713 12.118 6.40704 12.1176L6.40697 12.1171V8.93883V8.92606L6.40631 8.91331C6.35116 7.83415 6.53745 6.75498 6.95528 5.74044C7.37319 4.72572 8.01481 3.79503 8.84417 3.00606C9.67364 2.21699 10.6734 1.58642 11.7843 1.15476C12.8952 0.723093 14.0925 0.5 15.3035 0.5C16.5144 0.5 17.7117 0.723093 18.8226 1.15476C19.9335 1.58642 20.9333 2.21699 21.7628 3.00606C22.5921 3.79503 23.2337 4.72571 23.6516 5.74044C24.0695 6.75499 24.2558 7.83416 24.2006 8.91331L24.2 8.92606V8.93883V12.1171V12.1459L24.2028 12.1705C24.2019 12.172 24.2 12.1746 24.1966 12.1779C24.1905 12.1838 24.1801 12.1912 24.1645 12.197C24.1489 12.2028 24.1306 12.206 24.1112 12.2053Z" stroke="black"/>
<path d="M15.0266 24.5704C14.3633 24.5216 13.7536 24.2482 13.3155 23.8167C12.8787 23.3866 12.6448 22.8326 12.6448 22.2674C12.6448 21.7021 12.8787 21.1482 13.3155 20.7181C13.7536 20.2866 14.3633 20.0132 15.0266 19.9644C15.3904 19.9376 15.7559 19.9797 16.0994 20.0872C16.4428 20.1948 16.755 20.3649 17.0171 20.5844C17.2791 20.8039 17.4849 21.0674 17.6245 21.3567L18.0748 21.1395L17.6245 21.3567C17.7639 21.6458 17.835 21.9557 17.835 22.2674C17.835 22.5791 17.7639 22.889 17.6245 23.1781L18.0748 23.3953L17.6245 23.1781C17.4849 23.4674 17.2791 23.7309 17.0171 23.9504C16.755 24.1699 16.4429 24.34 16.0994 24.4475C15.7559 24.5551 15.3904 24.5972 15.0266 24.5704ZM14.9899 20.1599C14.549 20.1599 14.1147 20.2784 13.7414 20.5049C13.3679 20.7316 13.069 21.0586 12.8903 21.4504C12.7112 21.843 12.6633 22.2784 12.7554 22.6989C12.8474 23.119 13.073 23.4975 13.3949 23.7899C13.7164 24.0818 14.1203 24.276 14.5537 24.3543C14.987 24.4325 15.4365 24.3927 15.8471 24.2382C16.258 24.0837 16.6167 23.8191 16.8727 23.4711C17.1294 23.1223 17.27 22.7066 17.27 22.2766C17.27 21.6988 17.0169 21.1557 16.5848 20.7633C16.1543 20.3723 15.5799 20.1599 14.9899 20.1599Z" stroke="black"/>
<path d="M15.0101 23.875V29.4048" stroke="black" stroke-width="0.82" stroke-miterlimit="10"/>
</g>
</svg>
