<svg width="524" height="372" viewBox="0 0 524 372" fill="none" xmlns="http://www.w3.org/2000/svg">
<path d="M135.808 357.207C210.883 377.227 333.609 379.463 416.442 337.319C492.958 298.397 508.706 155.291 456.195 74.1203C418.877 16.4363 347.379 -6.57572 278.82 1.59948C197.925 11.2443 176.463 70.6971 122.784 113.412C89.3824 139.988 21.1635 133.45 8.2798 210.995C-6.39236 299.374 83.9756 343.383 135.808 357.207Z" fill="#FEEFE6"/>
<path d="M398.483 355.069C408.113 177.52 480.778 155.661 492.188 170.603C516.093 201.896 433.094 299.867 398.483 355.069Z" fill="#D49BA0"/>
<path d="M484.273 177.626C443.593 228.023 414.572 288.972 400.454 353.652" stroke="#F2CDBF" stroke-miterlimit="10" stroke-linecap="round"/>
<path d="M462.835 179.148C465.195 186.584 466.479 194.399 466.644 202.239C474.411 200.462 482.335 199.503 490.284 199.379" stroke="#F2CDBF" stroke-miterlimit="10" stroke-linecap="round"/>
<path d="M434.866 209.922C439.436 218.361 442.806 227.522 444.843 237.008C454.075 234.905 463.531 233.884 472.97 233.972" stroke="#F2CDBF" stroke-miterlimit="10" stroke-linecap="round"/>
<path d="M415.59 254.547C419.399 260.891 422.686 267.588 425.402 274.54C434.336 270.703 444.015 268.847 453.645 269.128" stroke="#F2CDBF" stroke-miterlimit="10" stroke-linecap="round"/>
<path d="M433.781 297.385C427.919 296.927 421.99 297.403 416.261 298.775C414.77 293.742 412.651 288.919 409.976 284.484" stroke="#F2CDBF" stroke-miterlimit="10" stroke-linecap="round"/>
<path d="M398.483 355.069C451.889 264.693 520.067 234.914 523.164 267.571C527.461 312.794 435.354 342.309 398.483 355.069Z" fill="#D49BA0"/>
<path d="M514.677 270.765C472.631 292.096 433.723 320.406 399.8 354.348" stroke="#F2CDBF" stroke-miterlimit="10" stroke-linecap="round"/>
<path d="M499.566 261.332C499.739 267.632 499.176 273.96 497.876 280.111C503.714 280.709 509.361 283.156 513.923 287.072" stroke="#F2CDBF" stroke-miterlimit="10" stroke-linecap="round"/>
<path d="M471.099 275.306C472.2 281.941 472.639 288.7 472.39 295.44C480.289 296.206 487.99 299.101 494.581 303.774" stroke="#F2CDBF" stroke-miterlimit="10" stroke-linecap="round"/>
<path d="M444.156 296.135C446.333 301.336 447.352 307.074 447.12 312.759C454.423 313.366 461.585 315.83 467.837 319.878" stroke="#F2CDBF" stroke-miterlimit="10" stroke-linecap="round"/>
<path d="M423.207 213.231H304.803V226.431H423.207V213.231Z" fill="#F2CDBF"/>
<path d="M419.713 226.431V355.069H409.222V348.029H318.738V355.069H308.289V226.431H419.713Z" fill="#F2CDBF"/>
<path d="M419.705 226.431H308.289V229.071H419.705V226.431Z" fill="#D4A59B"/>
<path d="M408.237 237.959H319.434V266.559H408.237V237.959Z" fill="#D4A59B"/>
<path d="M409.148 235.319H318.523V263.919H409.148V235.319Z" fill="#FADED2"/>
<path d="M408.237 274.039H319.434V302.639H408.237V274.039Z" fill="#D4A59B"/>
<path d="M409.148 271.399H318.523V299.999H409.148V271.399Z" fill="#FADED2"/>
<path d="M408.237 310.119H319.434V338.719H408.237V310.119Z" fill="#D4A59B"/>
<path d="M409.148 307.479H318.523V336.079H409.148V307.479Z" fill="#FADED2"/>
<path d="M333.849 206.816V186.796H339.024V206.816C339.024 208.153 338.006 209.236 336.747 209.236H336.126C334.868 209.236 333.849 208.153 333.849 206.816Z" fill="white"/>
<path d="M332.914 186.162C332.914 185.819 333.179 185.528 333.51 185.528H339.364C339.687 185.528 339.96 185.81 339.96 186.162C339.96 186.505 339.695 186.796 339.364 186.796H333.51C333.179 186.787 332.914 186.505 332.914 186.162Z" fill="white"/>
<path d="M334.677 206.49V193.396H338.196V206.49C338.196 207.52 337.41 208.356 336.441 208.356C335.464 208.356 334.677 207.52 334.677 206.49Z" fill="#F0D3D8"/>
<path d="M344.199 206.816V186.796H349.374V206.816C349.374 208.153 348.356 209.236 347.097 209.236H346.476C345.218 209.236 344.199 208.153 344.199 206.816Z" fill="white"/>
<path d="M343.264 186.162C343.264 185.819 343.529 185.528 343.86 185.528H349.714C350.037 185.528 350.31 185.81 350.31 186.162C350.31 186.505 350.045 186.796 349.714 186.796H343.86C343.529 186.787 343.264 186.505 343.264 186.162Z" fill="white"/>
<path d="M345.027 206.49V193.396H348.546V206.49C348.546 207.52 347.76 208.356 346.791 208.356C345.814 208.356 345.027 207.52 345.027 206.49Z" fill="#F0D3D8"/>
<path d="M355.17 206.816V186.796H360.345V206.816C360.345 208.153 359.326 209.236 358.068 209.236H357.447C356.188 209.236 355.17 208.153 355.17 206.816Z" fill="white"/>
<path d="M354.234 186.162C354.234 185.819 354.499 185.528 354.831 185.528H360.684C361.007 185.528 361.281 185.81 361.281 186.162C361.281 186.505 361.016 186.796 360.684 186.796H354.831C354.499 186.787 354.234 186.505 354.234 186.162Z" fill="white"/>
<path d="M355.998 206.49V193.396H359.517V206.49C359.517 207.52 358.73 208.356 357.762 208.356C356.785 208.356 355.998 207.52 355.998 206.49Z" fill="#F0D3D8"/>
<path d="M366.348 206.816V186.796H371.523V206.816C371.523 208.153 370.505 209.236 369.246 209.236H368.625C367.367 209.236 366.348 208.153 366.348 206.816Z" fill="white"/>
<path d="M365.413 186.162C365.413 185.819 365.678 185.528 366.009 185.528H371.863C372.186 185.528 372.459 185.81 372.459 186.162C372.459 186.505 372.194 186.796 371.863 186.796H366.009C365.678 186.787 365.413 186.505 365.413 186.162Z" fill="white"/>
<path d="M367.176 206.49V193.396H370.695V206.49C370.695 207.52 369.909 208.356 368.94 208.356C367.963 208.356 367.176 207.52 367.176 206.49Z" fill="#F0D3D8"/>
<path d="M378.354 206.816V186.796H383.529V206.816C383.529 208.153 382.511 209.236 381.252 209.236H380.631C379.372 209.236 378.354 208.153 378.354 206.816Z" fill="white"/>
<path d="M377.418 186.162C377.418 185.819 377.683 185.528 378.015 185.528H383.869C384.191 185.528 384.465 185.81 384.465 186.162C384.465 186.505 384.2 186.796 383.869 186.796H378.015C377.683 186.787 377.418 186.505 377.418 186.162Z" fill="white"/>
<path d="M379.182 206.49V193.396H382.701V206.49C382.701 207.52 381.915 208.356 380.946 208.356C379.969 208.356 379.182 207.52 379.182 206.49Z" fill="#F0D3D8"/>
<path d="M392.488 187.948H328.732V189.708H392.488V187.948Z" fill="#A7C2D9"/>
<path d="M396.604 208.831H325.396V213.231H396.604V208.831Z" fill="#D49BA0"/>
<path d="M330.033 185.528H328.219V211.022H330.033V185.528Z" fill="#D49BA0"/>
<path d="M393.217 185.528H391.404V211.022H393.217V185.528Z" fill="#D49BA0"/>
<path d="M68.1773 276.159C83.1806 256.157 90.5084 229.924 88.1818 204.527C85.8551 179.131 73.8988 154.869 54.863 138.008C55.1363 156.823 54.4076 175.655 52.6688 194.381C51.0211 212.192 48.4875 230.408 52.495 247.797C54.8796 258.137 59.5661 267.87 68.1773 276.159Z" fill="#BF828B"/>
<path d="M66.7693 298.996C66.7693 236.049 82.4847 215.73 59.458 149.299" stroke="#F2CDBF" stroke-miterlimit="10" stroke-linecap="round"/>
<path d="M70.421 160.219C68.8147 163.863 67.2083 167.515 65.602 171.158C62.7454 169.662 59.6156 168.755 56.4443 168.5" stroke="#F2CDBF" stroke-miterlimit="10" stroke-linecap="round"/>
<path d="M54.3823 198.086C60.4184 198.341 66.3883 200.075 71.7124 203.093C75.2479 198.455 79.4542 194.39 84.1324 191.072" stroke="#F2CDBF" stroke-miterlimit="10" stroke-linecap="round"/>
<path d="M53.6953 228.622C59.7563 228.094 65.9828 229.784 71.0502 233.339C75.9768 227.795 81.6486 222.99 87.842 219.109" stroke="#F2CDBF" stroke-miterlimit="10" stroke-linecap="round"/>
<path d="M56.436 253.781C60.9818 254.3 65.3288 256.606 68.4338 260.152C71.7209 255.392 75.7367 251.185 80.2825 247.762" stroke="#F2CDBF" stroke-miterlimit="10" stroke-linecap="round"/>
<path d="M78.9827 274.241C78.9827 274.241 66.2315 244.594 82.5679 212.148C91.5931 194.223 111.093 172.407 135.411 154.165C135.411 154.165 123.835 221.133 109.453 249.135C98.3744 270.712 78.9827 274.241 78.9827 274.241Z" fill="#D49BA0"/>
<path d="M126.609 167.127C101.488 210.019 83.6031 256.817 69.4194 304.962" stroke="#F2CDBF" stroke-miterlimit="10" stroke-linecap="round"/>
<path d="M110.629 177.749C112.136 181.48 113.345 185.352 114.231 189.295C118.495 188.432 122.809 187.86 127.139 187.57" stroke="#F2CDBF" stroke-miterlimit="10" stroke-linecap="round"/>
<path d="M90.6743 204.659C94.2016 209.975 97.0582 215.783 99.1282 221.89C105.777 218.484 112.931 216.179 120.25 215.079" stroke="#F2CDBF" stroke-miterlimit="10" stroke-linecap="round"/>
<path d="M78.9414 227.416C83.2553 233.303 86.5342 240.035 88.5379 247.163C96.0231 243.811 103.848 241.303 111.838 239.692" stroke="#F2CDBF" stroke-miterlimit="10" stroke-linecap="round"/>
<path d="M75.7617 254.802C78.2457 257.75 80.5807 260.847 82.7418 264.068C88.248 261.666 94.0357 259.95 99.9228 258.982" stroke="#F2CDBF" stroke-miterlimit="10" stroke-linecap="round"/>
<path d="M54.9378 280.243C54.9378 280.243 65.9916 263.584 57.8192 234.694C46.6247 195.111 0 167.039 0 167.039C0 167.039 12.5028 221.195 22.2566 248.175C32.1347 275.473 54.9378 280.243 54.9378 280.243Z" fill="#D49BA0"/>
<path d="M57.8191 294.763C57.8191 294.763 51.4601 240.291 6.17676 174.625" stroke="#F2CDBF" stroke-miterlimit="10" stroke-linecap="round"/>
<path d="M22.5876 186.109C21.2628 189.383 20.3768 192.85 19.9628 196.379C16.7999 195.428 13.5044 194.944 10.209 194.953" stroke="#F2CDBF" stroke-miterlimit="10" stroke-linecap="round"/>
<path d="M16.6094 222.787C22.7863 221.775 29.1867 222.251 35.1649 224.169C36.3241 218.282 38.9322 212.711 42.6582 208.162" stroke="#F2CDBF" stroke-miterlimit="10" stroke-linecap="round"/>
<path d="M56.1299 234.148C51.9154 239.067 48.6117 244.858 46.4671 251.088C40.6132 248.395 33.865 247.938 27.7295 249.821" stroke="#F2CDBF" stroke-miterlimit="10" stroke-linecap="round"/>
<path d="M40.9111 271.495C44.9435 270.712 49.1001 270.659 53.149 271.319C54.5566 267.879 56.5769 264.719 59.0775 262.062" stroke="#F2CDBF" stroke-miterlimit="10" stroke-linecap="round"/>
<path d="M97.4474 284.828L95.7003 295.3L93.7877 306.819L92.7775 312.856L90.8648 324.384L85.7643 355.069H48.5209L43.3211 324.384L41.367 312.856L40.3485 306.819L38.3862 295.3L36.6143 284.828H97.4474Z" fill="#D49BA0"/>
<path d="M95.7004 295.3L93.7877 306.819H40.3486L38.3862 295.3H95.7004Z" fill="#FADED2"/>
<path d="M92.7777 312.855L90.865 324.383H43.3213L41.3672 312.855H92.7777Z" fill="#FADED2"/>
<path d="M165.236 339.009H104.237V345.037H165.236V339.009Z" fill="#326894"/>
<path d="M114.678 283.199C114.678 283.349 114.661 283.507 114.645 283.657L113.701 291.964L105.264 365.981C105.04 367.97 103.384 369.378 101.562 369.123C99.8817 368.894 98.6479 367.336 98.6479 365.541C98.6479 365.391 98.6645 365.233 98.6811 365.083L107.011 291.964L108.054 282.768C108.286 280.788 109.934 279.371 111.755 279.627C113.453 279.847 114.678 281.404 114.678 283.199Z" fill="#4D8AB3"/>
<path d="M114.678 283.199C114.678 283.349 114.662 283.507 114.645 283.657L113.701 291.964H107.019L108.062 282.768C108.294 280.788 109.942 279.371 111.763 279.627C113.453 279.847 114.678 281.404 114.678 283.199Z" fill="#326894"/>
<path d="M138.888 282.575V365.523C138.888 367.53 137.406 369.14 135.576 369.14C134.665 369.14 133.837 368.735 133.233 368.075C132.637 367.424 132.264 366.527 132.264 365.515V282.566C132.264 280.559 133.755 278.949 135.576 278.949C136.495 278.949 137.323 279.354 137.919 280.014C138.516 280.674 138.888 281.58 138.888 282.575Z" fill="#4D8AB3"/>
<path d="M137.912 280.023C138.516 280.674 138.88 281.58 138.88 282.584V291.964H132.248V282.584C132.248 280.577 133.738 278.967 135.56 278.967C136.487 278.958 137.315 279.363 137.912 280.023Z" fill="#326894"/>
<path d="M172.224 365.523C172.224 367.336 170.999 368.885 169.318 369.114C167.496 369.36 165.84 367.952 165.617 365.972L157.179 291.955L156.235 283.648C156.219 283.499 156.202 283.34 156.202 283.191C156.202 281.395 157.436 279.847 159.117 279.609C160.938 279.363 162.586 280.771 162.818 282.751L163.861 291.947L172.191 365.066C172.216 365.233 172.224 365.374 172.224 365.523Z" fill="#4D8AB3"/>
<path d="M163.869 291.955H157.187L156.243 283.648C156.227 283.499 156.21 283.34 156.21 283.191C156.21 281.395 157.444 279.847 159.125 279.609C160.946 279.363 162.594 280.771 162.826 282.751L163.869 291.955Z" fill="#326894"/>
<path d="M178.26 273.22V275.57C178.26 279.68 175.13 283.006 171.264 283.006H108.634C104.767 283.006 101.637 279.68 101.637 275.57V273.22C101.637 269.111 104.767 265.784 108.634 265.784H171.264C175.13 265.776 178.26 269.111 178.26 273.22Z" fill="#994403"/>
<path d="M178.26 273.22V275.57C178.26 279.68 175.13 283.006 171.264 283.006H114.413C110.546 283.006 107.417 279.68 107.417 275.57V273.22C107.417 269.111 110.546 265.784 114.413 265.784H171.264C175.13 265.776 178.26 269.111 178.26 273.22Z" fill="#852E03"/>
<path d="M112.857 125.011C112.07 126.718 111.275 128.434 110.571 130.08C110.091 133.019 110.373 136.028 110.571 139.012C110.77 141.995 110.886 145.031 110.099 147.908C109.313 150.786 107.483 153.496 104.784 154.596C103.028 155.309 100.933 155.362 99.5754 156.717C98.0353 158.257 98.143 160.844 98.706 162.974C99.178 164.76 99.9231 166.538 101.256 167.779C102.589 169.02 104.734 169.829 106.191 168.932C107.632 168.034 109.544 168.685 110.588 170.04C111.631 171.396 112.12 173.147 113.146 174.52C114.604 176.473 117.046 177.485 119.439 177.547C121.832 177.608 124.382 177.248 125.98 176.192C129.4 173.912 133.664 172.399 137.167 174.537C139.013 175.664 140.47 177.459 142.466 178.268C144.163 178.955 146.142 178.823 147.74 177.925C149.338 177.028 149.951 175.109 150.953 173.64C152.791 170.947 157.246 173.12 160.326 172.232C163.621 171.272 165.84 167.427 165.07 163.986C164.3 160.545 160.715 159.322 157.519 158.812C155.325 158.46 154.422 155.494 153.917 153.276C153.412 151.05 153.503 148.736 153.594 146.448C153.785 141.792 155.78 130.933 154.513 129.472C153.851 128.707 151.367 126.771 150.464 126.34C146.308 124.324 142.151 122.3 137.995 120.285C134.211 118.446 130.245 116.572 126.063 116.695C121.89 116.792 115.854 118.525 112.857 125.011Z" fill="#732D02"/>
<path d="M127.264 166.925C127.264 166.925 108.816 170.023 106.862 176.966C104.908 183.909 116.11 232.494 116.11 232.494L157.56 229.801C157.56 229.801 160.574 173.798 153.983 170.287C147.392 166.776 127.264 166.925 127.264 166.925Z" fill="#EBF5FF"/>
<path d="M143.352 168.852C143.352 168.852 140.661 178.594 135.775 180.723C130.898 182.862 120.217 169.864 120.217 169.864C122.37 168.412 123.182 164.919 123.446 161.733C123.711 158.495 123.413 155.591 123.413 155.591L138.235 158.618C137.854 163.493 139.203 166.054 140.619 167.4C141.961 168.685 143.352 168.852 143.352 168.852Z" fill="#FBBD9A"/>
<path d="M140.619 167.409C133.581 168.395 127.206 164.646 123.447 161.742C123.712 158.503 123.414 155.599 123.414 155.599L138.235 158.627C137.846 163.493 139.204 166.063 140.619 167.409Z" fill="#F0997F"/>
<path d="M183.493 351.514C181.895 354.339 154.157 336.167 154.157 333.034C154.157 330.992 157.776 328.035 160.293 326.24C161.642 325.272 162.669 324.63 162.669 324.63L169.144 321.471L172.059 323.134C176.306 330.913 180.363 339.018 182.392 344.659C183.601 347.985 184.089 350.467 183.493 351.514Z" fill="#D43226"/>
<path d="M182.4 344.65C174.451 345.002 163.944 331.335 160.301 326.231C161.65 325.263 162.677 324.621 162.677 324.621L169.152 321.462L172.067 323.125C176.323 330.904 180.372 339.009 182.4 344.65Z" fill="#F0997F"/>
<path d="M154.952 233.955C154.952 233.955 205.443 240.748 207.157 254.485C208.871 268.213 175.486 328.836 175.486 328.836L163.48 325.51L179.146 271.32L138.947 253.191L146.954 233.955H154.952Z" fill="#002A42"/>
<path d="M171.222 353.08C169.624 355.905 141.886 337.733 141.886 334.6C141.886 332.559 145.505 329.602 148.022 327.807C149.371 326.839 150.398 326.196 150.398 326.196L156.873 323.037L159.788 324.7C164.035 332.479 168.092 340.584 170.121 346.225C171.33 349.551 171.818 352.033 171.222 353.08Z" fill="#EB4A2A"/>
<path d="M170.129 346.216C162.18 346.568 151.673 332.902 148.03 327.798C149.379 326.83 150.406 326.188 150.406 326.188L156.881 323.028L159.796 324.692C164.052 332.471 168.101 340.576 170.129 346.216Z" fill="#FBBD9A"/>
<path d="M112.368 229.352C112.368 229.352 94.8725 266.119 125.658 270.087C148.022 272.974 162.843 272.393 163.307 273.713C164.069 275.834 148.759 327.173 148.759 327.173L163.837 332.242C163.837 332.242 195.044 261.006 193.347 254.802C191.947 249.698 148.883 241.91 148.883 241.91C152.51 240.08 155.176 233.418 154.787 224.829L112.368 229.352Z" fill="#06384F"/>
<path d="M117.22 226.167C117.22 226.167 107.185 249.636 115.217 259.158C124.681 270.378 166.072 266.761 168.954 270.73C171.264 273.907 152.965 325.8 152.965 325.8" stroke="#27788F" stroke-miterlimit="10" stroke-linecap="round"/>
<path d="M149.976 325.017L164.565 329.743" stroke="#27788F" stroke-miterlimit="10" stroke-linecap="round"/>
<path d="M150.438 138.681C153.996 138.253 157.118 140.145 157.413 142.907C157.708 145.669 155.062 148.256 151.504 148.684C147.946 149.113 144.824 147.221 144.529 144.459C144.235 141.696 146.881 139.11 150.438 138.681Z" fill="#F0997F"/>
<path d="M115.216 138.457C115.216 125.407 123.016 114.829 133.49 114.829C143.964 114.829 152.46 125.407 152.46 138.457C152.46 151.507 147.103 162.736 137.241 163.141C127.305 163.546 115.216 151.499 115.216 138.457Z" fill="#FBBD9A"/>
<path d="M116.235 141.484C121.501 138.888 125.84 134.242 127.785 128.566C130.51 131.831 134.484 133.679 138.516 134.48C142.549 135.28 146.689 135.131 150.564 135.016C151.822 136.152 152.7 137.753 152.998 139.478C153.437 135.606 153.048 131.62 151.864 127.924C141.431 124.544 131.064 120.954 120.756 117.161C119.216 124.967 117.676 132.772 116.235 141.484Z" fill="#F0997F"/>
<path d="M126.063 122.591C128.307 127.087 132.646 130.079 137.208 131.628C141.77 133.168 146.622 133.423 151.474 133.573C152.236 136.407 152.393 139.724 152.393 142.628C154.066 138.51 154.927 134.999 155.084 131.584C155.126 130.599 155.126 129.595 155.101 128.539C154.861 121.359 152.062 117.275 148.311 114.213C144.552 111.151 139.94 109.848 135.204 109.848C130.526 109.848 127.553 110.975 125.773 112.937C125.144 113.632 124.664 114.424 124.316 115.313C123.554 117.214 124.407 119.282 126.063 122.591Z" fill="#8C4206"/>
<path d="M110.464 143.059C110.306 136.679 109.925 125.759 112.343 120.54C113.925 117.126 116.914 114.283 120.466 113.773C124.018 113.271 127.943 115.603 128.762 119.308C127.189 127.879 123.14 135.747 117.402 141.915C115.415 142.936 112.484 143.614 110.464 143.059Z" fill="#8C4206"/>
<path d="M125.765 112.946C132.629 110.975 140.313 112.699 145.985 117.275C150.382 120.822 153.536 125.952 155.085 131.593C155.126 130.607 155.126 129.604 155.101 128.548C154.861 121.367 152.062 117.284 148.312 114.222C144.552 111.159 139.94 109.857 135.204 109.857C130.518 109.857 127.545 110.983 125.765 112.946Z" fill="#A66317"/>
<path d="M108.25 143.26C108.899 140.566 112.237 139.149 115.706 140.092C119.174 141.035 121.461 143.984 120.812 146.677C120.164 149.371 116.825 150.788 113.357 149.845C109.887 148.902 107.601 145.953 108.25 143.26Z" fill="#FBBD9A"/>
<path d="M134.194 146.641C134.738 146.641 135.179 145.893 135.179 144.969C135.179 144.046 134.738 143.297 134.194 143.297C133.65 143.297 133.208 144.046 133.208 144.969C133.208 145.893 133.65 146.641 134.194 146.641Z" fill="#2F344D"/>
<path d="M147.897 146.65C148.442 146.65 148.883 145.901 148.883 144.978C148.883 144.054 148.442 143.306 147.897 143.306C147.353 143.306 146.912 144.054 146.912 144.978C146.912 145.901 147.353 146.65 147.897 146.65Z" fill="#2F344D"/>
<path d="M145.016 137.181C146.705 136.574 149.106 136.706 150.771 137.92" stroke="#8C4206" stroke-width="2" stroke-miterlimit="10" stroke-linecap="round"/>
<path d="M135.039 136.996C133.192 136.125 129.806 136.31 128.208 138.246" stroke="#8C4206" stroke-width="2" stroke-miterlimit="10" stroke-linecap="round"/>
<path d="M141.207 143.957C141.654 145.735 141.323 147.944 140.785 149.334" stroke="#D45E4E" stroke-width="2" stroke-miterlimit="10" stroke-linecap="round"/>
<path d="M140.023 154.508C137.837 154.966 133.879 153.637 132.803 151.701" stroke="#D45E4E" stroke-width="2" stroke-miterlimit="10" stroke-linecap="round"/>
<path d="M147.897 174.783L155.292 170.04C155.292 170.04 161.526 170.603 165.749 178.849C169.947 187.051 177.855 213.565 180.347 214.735C182.839 215.906 213.218 216.319 213.218 216.319L213.632 225.779C213.632 225.779 176.422 232.054 171.984 229.458C167.546 226.853 153.18 196.282 153.18 196.282L147.897 174.783Z" fill="#FBBD9A"/>
<path d="M147.442 173.719L148.866 168.421C148.866 168.421 157.03 168.791 161.203 172.267C165.376 175.743 168.796 185.194 168.796 185.194L158.181 203.41L147.442 173.719Z" fill="#DE3B26"/>
<path d="M160.036 210.247C160.036 210.247 171.437 199.784 173.193 197.171C174.062 195.877 180.231 211.11 179.187 212.975C177.523 215.95 167.132 223.095 166.552 222.682C165.972 222.268 160.036 210.247 160.036 210.247Z" fill="#163649"/>
<path d="M157.047 200.717C160.483 194.918 163.919 189.127 167.347 183.328C167.538 183.011 167.736 182.677 168.034 182.466C168.887 181.859 170.129 182.607 170.477 183.627C170.833 184.657 170.576 185.792 170.311 186.848C171.413 186.663 172.406 187.807 172.539 188.978C172.679 190.157 172.199 191.31 171.678 192.357C168.498 198.755 163.166 203.903 156.873 206.657C156.583 204.668 156.012 202.459 157.047 200.717Z" fill="#B82621"/>
<path d="M208.523 217.798C212.779 214.621 221.01 208.32 221.631 208.021C222.359 207.669 227.36 207.643 230.085 208.514C232.809 209.385 235.342 211.383 236.328 214.234C236.601 215.035 236.675 216.099 236.013 216.566C235.582 216.874 234.986 216.768 234.539 216.487C234.092 216.205 233.761 215.756 233.405 215.351C231.583 213.248 229.936 212.421 226.946 212.245C230.49 212.817 232.742 215.14 233.802 218.801C234.009 219.531 234.092 220.455 233.537 220.931C233.098 221.3 232.436 221.203 231.964 220.878C231.492 220.552 231.169 220.042 230.813 219.575C229.513 217.815 227.774 216.434 225.829 215.607C228.536 216.83 230.565 219.637 230.995 222.752C231.062 223.21 231.086 223.694 230.921 224.116C230.755 224.539 230.333 224.882 229.911 224.803C229.579 224.741 229.339 224.459 229.116 224.195C227.642 222.427 226.483 220.543 224.52 219.276C226.309 221.811 227.816 225.929 227.443 227.003C227.327 227.328 226.566 227.891 225.713 226.994C224.744 225.964 224.065 224.204 222.558 222.242C219.983 225.295 215.818 226.712 212.067 225.815C210.85 223.104 209.658 220.385 208.523 217.798Z" fill="#FBBD9A"/>
<path d="M216.249 213.767C219.271 212.615 222.351 211.629 225.481 210.837C225.895 210.731 226.325 210.626 226.748 210.679C227.17 210.731 227.6 210.969 227.783 211.374C227.973 211.796 227.849 212.315 227.592 212.694C227.335 213.072 226.963 213.345 226.582 213.591C225.265 214.463 223.866 215.202 222.392 215.95C222.102 218.308 220.471 220.411 218.352 221.159" fill="#FBBD9A"/>
<path d="M216.249 213.767C219.271 212.615 222.351 211.629 225.481 210.837C225.895 210.731 226.325 210.626 226.748 210.679C227.17 210.731 227.6 210.969 227.783 211.374C227.973 211.796 227.849 212.315 227.592 212.694C227.335 213.072 226.963 213.345 226.582 213.591C225.265 214.463 223.866 215.202 222.392 215.95C222.102 218.308 220.471 220.411 218.352 221.159" stroke="#D45E4E" stroke-miterlimit="10" stroke-linecap="round"/>
<path d="M140.868 167.567C142.639 169.204 143.79 178.427 144.701 184.287C146.067 193.07 153.023 231.253 153.437 233.955C154.174 238.724 168.382 238.399 168.953 235.908C169.061 235.451 164.805 233.347 164.126 230.303C163.522 227.575 158.802 174.414 156.525 171.615C153.519 167.919 140.296 167.039 140.868 167.567Z" fill="#EB4A2A"/>
<path d="M121.368 167.567C122.85 168.131 127.504 178.638 129.715 188.256C134.335 208.347 131.586 238.179 129.715 242.121C127.843 246.063 109.71 247.797 106.63 246.75C104.841 246.143 102.896 186.003 104.129 178.453C104.957 173.419 120.921 167.4 121.368 167.567Z" fill="#EB4A2A"/>
<path d="M148.535 234.747C152.36 233.26 163.431 230.162 164.962 230.329C166.502 230.496 168.101 231.086 169.069 232.459C169.69 233.339 169.997 234.456 170.286 235.539C170.758 237.299 171.23 239.059 171.702 240.819C171.868 241.435 172.034 242.077 171.951 242.711C171.868 243.344 171.454 243.978 170.891 244.022C170.096 244.092 169.599 243.08 169.309 242.227C168.564 240.036 167.819 237.844 167.082 235.697C167.571 238.399 168.051 241.109 168.539 243.811C168.655 244.453 168.771 245.113 168.63 245.747C168.49 246.38 168.026 246.97 167.455 246.961C166.61 246.944 166.204 245.791 166.014 244.84C165.592 242.728 165.161 240.608 164.507 238.513C165.385 241.488 165.517 244.744 164.871 247.797C164.772 248.264 164.639 248.756 164.341 249.091C164.043 249.425 163.513 249.548 163.199 249.232C162.959 248.994 162.909 248.589 162.876 248.228C162.619 245.5 162.362 242.764 162.106 240.036C162.354 242.913 162.594 245.879 161.833 248.633C161.7 249.126 161.518 249.619 161.178 249.953C160.839 250.288 160.292 250.393 159.945 250.076C159.605 249.768 159.564 249.214 159.547 248.721C159.489 247.005 159.431 245.289 159.423 243.283C157.999 245.052 156.028 246.231 153.95 246.574C151.872 246.917 149.694 246.407 147.649 245.712C147.831 242.517 148.005 239.314 148.535 234.747Z" fill="#FBBD9A"/>
<path d="M120.217 185.528C119.058 179.835 114.256 170.603 110.339 172.513C108.096 173.613 101.629 175.91 101.629 190.967C101.629 211.321 104.146 238.064 110.339 242.543C113.486 244.823 147.898 247.058 147.898 247.058L150.415 233.955C150.415 233.955 125.053 228.956 123.886 225.26C122.238 220.042 123.298 200.673 120.217 185.528Z" fill="#EB4A2A"/>
<path d="M117.22 182.404C121.476 197.699 122.37 223.72 122.999 225.287C123.57 226.712 126.808 227.311 129.35 228.235" stroke="#B82621" stroke-miterlimit="10" stroke-linecap="round"/>
<path d="M122.08 244.876C117.361 244.374 111.498 243.397 110.19 242.359C108.65 241.136 106.771 235.152 105.446 231.068" stroke="#B82621" stroke-miterlimit="10" stroke-linecap="round"/>
<path d="M121.393 207.704C123.09 205.443 123.786 201.694 123.927 197.127" stroke="#B82621" stroke-miterlimit="10" stroke-linecap="round"/>
<path d="M308.05 337.443H247.051V343.312H308.05V337.443Z" fill="#326894"/>
<path d="M257.5 283.085C257.5 283.235 257.484 283.384 257.467 283.534L256.523 291.621L248.086 363.702C247.862 365.638 246.206 367.011 244.385 366.764C242.704 366.535 241.47 365.022 241.47 363.279C241.47 363.13 241.487 362.98 241.503 362.831L249.833 291.612L250.876 282.654C251.108 280.727 252.756 279.345 254.577 279.591C256.267 279.829 257.5 281.343 257.5 283.085Z" fill="#4D8AB3"/>
<path d="M257.5 283.085C257.5 283.235 257.484 283.384 257.467 283.534L256.523 291.621H249.841L250.885 282.663C251.116 280.735 252.764 279.354 254.586 279.6C256.267 279.829 257.5 281.343 257.5 283.085Z" fill="#326894"/>
<path d="M281.702 282.478V363.262C281.702 365.215 280.22 366.782 278.39 366.782C277.479 366.782 276.651 366.395 276.047 365.752C275.451 365.119 275.078 364.239 275.078 363.262V282.478C275.078 280.524 276.569 278.958 278.39 278.958C279.309 278.958 280.137 279.345 280.733 279.987C281.338 280.63 281.702 281.51 281.702 282.478Z" fill="#4D8AB3"/>
<path d="M280.734 279.987C281.338 280.621 281.703 281.51 281.703 282.478V291.621H275.07V282.478C275.07 280.524 276.561 278.958 278.382 278.958C279.31 278.958 280.138 279.354 280.734 279.987Z" fill="#326894"/>
<path d="M315.046 363.271C315.046 365.031 313.821 366.544 312.14 366.773C310.318 367.019 308.662 365.647 308.439 363.711L300.001 291.63L299.058 283.543C299.041 283.393 299.024 283.243 299.024 283.094C299.024 281.351 300.258 279.838 301.939 279.609C303.761 279.363 305.408 280.744 305.64 282.671L306.683 291.63L315.013 362.848C315.038 362.989 315.046 363.13 315.046 363.271Z" fill="#4D8AB3"/>
<path d="M306.691 291.621H300.009L299.065 283.534C299.049 283.384 299.032 283.235 299.032 283.085C299.032 281.343 300.266 279.829 301.947 279.6C303.768 279.354 305.416 280.735 305.648 282.663L306.691 291.621Z" fill="#326894"/>
<path d="M321.083 273.22V275.57C321.083 279.68 317.953 283.006 314.086 283.006H251.456C247.589 283.006 244.459 279.68 244.459 275.57V273.22C244.459 269.111 247.589 265.784 251.456 265.784H314.086C317.953 265.776 321.083 269.111 321.083 273.22Z" fill="#994403"/>
<path d="M321.082 273.22V275.57C321.082 279.68 317.953 283.006 314.086 283.006H257.244C253.377 283.006 250.247 279.68 250.247 275.57V273.22C250.247 269.111 253.377 265.784 257.244 265.784H314.086C317.953 265.776 321.082 269.111 321.082 273.22Z" fill="#852E03"/>
<path d="M239.052 166.925C240.311 164.734 239.085 161.883 239.483 159.348C239.599 158.644 239.864 157.932 240.394 157.483C240.924 157.034 241.76 156.972 242.24 157.474C242.828 158.081 242.629 159.102 242.621 159.973C242.604 161.54 243.308 162.992 243.615 164.523C244.36 168.236 242.505 171.29 240.733 174.493C238.506 176.13 235.509 177.283 233.637 177.476C232.461 177.6 226.442 174.071 224.09 166.485C222.906 162.684 223.047 161.108 223.445 160.589C223.842 160.07 224.62 159.824 225.125 160.228C225.432 160.466 225.573 160.871 225.697 161.249C226.45 163.528 227.195 165.808 227.932 168.175C225.026 165.288 223.403 161.003 223.635 156.779C223.676 155.969 223.908 154.992 224.637 154.755C225.101 154.596 225.622 154.825 225.97 155.195C226.318 155.564 226.533 156.04 226.74 156.515C227.783 158.917 228.835 161.311 230.3 164.162C227.643 161.487 226.508 157.228 227.452 153.47C227.609 152.836 227.965 152.097 228.586 152.088C229.216 152.08 229.588 152.819 229.812 153.452C230.872 156.471 231.932 159.498 232.991 162.516C231.476 160.008 230.83 156.92 231.203 153.963C231.335 152.889 231.849 151.596 232.875 151.552C233.455 151.525 233.993 151.948 234.3 152.476C234.606 153.004 234.73 153.62 234.871 154.227C235.666 157.676 237.107 160.95 239.052 166.925Z" fill="#FDBD9B"/>
<path d="M224.082 160.308C225.026 160.035 225.688 160.387 226.053 161.839C226.566 163.889 227.932 168.641 229.34 169.697" stroke="#B0514A" stroke-width="0.5" stroke-miterlimit="10" stroke-linecap="round"/>
<path d="M241.031 172.619L244.5 181.216L235.326 187.121L231.244 175.646L241.031 172.619Z" fill="#FDBD9B"/>
<path d="M240.65 162.499C239.988 158.565 237.198 155.688 234.01 155.327L233.96 155.054C233.96 155.054 232.296 155.371 231.741 155.503C228.114 156.365 225.871 160.686 226.616 165.156C227.369 169.627 230.88 172.848 234.565 172.328C235.128 172.249 236.792 171.932 236.792 171.932L236.742 171.66C239.624 170.164 241.313 166.441 240.65 162.499Z" fill="#316382"/>
<path d="M233.824 155.08C237.695 154.346 241.469 157.533 242.252 162.199C243.035 166.864 240.53 171.241 236.659 171.975C232.787 172.709 229.014 169.522 228.231 164.856C227.448 160.191 229.952 155.814 233.824 155.08Z" fill="#407C91"/>
<path d="M240.625 162.508C240.021 158.926 237.115 156.471 234.134 157.034C234.084 157.043 234.026 157.052 233.977 157.069C231.087 157.712 229.232 161.029 229.828 164.549C230.424 168.078 233.231 170.507 236.162 170.049C236.212 170.049 236.27 170.032 236.32 170.023C239.292 169.468 241.23 166.098 240.625 162.508Z" fill="#EBF5FF"/>
<path d="M269.175 170.322L263.528 165.755C263.528 165.755 259.843 167.972 257.881 172.61C255.919 177.248 253.319 192.727 253.319 192.727L242.77 174.106L229.332 184.244C229.332 184.244 244.236 224.336 253.211 224.82C262.187 225.304 268.504 216.469 268.504 216.469L269.175 170.322Z" fill="white"/>
<path d="M224.662 343.576L226.376 355.06L233.447 358.114L241.569 353.987L240.096 342.67L224.662 343.576Z" fill="#FBBD9A"/>
<path d="M246.14 369.149L209.484 368.586C209.484 368.586 209.236 367.776 209.137 366.606C208.988 364.767 209.228 362.065 211.405 360.252C214.486 357.709 219.379 357.357 222.559 356.046C224.463 355.263 225.614 353.265 225.614 353.265L230.83 353.582C230.83 353.582 231.261 356.671 233.198 356.486C235.136 356.301 241.536 352.966 241.536 352.966C244.848 358.985 245.817 363.843 246.082 366.606C246.231 368.234 246.14 369.149 246.14 369.149Z" fill="#502202"/>
<path d="M246.14 369.149L209.484 368.586C209.484 368.586 209.236 367.776 209.136 366.606H246.073C246.231 368.234 246.14 369.149 246.14 369.149Z" fill="#855321"/>
<path d="M268.496 343.576L270.21 355.06L277.281 358.114L285.404 353.987L283.93 342.67L268.496 343.576Z" fill="#FBBD9A"/>
<path d="M289.974 369.149L253.319 368.586C253.319 368.586 253.07 367.776 252.971 366.606C252.822 364.767 253.062 362.065 255.24 360.252C258.32 357.709 263.213 357.357 266.393 356.046C268.297 355.263 269.448 353.265 269.448 353.265L274.665 353.582C274.665 353.582 275.095 356.671 277.033 356.486C278.97 356.301 285.371 352.966 285.371 352.966C288.683 358.985 289.652 363.843 289.916 366.606C290.066 368.234 289.974 369.149 289.974 369.149Z" fill="#502202"/>
<path d="M289.974 369.149L253.318 368.586C253.318 368.586 253.07 367.776 252.971 366.606H289.908C290.065 368.234 289.974 369.149 289.974 369.149Z" fill="#855321"/>
<path d="M266.343 230.056L260.34 240.396C260.34 240.396 225.97 245.958 220.406 254.908C215.272 263.162 222.227 346.832 222.227 346.832H245.834C245.834 346.832 244.029 285.03 245.834 279.31C247.639 273.59 301.765 273.916 304.87 266.154C307.975 258.392 309.01 231.156 309.01 231.156" fill="#112C45"/>
<path d="M309.97 241.989C309.97 241.989 311.303 264.385 304.381 269.744C298.37 274.4 283.085 275.614 283.085 275.614L286.033 345.275L263.462 346.841C263.462 346.841 252.25 265.538 252.78 257.741C253.31 249.944 275.02 244.304 273.538 243.195C273.538 243.195 256.805 237.158 263.006 230.523C263.147 230.373 263.304 230.215 263.462 230.065C264.902 228.71 282.53 230.109 282.53 230.109L298.784 228.525L305.218 236.278L309.97 241.989Z" fill="#163A4A"/>
<path d="M309.134 249.082C308.993 250.182 308.836 251.361 308.67 252.558C305.888 248.8 301.392 243.3 297.426 240.986C289.204 236.181 262.923 232.899 262.923 232.899L263.023 230.514C263.163 230.364 263.321 230.206 263.478 230.056C264.919 228.701 282.547 230.1 282.547 230.1L298.801 228.516L305.234 236.269L309.134 249.082Z" fill="#112C45"/>
<path d="M298.246 159.093C298.246 159.093 288.567 172.381 282.539 171.703C276.511 171.026 271.8 163.933 271.8 163.933C271.8 163.933 274.218 162.983 275.261 158.785C275.874 156.365 276.014 152.863 274.971 147.838L292.889 145.013C292.889 145.013 292.765 148.19 293.56 151.613C294.239 154.535 295.58 157.65 298.246 159.093Z" fill="#FDBD9B"/>
<path d="M275.261 158.794C275.874 156.374 276.014 152.871 274.971 147.847L292.889 145.022C292.889 145.022 292.765 148.199 293.56 151.622C288.724 155.943 282.067 158.547 275.261 158.794Z" fill="#F0997F"/>
<path d="M258.51 136.575C258.785 134.001 261.696 132.238 265.012 132.638C268.329 133.037 270.796 135.447 270.521 138.021C270.247 140.595 267.335 142.358 264.019 141.959C260.702 141.558 258.235 139.148 258.51 136.575Z" fill="#F0997F"/>
<path d="M265.316 137.26V137.19C265.316 136.345 264.671 135.659 263.876 135.659H263.073C262.278 135.659 261.632 136.345 261.632 137.19V137.26C261.632 138.105 262.278 138.791 263.073 138.791H263.876C264.671 138.791 265.316 138.105 265.316 137.26Z" fill="#4B8394"/>
<path d="M262.841 137.225H261.632V140.745H262.841V137.225Z" fill="#4B8394"/>
<path d="M298.958 129.912C298.958 117.751 291.042 107.886 281.272 107.886C271.502 107.886 263.586 114.38 263.586 129.912C263.586 142.074 268.024 152.625 278.54 153.364C288.285 154.042 298.958 142.083 298.958 129.912Z" fill="#FDBD9B"/>
<path d="M296.872 135.668C293.634 132.359 291.233 128.135 290.057 123.427C288.409 123.99 286.513 123.638 285.313 122.661C281.719 124.21 277.463 123.92 274.201 121.984C271.651 123.251 268.546 123.189 265.962 121.711C264.72 123.506 263.793 125.539 263.222 127.686C263.47 123.497 263.727 119.308 263.983 115.111C273.315 113.712 282.696 112.735 292.102 112.189C292.632 112.154 293.195 112.136 293.675 112.392C294.379 112.779 294.686 113.659 294.917 114.468C296.905 121.42 297.915 128.689 296.872 135.668Z" fill="#F0997F"/>
<path d="M301.367 113.764C300.978 120.012 300.597 128.073 300.208 134.242C299.661 136.362 297.947 136.283 295.621 137.075C293.46 131.954 292.135 126.445 291.332 120.39C289.071 121.024 286.62 120.848 284.31 119.898C280.849 121.314 276.925 121.385 273.372 119.871C270.69 120.813 267.767 120.998 265.241 120.03C264.289 123.101 263.826 127.765 263.577 131.038C263.246 128.038 262.153 118.754 261.88 112.391C261.764 109.663 261.789 107.472 262.087 106.539C263.196 103.081 266.79 104.198 267.75 105.386C268.404 103.785 269.804 102.544 271.402 102.148C273 101.752 274.772 102.21 276.237 103.371C277.239 101.374 279.309 100.036 281.429 99.9833C283.557 99.9481 285.668 101.206 286.405 103.362C287.39 102.782 288.425 102.254 289.527 102.025C290.636 101.805 291.837 101.919 292.789 102.562C293.244 102.87 293.634 103.31 293.932 103.855C294.255 104.427 294.47 105.105 294.569 105.835C295.463 104.506 297.351 104.26 298.701 105.017C300.059 105.774 300.895 107.314 301.235 108.906C301.574 110.49 301.475 112.145 301.367 113.764Z" fill="#502202"/>
<path d="M293.932 103.856C292.756 103.31 291.423 103.169 290.173 103.468C288.6 103.847 287.184 104.92 286.397 106.548C285.66 104.445 283.565 102.976 281.454 103.081C279.343 103.196 277.389 104.868 276.42 107.49C275.286 106.064 273.447 105.29 271.7 105.51C269.953 105.73 268.33 106.918 267.56 108.784C266.956 108.027 265.863 107.886 264.985 108.229C264.116 108.581 263.429 109.338 262.915 110.165C262.476 110.86 262.145 111.608 261.872 112.383C261.756 109.655 261.781 107.464 262.079 106.531C263.188 103.072 266.782 104.19 267.742 105.378C268.397 103.776 269.796 102.536 271.394 102.14C272.992 101.744 274.764 102.201 276.229 103.363C277.231 101.365 279.301 100.028 281.421 99.9747C283.549 99.9395 285.66 101.198 286.397 103.354C287.383 102.773 288.418 102.245 289.519 102.016C290.628 101.796 291.829 101.911 292.781 102.553C293.245 102.87 293.634 103.31 293.932 103.856Z" fill="#6B4019"/>
<path d="M270.756 128.98C269.233 128.592 267.56 128.918 266.26 129.851" stroke="#502202" stroke-width="2" stroke-miterlimit="10" stroke-linecap="round"/>
<path d="M282.439 129.296C284.095 128.531 286.116 128.742 287.606 129.833" stroke="#502202" stroke-width="2" stroke-miterlimit="10" stroke-linecap="round"/>
<path d="M275.352 136.02C275.393 137.762 275.559 139.496 275.832 141.212" stroke="#B0514A" stroke-width="2" stroke-miterlimit="10" stroke-linecap="round"/>
<path d="M277.662 146.051C279.649 146.131 281.661 145.339 283.118 143.904" stroke="#B0514A" stroke-width="2" stroke-miterlimit="10" stroke-linecap="round"/>
<path d="M283.082 135.634C283.582 135.541 284.081 136.027 284.196 136.721C284.311 137.415 283.999 138.053 283.499 138.147C282.999 138.241 282.501 137.754 282.386 137.061C282.271 136.366 282.583 135.727 283.082 135.634Z" fill="#2D3A5E"/>
<path d="M269.22 135.836C269.72 135.742 270.219 136.229 270.334 136.922C270.449 137.617 270.137 138.255 269.638 138.349C269.137 138.443 268.639 137.955 268.524 137.262C268.409 136.568 268.72 135.929 269.22 135.836Z" fill="#2D3A5E"/>
<path d="M297.432 132.636C300.739 132.151 303.689 133.839 304.022 136.405C304.355 138.971 301.944 141.444 298.637 141.929C295.33 142.414 292.38 140.726 292.047 138.16C291.714 135.594 294.125 133.12 297.432 132.636Z" fill="#FDBD9B"/>
<path d="M297.244 137.26V137.19C297.244 136.345 297.889 135.659 298.684 135.659H299.488C300.282 135.659 300.928 136.345 300.928 137.19V137.26C300.928 138.105 300.282 138.791 299.488 138.791H298.684C297.889 138.791 297.244 138.105 297.244 137.26Z" fill="#4B8394"/>
<path d="M300.928 137.225H299.719V140.745H300.928V137.225Z" fill="#4B8394"/>
<path d="M296.044 156.18C296.044 156.18 286.232 162.481 284.526 164.743C282.821 167.013 282.299 170.111 282.299 170.111C282.299 170.111 279.947 164.839 279.418 164.399C278.888 163.959 274.772 159.815 274.772 159.815L269.945 163.704L263.479 167.277L263.752 233.295L307.487 236.445L308.613 164.804L296.044 156.18Z" fill="#69C5C9"/>
<path d="M282.249 170.498C280.179 189.013 283.773 221.371 277.936 233.937" stroke="#3E7C8A" stroke-width="0.5" stroke-miterlimit="10" stroke-linecap="round"/>
<path d="M283.094 167.365C283.094 167.365 283.831 164.443 285.528 163C287.225 161.557 295.977 156.083 296.209 156.022C296.441 155.96 300.738 159.146 300.738 159.146L294.247 168.94C294.247 168.94 287.59 163.968 286.033 164.391C284.543 164.804 283.094 167.365 283.094 167.365Z" fill="#9BEBE7"/>
<path d="M281.057 167.374C281.057 167.374 280.552 165.315 279.666 164.153C278.639 162.807 275.244 158.917 274.897 158.943C274.549 158.961 271.104 161.161 270.492 162.49C269.879 163.819 270.227 170.102 270.227 170.102C270.227 170.102 276.039 164.224 278.308 164.892C279.815 165.341 281.057 167.374 281.057 167.374Z" fill="#9BEBE7"/>
<path d="M299.802 158.002C299.802 158.002 292.21 165.588 291.067 173.288C289.924 180.988 290.363 221.503 297.393 234.984C303.487 246.68 304.067 283.93 304.067 301.222L325.396 293.408C325.396 293.408 325.305 262.388 318.416 233.664C313.075 211.4 318.201 170.718 315.145 166.74C313.017 163.96 299.802 158.002 299.802 158.002Z" fill="white"/>
<path d="M290.802 201.236C290.802 201.236 289.039 179.835 290.744 172.944C292.45 166.054 297.385 157.298 298.718 156.99C300.92 156.488 305.847 160.545 305.847 160.545C305.847 160.545 301.856 167.884 300.68 179.016C300.573 180.02 292.748 183.091 292.748 183.091C292.748 183.091 298.859 187.843 298.776 188.309C298.685 188.793 290.802 201.236 290.802 201.236Z" fill="#DAE8F7"/>
<path d="M276.801 243.186C281.378 243.186 285.089 240.731 285.089 237.704C285.089 234.676 281.378 232.221 276.801 232.221C272.223 232.221 268.513 234.676 268.513 237.704C268.513 240.731 272.223 243.186 276.801 243.186Z" fill="#407C91"/>
<path d="M288.161 230.523C285.346 230.127 282.531 229.731 279.716 229.335C278.962 229.229 278.151 229.132 277.464 229.476C276.511 229.951 276.072 231.112 275.99 232.309C277.397 232.441 278.805 232.564 280.229 232.811C278.507 235.328 276.395 237.545 274.019 239.367C273.489 239.772 272.934 240.168 272.537 240.713C272.131 241.259 271.908 241.998 272.115 242.658C272.33 243.309 272.943 243.749 273.58 243.881C274.218 244.013 274.872 243.899 275.634 243.943C275.402 244.937 275.874 246.055 276.718 246.539C277.563 247.023 278.706 246.82 279.534 246.152C279.964 247.014 280.8 247.639 281.711 247.78C282.622 247.92 283.591 247.568 284.386 247.331C285.048 248.149 286.066 248.633 287.077 248.616C288.095 248.598 289.089 248.079 289.908 247.304C292.351 244.999 294.297 242.095 295.547 238.883C292.873 236.331 290.389 233.568 288.161 230.523Z" fill="#FBBD9A"/>
<path d="M301.806 174.898C301.599 170.648 303.628 162.648 306.509 161.812C310.997 160.519 318.623 167.682 320.627 173.384C322.631 179.087 328.683 214.032 326.986 218.792C324.659 225.287 293.932 242.755 293.932 242.755L284.41 227.962C284.41 227.962 305.715 215.677 306.981 211.77C307.768 209.324 302.295 184.868 301.806 174.898Z" fill="white"/>
<path d="M312.115 167.576C312.115 167.576 308.679 172.355 308.679 180.961C308.679 189.567 310.666 209.948 310.202 210.696C309.747 211.444 294.727 221.793 294.727 221.793" stroke="#B8C8E3" stroke-miterlimit="10" stroke-linecap="round"/>
<path d="M308.927 193.941C306.658 191.081 305.093 187.746 304.39 184.252" stroke="#B8C8E3" stroke-miterlimit="10" stroke-linecap="round"/>
<path d="M300.771 239.244C305.648 236.419 312.703 232.01 316.951 228.411" stroke="#B8C8E3" stroke-miterlimit="10" stroke-linecap="round"/>
<path d="M273.547 159.507C273.547 159.507 272.255 164.787 272.255 173.965C272.255 189.365 270.367 232.186 262.741 238.513C256.747 243.485 249.237 243.168 245.825 243.168C245.825 243.168 252.921 239.156 255.571 234.5C258.518 229.326 259.015 212.879 259.404 204.308C259.818 195.226 260.588 170.199 261.565 168.016C263.685 163.308 273.547 159.507 273.547 159.507Z" fill="white"/>
<path d="M271.071 202.547C271.071 202.547 272.802 188.054 272.802 177.978C272.802 166.696 274.549 158.935 274.549 158.935C274.549 158.935 268.521 160.967 267.858 162.006C267.196 163.044 264.074 169.002 262.476 180.292C262.211 182.158 269.332 183.698 269.332 183.698C269.332 183.698 263.843 188.23 263.843 189.365C263.851 191.565 271.071 202.547 271.071 202.547Z" fill="#DAE8F7"/>
<path d="M261.234 172.495C261.234 197.047 259.14 216.689 258.129 223.509" stroke="#B8C8E3" stroke-miterlimit="10" stroke-linecap="round"/>
<path d="M257.956 181.296C258.552 184.816 259.992 188.292 260.878 189.356" stroke="#B8C8E3" stroke-miterlimit="10" stroke-linecap="round"/>
<path d="M262.211 140.692C262.211 140.692 263.346 169.02 279.326 170.102C292.814 171.017 300.299 153.4 300.299 140.648" stroke="#163649" stroke-miterlimit="10"/>
<path d="M280.336 170.454C280.336 170.454 270.508 208.628 243.242 215.527C209.874 223.975 177.176 214.48 177.176 214.48" stroke="#163649" stroke-miterlimit="10" stroke-linecap="round"/>
<path d="M236.27 171.536C236.27 171.536 240.038 194.68 223.155 206.666C208.201 217.287 177.176 214.005 177.176 214.005" stroke="#163649" stroke-miterlimit="10" stroke-linecap="round"/>
<path d="M269.075 237.563C269.075 237.563 207.919 237.695 176.753 214.48" stroke="#163649" stroke-miterlimit="10" stroke-linecap="round"/>
<path d="M397.109 74.6131C396.736 67.6787 401.472 60.8147 407.807 59.1163C414.141 57.4179 421.378 61.0699 424.143 67.3619C426.511 72.7475 425.7 79.0571 424.557 84.8827C423.423 90.7083 422.007 96.7363 423.307 102.518C424.408 107.384 427.364 111.679 427.952 116.642C428.755 123.471 424.234 130.564 417.966 132.297C414.422 133.274 409.844 132.068 408.717 128.364C407.674 124.932 410.059 121.28 409.579 117.716C409.173 114.724 406.879 112.506 404.991 110.253C398.036 101.928 397.937 89.9339 397.109 74.6131Z" fill="#381B07"/>
<path d="M336.309 162.27C333.138 158.424 330.819 151.499 330.819 149.167C330.819 146.412 330.405 143.587 331.316 141.009C331.788 139.68 332.509 138.475 333.229 137.278C334.049 135.914 334.86 134.55 335.68 133.186C336.019 132.623 336.408 132.024 337.013 131.848C338.031 131.558 338.967 132.781 338.917 133.907C338.859 135.025 338.164 135.975 336.963 136.97C337.419 134.919 338.396 133.001 339.754 131.47C340.11 131.065 340.59 130.66 341.103 130.783C341.939 130.995 341.915 132.262 341.691 133.142C341.128 135.351 340.573 137.559 340.126 139.46C341.898 143.051 341.741 147.31 341.774 151.358C341.807 155.406 342.18 159.788 344.697 162.833C342.279 163.959 339.431 159.471 336.309 162.27Z" fill="#DB8E62"/>
<path d="M335.944 161.795C335.944 161.795 344.349 192.313 350.699 192.938C358.383 193.703 364.626 186.153 364.626 186.153L369.644 158.82L358.267 151.578L351.991 173.481L343.032 162.719L335.944 161.795Z" fill="#DB8E62"/>
<path d="M373.793 163.379C367.533 160.862 361.248 158.398 354.997 155.846C356.703 147.16 359.071 136.75 361.141 133.424C365.016 127.202 371.276 126.885 371.276 126.885L374.132 135.87L373.793 163.194C373.793 163.194 373.793 163.264 373.793 163.379Z" fill="#1D9FB3"/>
<path d="M368.021 181.058L349.722 130.784L327.284 136.97L348.05 192.947L368.021 181.058Z" fill="#B23F37"/>
<path d="M364.974 178.295L348.489 133.547L330.19 138.818L348.215 187.781L364.974 178.295Z" fill="#EBF5FF"/>
<path d="M342.61 132.332L343.753 135.58L336.574 137.7L335.291 134.383L342.61 132.332Z" fill="#678CA8"/>
<path d="M357.208 362.778C357.274 366.078 389.839 364.96 391.305 362.241C392.257 360.464 390.502 355.993 389.16 353.098C388.448 351.54 387.852 350.44 387.852 350.44L383.712 344.28L380.408 344.184C373.081 348.68 365.778 353.573 361.373 357.401C358.773 359.672 357.183 361.555 357.208 362.778Z" fill="#136D94"/>
<path d="M361.373 357.41C368.104 361.916 383.613 355.615 389.16 353.107C388.448 351.549 387.852 350.449 387.852 350.449L383.712 344.289L380.408 344.192C373.08 348.689 365.769 353.582 361.373 357.41Z" fill="#DB8E62"/>
<path d="M371.367 330.614L372.518 344.104L372.932 348.944L373.221 352.271L386.395 350.801L386.503 348.452V348.443L386.61 345.979L387.339 330.033L387.413 328.432L379.39 329.523L371.367 330.614Z" fill="#DB8E62"/>
<path d="M371.367 330.614L372.518 344.104L379.108 344.976H379.117L384.673 345.724L386.61 345.979L387.339 330.033L379.39 329.523L371.367 330.614Z" fill="#CF6E4A"/>
<path d="M362.06 195.64C362.06 195.64 356.396 212.289 357.514 235.961C358.632 259.633 368.022 342.186 368.022 342.186L391.421 341.016L387.413 234.448L381.766 201.448" fill="#1D9FB3"/>
<path d="M415.755 362.443C417.817 364.907 441.92 341.605 441.382 338.534C441.026 336.527 436.96 334.336 434.17 333.06C432.68 332.374 431.554 331.943 431.554 331.943L424.64 330.112L422.065 332.312C419.233 340.787 416.658 349.551 415.648 355.491C415.043 358.994 414.994 361.528 415.755 362.443Z" fill="#136D94"/>
<path d="M415.647 355.483C423.522 354.268 431.479 338.78 434.17 333.051C432.679 332.365 431.553 331.934 431.553 331.934L424.64 330.104L422.064 332.304C419.233 340.778 416.658 349.534 415.647 355.483Z" fill="#DB8E62"/>
<path d="M406.904 328.203L412.377 333.896L419.274 341.068L421.526 343.4L430.659 333.21L429.301 331.336L425.352 325.897L417.784 315.478L406.904 328.203Z" fill="#DB8E62"/>
<path d="M406.904 328.203L412.377 333.896L425.352 325.897L417.784 315.478L406.904 328.203Z" fill="#CF6E4A"/>
<path d="M358.946 211.286C361.223 218.009 378.371 229.854 378.371 229.854C378.371 229.854 378.206 276.784 378.843 288.611C379.481 300.439 402.54 339.053 402.54 339.053L424.151 318.663C424.151 318.663 407.401 288.893 406.25 281.897C405.099 274.892 412.344 238.108 412.344 223.131C412.344 220.367 412.104 217.507 411.706 214.674C410.845 208.426 409.247 202.319 407.856 197.787C406.473 193.255 405.306 190.28 405.306 190.28C405.306 190.28 393.565 192.093 381.84 195.578C371.11 198.763 360.42 203.366 358.789 209.235C358.623 209.834 358.69 210.529 358.946 211.286Z" fill="#25B2C2"/>
<path d="M358.946 211.286C364.659 214.876 370.613 218.035 376.74 220.719C377.121 219.637 377.502 218.555 378.032 217.472C378.57 218.713 379.116 219.936 379.779 221.617C390.344 218.801 401.009 216.416 411.715 214.674C410.853 208.426 409.255 202.319 407.864 197.787C399.204 196.924 390.526 196.185 381.849 195.578C371.118 198.763 360.428 203.366 358.797 209.235C358.623 209.834 358.689 210.529 358.946 211.286Z" fill="#1D9FB3"/>
<path d="M418.96 134.172C418.14 128.892 399.336 122.107 392.944 122.723C379.216 124.052 369.272 126.7 366.142 128.786C363.012 130.872 360.155 150.355 360.155 155.784C360.155 162.208 362.234 174.819 361.679 179.905C360.603 189.77 354.972 210.661 354.972 210.661L375.664 218.37L378.231 213.565L380.574 219.655L414.77 211.321C414.77 211.321 412.154 182.378 412.154 177.3C412.162 172.434 420.02 140.983 418.96 134.172Z" fill="#27B8C1"/>
<path d="M387.015 137.621C380.143 175.663 379.762 186.558 378.197 213.284" stroke="#51DBDB" stroke-miterlimit="10" stroke-linecap="round"/>
<path d="M387.926 146.377C388.562 146.377 389.077 145.829 389.077 145.154C389.077 144.478 388.562 143.931 387.926 143.931C387.291 143.931 386.775 144.478 386.775 145.154C386.775 145.829 387.291 146.377 387.926 146.377Z" fill="#136D94"/>
<path d="M385.045 163.018C385.681 163.018 386.196 162.47 386.196 161.795C386.196 161.119 385.681 160.571 385.045 160.571C384.409 160.571 383.894 161.119 383.894 161.795C383.894 162.47 384.409 163.018 385.045 163.018Z" fill="#136D94"/>
<path d="M382.826 180.556C383.461 180.556 383.977 180.009 383.977 179.333C383.977 178.658 383.461 178.11 382.826 178.11C382.19 178.11 381.675 178.658 381.675 179.333C381.675 180.009 382.19 180.556 382.826 180.556Z" fill="#136D94"/>
<path d="M381.675 200.664C382.31 200.664 382.826 200.117 382.826 199.441C382.826 198.766 382.31 198.218 381.675 198.218C381.039 198.218 380.524 198.766 380.524 199.441C380.524 200.117 381.039 200.664 381.675 200.664Z" fill="#136D94"/>
<path d="M347.106 161.17L350.534 161.46L350.799 161.487L373.784 155.072C375.357 154.183 375.622 152.81 375.25 151.692C374.778 150.302 373.246 149.651 371.929 150.144L350.004 158.38L349.78 158.592L347.106 161.17Z" fill="#136D94"/>
<path d="M347.106 161.17L348.05 161.249L350.534 161.46C350.459 161.399 350.377 161.337 350.31 161.258C350.021 160.95 349.847 160.492 349.971 160.079C350.02 159.903 350.12 159.718 350.054 159.551C350.021 159.472 349.954 159.419 349.905 159.357C349.739 159.155 349.714 158.847 349.772 158.592L347.81 160.492L347.106 161.17Z" fill="#D68A5A"/>
<path d="M347.106 161.17L348.05 161.249C347.951 161.135 347.884 161.003 347.843 160.853C347.81 160.739 347.801 160.616 347.81 160.492L347.106 161.17Z" fill="#24151A"/>
<path d="M374.264 166.6C372.004 162.147 369.752 157.694 367.342 153.232C365.554 151.754 363.542 150.636 361.488 149.8C359.037 150.645 356.736 152.203 354.839 154.297C354.376 154.816 353.887 155.547 354.103 156.242C354.26 156.752 354.757 156.999 355.22 156.964C355.676 156.928 356.106 156.664 356.52 156.409C357.771 155.635 359.021 154.852 360.47 154.104C360.876 154.473 361.281 154.843 361.588 155.221C360.743 155.23 359.898 155.248 358.888 155.556C357.274 156.365 355.692 157.289 354.16 158.328C353.73 158.618 353.258 159.005 353.208 159.586C353.167 160.061 353.44 160.492 353.796 160.695C354.152 160.897 354.558 160.906 354.955 160.871C356.396 160.765 357.829 160.211 359.013 159.26C359.493 159.41 359.973 159.56 360.337 159.806C359.716 159.929 359.095 160.052 358.516 160.36C357.936 160.668 357.406 161.179 357.15 161.874C356.893 162.569 356.984 163.449 357.323 164.18C356.992 164.312 356.81 164.769 356.827 165.183C356.843 165.596 357.009 165.966 357.174 166.318C357.53 167.066 357.92 167.788 358.342 168.474C358.748 169.116 359.211 169.75 359.849 170.032C360.486 170.304 361.323 170.111 361.745 169.266C363.451 172.399 366.647 174.238 369.743 173.886C371.59 171.765 373.13 169.275 374.264 166.6Z" fill="#DB8E62"/>
<path d="M364.411 155.732C363.591 155.371 362.722 155.248 361.836 155.151" stroke="#A8473E" stroke-width="0.5" stroke-miterlimit="10" stroke-linecap="round"/>
<path d="M362.747 159.577C361.919 159.507 361.107 159.533 360.486 159.648" stroke="#A8473E" stroke-width="0.5" stroke-miterlimit="10" stroke-linecap="round"/>
<path d="M357.439 163.907C358.59 163.229 360.495 162.842 361.803 163.018" stroke="#A8473E" stroke-width="0.5" stroke-miterlimit="10" stroke-linecap="round"/>
<path d="M361.389 169.028C360.983 168.333 360.627 167.189 360.47 166.388" stroke="#A8473E" stroke-width="0.5" stroke-miterlimit="10" stroke-linecap="round"/>
<path d="M360.735 167.823C360.213 167.893 359.667 167.99 359.245 167.946" stroke="#A8473E" stroke-width="0.5" stroke-miterlimit="10" stroke-linecap="round"/>
<path d="M368.353 172.751C368.353 172.751 396.968 198.544 404.693 195.64C407.765 194.478 410.812 185.009 413.023 176.192C415.06 168.087 416.385 160.545 416.385 160.545L400.173 153.268C400.173 153.268 399.088 161.082 397.995 167.436C397.275 171.721 396.546 175.338 396.157 175.444C394.501 175.936 373.494 166.001 373.494 166.001L368.353 172.751Z" fill="#DB8E62"/>
<path d="M397.995 167.444C401.862 170.137 407.939 174.106 413.015 176.2C415.052 168.096 416.377 160.554 416.377 160.554L400.165 153.276C400.165 153.276 399.088 161.091 397.995 167.444Z" fill="#CF6E4A"/>
<path d="M416.376 169.724C409.28 168.289 403.65 167.048 396.869 164.47C397.829 156.004 400.073 140.692 401.895 135.976C403.186 132.632 408.262 126.753 413.983 129.296C419.705 131.84 421.899 135.852 421.295 146.439C421.071 150.205 417.701 162.059 416.376 169.724Z" fill="#32C9CF"/>
<path d="M381.783 126.577C381.783 126.577 383.447 134.585 386.66 136.926C389.872 139.267 402.036 124.87 402.036 124.87C399.941 122.793 399.436 118.719 399.46 115.111C399.485 111.432 400.065 108.264 400.065 108.264L385.244 112.814C385.393 116.703 385.095 119.511 384.631 121.526C383.621 125.899 381.783 126.577 381.783 126.577Z" fill="#DB8E62"/>
<path d="M384.639 121.526C391.47 123.066 396.695 118.446 399.46 115.111C399.485 111.432 400.065 108.264 400.065 108.264L385.244 112.814C385.401 116.712 385.103 119.511 384.639 121.526Z" fill="#CF6E4A"/>
<path d="M387.206 137.207C387.016 137.172 387.968 131.769 388.448 131.303C388.928 130.836 400.611 119.959 401.307 120.364C402.325 120.945 404.006 124.395 404.006 124.395C404.006 124.395 401.605 127.853 397.076 131.76C393.962 134.444 388.994 137.533 387.206 137.207Z" fill="#136D94"/>
<path d="M387.206 137.181C387.463 136.908 386.941 131.549 386.643 131.056C385.674 129.428 384.035 125.187 384.035 122.3C384.035 122.3 381.087 123.488 380.723 124.175C380.367 124.87 381.965 129.947 383.199 132.367C385.293 136.442 386.999 137.401 387.206 137.181Z" fill="#136D94"/>
<path d="M379.233 101.252C379.513 98.6246 376.996 96.1645 373.611 95.7568C370.226 95.3491 367.255 97.1482 366.974 99.7752C366.694 102.402 369.211 104.862 372.596 105.27C375.981 105.678 378.953 103.879 379.233 101.252Z" fill="#CF6E4A"/>
<path d="M408.221 92.9522C408.221 80.5442 400.147 70.4858 390.187 70.4858C380.226 70.4858 372.153 80.5442 372.153 92.9522C372.153 105.36 377.129 117.698 387.222 117.258C397.167 116.818 408.221 105.36 408.221 92.9522Z" fill="#DB8E62"/>
<path d="M404.222 98.2763C402.127 95.8563 400.802 91.2891 400.479 89.3443C398.475 88.7283 396.049 86.6867 394.832 83.9323C391.777 87.1795 380.168 89.0099 376.293 87.9363C373.536 91.5531 373.453 93.3483 372.476 97.9683C371.847 92.3275 372.128 86.5723 373.296 81.0283C380.557 78.5379 387.662 75.5371 394.55 72.0347C395.726 71.4363 397.134 70.8291 398.26 71.5331C398.98 71.9819 399.353 72.8531 399.725 73.6539C401.282 77.0243 403.518 80.0427 406.234 82.4451C406.937 83.0699 407.741 83.7739 407.774 84.7419C407.798 85.3755 407.484 85.9563 407.194 86.5107C405.894 89.0539 406.118 95.1699 404.222 98.2763Z" fill="#CF6E4A"/>
<path d="M369.09 85.3491C369.032 90.0483 372.633 99.8075 372.633 99.8075C372.633 99.8075 372.658 91.7731 376.103 86.5547C383.232 86.5547 391.131 86.2027 395.503 81.8907C396.77 85.3051 398.947 87.2939 401.572 88.2267C401.489 92.4859 403.327 96.4723 404.478 100.054C406.722 98.6019 408.411 99.2179 410.241 96.9211C411.301 92.7587 412.427 86.2555 412.104 82.2339C411.839 78.9955 411.011 75.7219 409.355 73.0027C408.966 72.3515 408.519 71.7267 408.03 71.1459C405.48 68.1451 401.456 66.3939 397.771 67.3707C395.735 64.7659 392.588 63.2259 389.45 63.0411C386.304 62.8563 383.182 63.9035 380.441 65.5667C375.101 68.7963 370.928 73.7947 369.562 80.7467C369.263 82.2427 369.114 83.7827 369.09 85.3491Z" fill="#412408"/>
<path d="M369.09 85.3491C369.239 84.7419 369.421 84.1435 369.628 83.5539C370.647 80.6939 372.302 78.1243 374.207 75.8275C377.08 72.3251 380.649 69.3067 384.863 68.0571C389.078 66.8163 393.971 67.5995 397.118 70.8291C401.092 69.0339 405.969 70.0107 409.347 72.9939C408.958 72.3427 408.511 71.7179 408.022 71.1371C405.472 68.1363 401.448 66.3851 397.763 67.3619C395.727 64.7571 392.58 63.2171 389.442 63.0323C386.296 62.8475 383.174 63.8947 380.433 65.5579C375.093 68.7875 370.92 73.7859 369.554 80.7379C369.264 82.2427 369.115 83.7827 369.09 85.3491Z" fill="#664216"/>
<path d="M407.122 95.932C410.423 95.0344 413.599 96.3825 414.216 98.9442C414.833 101.506 412.657 104.31 409.357 105.208C406.057 106.106 402.88 104.758 402.264 102.196C401.646 99.635 403.821 96.8305 407.122 95.932Z" fill="#DB8E62"/>
<path d="M391.413 102.597C391.847 102.597 392.199 101.998 392.199 101.259C392.199 100.521 391.847 99.9219 391.413 99.9219C390.978 99.9219 390.626 100.521 390.626 101.259C390.626 101.998 390.978 102.597 391.413 102.597Z" fill="#411F00"/>
<path d="M376.964 102.597C377.398 102.597 377.75 101.998 377.75 101.259C377.75 100.521 377.398 99.9219 376.964 99.9219C376.529 99.9219 376.177 100.521 376.177 101.259C376.177 101.998 376.529 102.597 376.964 102.597Z" fill="#411F00"/>
<path d="M379.282 93.1547C377.775 92.6003 376.045 92.7411 374.637 93.5507" stroke="#412408" stroke-width="2" stroke-miterlimit="10" stroke-linecap="round"/>
<path d="M390.187 93.8499C391.876 93.0667 393.938 93.2867 395.453 94.3955" stroke="#412408" stroke-width="2" stroke-miterlimit="10" stroke-linecap="round"/>
<path d="M382.37 102.28C382.239 103.143 382.247 105.202 382.387 106.038" stroke="#A8473E" stroke-width="2" stroke-miterlimit="10" stroke-linecap="round"/>
<path d="M383.257 109.751C385.451 110.675 387.745 110.174 388.929 108.264" stroke="#A8473E" stroke-width="2" stroke-miterlimit="10" stroke-linecap="round"/>
<path d="M128.713 81.9523C145.491 81.9523 159.092 67.4968 159.092 49.6651C159.092 31.8333 145.491 17.3779 128.713 17.3779C111.935 17.3779 98.3335 31.8333 98.3335 49.6651C98.3335 67.4968 111.935 81.9523 128.713 81.9523Z" fill="#FFA8B1"/>
<path d="M108.866 38.8058C115.515 25.641 128.663 43.3114 128.663 43.3114C128.663 43.3114 141.837 28.2106 148.461 38.0226C155.341 48.2042 128.663 71.9202 128.663 71.9202C128.663 71.9202 103.211 50.0082 108.866 38.8058Z" fill="#B82621"/>
<path d="M106.671 53.5811L115.887 53.6867L118.752 41.7715L124.656 64.4227L129.325 36.9843L134.401 61.6947L137.432 43.7779L140.677 53.1763L150.754 53.4667" stroke="white" stroke-miterlimit="10" stroke-linecap="round"/>
<path d="M212.804 132.984C229.953 132.984 243.854 118.209 243.854 99.9835C243.854 81.7581 229.953 66.9835 212.804 66.9835C195.656 66.9835 181.754 81.7581 181.754 99.9835C181.754 118.209 195.656 132.984 212.804 132.984Z" fill="#FFA8B1"/>
<path d="M229.373 101.444L205.609 115.912C201.088 118.666 195.325 117.003 192.742 112.207C191.45 109.804 191.194 107.076 191.823 104.595C192.452 102.113 193.967 99.9043 196.236 98.5227L220 84.0555C224.512 81.3099 230.275 82.9731 232.867 87.7779C234.159 90.1803 234.415 92.9083 233.778 95.3811C233.148 97.8627 231.633 100.072 229.373 101.444Z" fill="white"/>
<path d="M229.373 101.444L217.483 108.678L208.11 91.2891L220 84.0555C224.513 81.3099 230.275 82.9731 232.867 87.7779C234.159 90.1803 234.415 92.9083 233.778 95.3811C233.149 97.8627 231.633 100.072 229.373 101.444Z" fill="#B82621"/>
<path d="M291.771 71.3923C308.549 71.3923 322.15 56.9368 322.15 39.1051C322.15 21.2733 308.549 6.81787 291.771 6.81787C274.993 6.81787 261.392 21.2733 261.392 39.1051C261.392 56.9368 274.993 71.3923 291.771 71.3923Z" fill="#FFA8B1"/>
<path d="M307.254 22.9043V45.0363C307.254 50.4307 304.679 55.4819 300.382 58.4563L291.771 63.7979L283.872 58.3507C279.169 55.4643 276.279 50.1667 276.279 44.4555V22.9043L291.663 18.2227L291.771 18.2579L307.254 22.9043Z" fill="white"/>
<path d="M307.254 22.9043V45.0363C307.254 50.4307 304.679 55.4819 300.382 58.4563L291.771 63.7979V18.2579L307.254 22.9043Z" fill="#F2E4E5"/>
<path d="M295.339 28.501H288.194V53.5106H295.339V28.501Z" fill="#B82621"/>
<path d="M303.529 37.2113H279.998V44.8057H303.529V37.2113Z" fill="#B82621"/>
</svg>
