<svg width="380" height="382" viewBox="0 0 380 382" fill="none" xmlns="http://www.w3.org/2000/svg">
<path d="M283.957 168.124H283.858C283.377 168.103 282.922 167.902 282.583 167.56C282.245 167.219 282.047 166.762 282.031 166.281L280.174 107.343L275.823 136.419C275.745 136.878 275.504 137.294 275.143 137.589C274.783 137.884 274.328 138.039 273.863 138.024C273.398 138.01 272.953 137.828 272.612 137.511C272.27 137.194 272.055 136.765 272.005 136.302L268.324 93.4441L263.576 144.235C263.536 144.647 263.364 145.035 263.085 145.341C262.806 145.646 262.435 145.853 262.028 145.929C261.622 146.009 261.2 145.956 260.825 145.778C260.451 145.599 260.144 145.305 259.949 144.939L247.187 120.67H118.474L110.722 162.777C110.636 163.226 110.394 163.63 110.038 163.917C109.682 164.204 109.236 164.355 108.779 164.343C108.322 164.332 107.884 164.159 107.543 163.854C107.202 163.55 106.98 163.134 106.917 162.682L96.8269 85.5544L86.8666 115.159C86.722 115.581 86.4361 115.939 86.0575 116.174C85.6789 116.408 85.2308 116.505 84.7894 116.446C84.3479 116.388 83.9402 116.179 83.6353 115.854C83.3305 115.529 83.1474 115.109 83.117 114.664L81.0718 78.4697L69.7057 143.193C69.6257 143.623 69.4023 144.013 69.072 144.299C68.7417 144.585 68.3241 144.751 67.8874 144.769C67.4507 144.787 67.0209 144.657 66.6681 144.398C66.3153 144.14 66.0604 143.77 65.9452 143.348L57.2912 110.532L49.8125 125.203C49.6502 125.519 49.4037 125.785 49.1003 125.97C48.7969 126.154 48.4483 126.252 48.0931 126.251H18.9417C18.6803 126.27 18.4179 126.234 18.1709 126.147C17.9238 126.059 17.6973 125.922 17.5056 125.743C17.3139 125.565 17.161 125.348 17.0564 125.108C16.9519 124.867 16.8979 124.608 16.8979 124.346C16.8979 124.084 16.9519 123.824 17.0564 123.584C17.161 123.343 17.3139 123.127 17.5056 122.948C17.6973 122.77 17.9238 122.632 18.1709 122.545C18.4179 122.458 18.6803 122.422 18.9417 122.441H46.9205L56.1609 104.311C56.3395 103.964 56.6184 103.68 56.9611 103.495C57.3038 103.31 57.6943 103.233 58.0816 103.274C58.4688 103.315 58.8347 103.472 59.1314 103.724C59.428 103.977 59.6416 104.313 59.7441 104.689L67.4437 133.884L80.1705 61.4052C80.2572 60.9445 80.5085 60.5312 80.8776 60.2424C81.2467 59.9537 81.7082 59.8093 82.1759 59.8362C82.6436 59.8631 83.0855 60.0595 83.419 60.3887C83.7526 60.7178 83.9549 61.1573 83.9883 61.6248L86.4085 104.48L95.837 76.4546C95.978 76.0444 96.2529 75.6936 96.6174 75.4588C96.9819 75.2239 97.4148 75.1187 97.8464 75.1599C98.278 75.2012 98.6831 75.3866 98.9966 75.6863C99.31 75.986 99.5135 76.3825 99.5743 76.8121L109.151 150.044L114.963 118.43C115.046 117.988 115.281 117.59 115.627 117.304C115.974 117.018 116.409 116.863 116.858 116.865H248.353C248.704 116.864 249.049 116.959 249.35 117.14C249.651 117.321 249.897 117.58 250.061 117.891L260.34 137.435L266.476 71.6987C266.524 71.2233 266.746 70.7826 267.101 70.4627C267.456 70.1429 267.917 69.9668 268.395 69.9688C268.873 69.9692 269.334 70.1484 269.687 70.4712C270.04 70.794 270.26 71.2371 270.303 71.7137L274.423 119.671L279.522 85.6799C279.597 85.2079 279.845 84.7806 280.217 84.481C280.589 84.1813 281.059 84.0305 281.536 84.0578C282.013 84.0852 282.463 84.2887 282.798 84.629C283.134 84.9693 283.331 85.422 283.352 85.8996L285.148 142.947L290.566 102.781C290.63 102.321 290.859 101.899 291.21 101.594C291.561 101.289 292.01 101.122 292.475 101.124C292.941 101.122 293.391 101.289 293.743 101.595C294.094 101.901 294.322 102.325 294.384 102.787L298.408 133.935L302.205 119.274C302.311 118.877 302.541 118.524 302.861 118.266C303.181 118.009 303.575 117.86 303.985 117.841C304.396 117.823 304.801 117.936 305.143 118.164C305.485 118.392 305.745 118.723 305.886 119.109L318.368 153.857L331.424 119.405C331.565 119.04 331.812 118.727 332.134 118.506C332.456 118.285 332.838 118.168 333.228 118.169H360.395C360.656 118.15 360.918 118.186 361.165 118.273C361.412 118.361 361.639 118.498 361.831 118.677C362.022 118.855 362.175 119.072 362.28 119.312C362.384 119.553 362.438 119.812 362.438 120.074C362.438 120.336 362.384 120.596 362.28 120.836C362.175 121.077 362.022 121.293 361.831 121.472C361.639 121.65 361.412 121.788 361.165 121.875C360.918 121.962 360.656 121.998 360.395 121.979H334.563L320.121 160.081C319.977 160.446 319.726 160.759 319.402 160.98C319.078 161.2 318.694 161.318 318.302 161.317C317.909 161.315 317.526 161.193 317.204 160.966C316.882 160.74 316.638 160.42 316.504 160.05L304.369 126.27L299.64 144.531C299.526 144.962 299.266 145.34 298.904 145.6C298.543 145.861 298.102 145.989 297.658 145.961C297.213 145.934 296.791 145.753 296.465 145.451C296.138 145.148 295.926 144.741 295.865 144.299L292.433 117.742L285.865 166.473C285.8 166.932 285.571 167.353 285.22 167.656C284.87 167.959 284.421 168.126 283.957 168.124Z" fill="#91B3FA"/>
<path d="M299.663 313.636H299.56C299.058 313.612 298.583 313.4 298.229 313.043C297.876 312.685 297.669 312.208 297.651 311.705L295.707 250.004L291.151 280.447C291.073 280.931 290.821 281.371 290.443 281.683C290.065 281.996 289.585 282.16 289.095 282.144C288.605 282.129 288.137 281.936 287.778 281.601C287.42 281.265 287.196 280.811 287.148 280.322L283.295 235.452L278.329 288.63C278.287 289.061 278.106 289.466 277.814 289.786C277.522 290.106 277.134 290.322 276.709 290.403C276.283 290.487 275.84 290.432 275.447 290.245C275.054 290.059 274.732 289.75 274.528 289.366L261.165 263.958H100.6L92.4965 308.039C92.4054 308.509 92.1509 308.93 91.7784 309.23C91.4059 309.529 90.9394 309.687 90.4618 309.675C89.9841 309.663 89.5262 309.482 89.1693 309.164C88.8125 308.846 88.5797 308.412 88.5124 307.938L77.9536 227.183L67.527 258.179C67.3753 258.62 67.0758 258.995 66.6792 259.241C66.2826 259.486 65.8134 259.587 65.3511 259.526C64.8888 259.464 64.4619 259.245 64.1427 258.905C63.8236 258.565 63.6319 258.124 63.6001 257.659L61.4608 219.766L49.5603 287.529C49.4773 287.979 49.2437 288.389 48.8977 288.689C48.5518 288.99 48.114 289.164 47.6562 289.183C47.1984 289.202 46.7478 289.064 46.3783 288.793C46.0088 288.522 45.7423 288.133 45.6225 287.691L36.5635 253.333L28.7344 268.695C28.5632 269.024 28.3046 269.301 27.9869 269.493C27.6691 269.686 27.3046 269.787 26.9332 269.786H11.324C11.0622 269.786 10.803 269.734 10.5611 269.634C10.3193 269.534 10.0995 269.387 9.91443 269.202C9.72932 269.017 9.58249 268.797 9.48231 268.555C9.38213 268.313 9.33057 268.053 9.33057 267.791C9.33057 267.529 9.38213 267.27 9.48231 267.028C9.58249 266.786 9.72932 266.566 9.91443 266.381C10.0995 266.196 10.3193 266.049 10.5611 265.949C10.803 265.848 11.0622 265.797 11.324 265.797H25.6924L35.3732 246.816C35.5602 246.453 35.8523 246.156 36.2112 245.962C36.5701 245.768 36.979 245.687 37.3845 245.73C37.79 245.773 38.1731 245.937 38.4837 246.201C38.7944 246.466 39.0181 246.818 39.1255 247.211L47.1837 277.785L60.5104 201.902C60.6009 201.419 60.8641 200.986 61.2508 200.683C61.6375 200.38 62.1212 200.229 62.6114 200.257C63.1016 200.285 63.5647 200.491 63.914 200.836C64.2634 201.182 64.4751 201.642 64.5096 202.132L67.0429 247L76.9078 217.658C77.0557 217.229 77.3437 216.862 77.7252 216.616C78.1068 216.371 78.5598 216.261 79.0114 216.304C79.463 216.347 79.8871 216.541 80.2153 216.854C80.5435 217.168 80.7568 217.582 80.821 218.032L90.8467 294.705L96.9319 261.606C97.0192 261.144 97.2653 260.728 97.6274 260.429C97.9896 260.13 98.4449 259.967 98.9145 259.969H262.39C262.758 259.968 263.119 260.067 263.434 260.257C263.749 260.446 264.007 260.718 264.179 261.044L274.941 281.508L281.367 212.684C281.416 212.186 281.649 211.724 282.02 211.389C282.391 211.054 282.874 210.87 283.374 210.872H283.382C283.883 210.871 284.366 211.058 284.737 211.395C285.107 211.732 285.338 212.196 285.385 212.695L289.696 262.9L295.021 227.32C295.098 226.825 295.357 226.376 295.747 226.061C296.137 225.746 296.63 225.587 297.13 225.616C297.631 225.645 298.102 225.859 298.454 226.216C298.805 226.574 299.011 227.05 299.031 227.55L300.912 287.276L306.58 245.223C306.648 244.742 306.888 244.301 307.255 243.983C307.623 243.665 308.093 243.491 308.579 243.494C309.066 243.492 309.537 243.668 309.904 243.989C310.271 244.309 310.509 244.752 310.574 245.234L314.787 277.841L318.762 262.493C318.873 262.077 319.114 261.709 319.449 261.439C319.784 261.17 320.196 261.015 320.625 260.995C321.054 260.976 321.479 261.094 321.836 261.332C322.194 261.57 322.467 261.916 322.615 262.319L335.684 298.699L349.356 262.63C349.502 262.248 349.761 261.92 350.098 261.689C350.435 261.458 350.834 261.334 351.243 261.336H368.803C369.065 261.336 369.324 261.387 369.566 261.487C369.808 261.588 370.028 261.735 370.213 261.92C370.398 262.105 370.545 262.325 370.645 262.567C370.745 262.809 370.797 263.068 370.797 263.33C370.797 263.592 370.745 263.852 370.645 264.094C370.545 264.336 370.398 264.555 370.213 264.741C370.028 264.926 369.808 265.073 369.566 265.173C369.324 265.273 369.065 265.325 368.803 265.325H352.646L337.526 305.221C337.375 305.603 337.112 305.932 336.772 306.163C336.431 306.394 336.029 306.517 335.617 306.515C335.206 306.513 334.804 306.384 334.468 306.147C334.131 305.91 333.875 305.575 333.734 305.188L321.031 269.822L316.08 288.941C315.96 289.392 315.687 289.787 315.309 290.06C314.93 290.333 314.469 290.467 314.004 290.438C313.538 290.41 313.096 290.221 312.754 289.903C312.412 289.586 312.19 289.16 312.126 288.698L308.533 260.894L301.661 311.906C301.593 312.387 301.353 312.827 300.986 313.145C300.619 313.463 300.149 313.637 299.663 313.636Z" fill="#91B3FA"/>
<path d="M75.9533 192.868C75.9533 192.868 59.9623 232.384 78.0885 254.993C96.2147 277.602 147.684 308.936 183.823 332.772C219.962 356.609 245.022 354.366 258.222 345.187C271.422 336.008 282.042 296.042 282.711 281.49C283.381 266.939 296.223 148.168 247.109 137.318C247.109 137.318 248.674 131.498 254.94 134.18C261.205 136.862 269.597 143.244 269.597 143.244C269.597 143.244 295.213 124.554 282.568 104.287C282.568 104.287 233.004 85.8258 212.868 87.3974C192.732 88.9691 166.782 127.928 151.458 139.907C136.134 151.887 85.465 179.322 75.9533 192.868Z" fill="url(#paint0_linear_556_329)"/>
<path d="M149.445 118.64C149.445 118.64 166.17 138.791 178.624 141.808C191.078 144.824 192.972 131.729 194.873 125.124C196.773 118.52 207.616 69.3752 232.565 78.2144L235.586 84.1463C235.586 84.1463 251.251 97.3526 269.596 84.8121C269.596 84.8121 277.98 45.7444 255.157 34.1071C232.333 22.4697 171.689 3.89769 149.445 118.64Z" fill="url(#paint1_linear_556_329)"/>
<path d="M144.732 32.2271C144.732 32.2271 126.052 84.5052 110.958 100.291C95.8643 116.077 60.175 145.3 57.8366 202.726C55.4983 260.151 70.0371 241.335 76.076 227.237C82.1149 213.138 135.695 170.249 160.192 158.492C184.69 146.734 184.462 129.943 165.783 123.79C147.103 117.637 148.217 110.693 157.498 86.8504C166.779 63.0081 182.324 35.3541 182.324 35.3541C182.324 35.3541 175.382 8.26207 144.732 32.2271Z" fill="url(#paint2_linear_556_329)"/>
<path opacity="0.48" d="M183.016 160.387C183.016 160.387 125.181 182.897 135.487 260.58C145.794 338.262 144.213 285.653 139.403 262.258C134.593 238.863 142.305 220.841 149.463 219.272C156.621 217.703 141.082 271.325 155.07 288.449C169.058 305.574 150.592 270.764 155.285 240.316C159.607 212.271 152.479 186.255 183.016 160.387Z" fill="white"/>
<path opacity="0.48" d="M220.379 146.723C220.379 146.723 260.651 137.089 269.274 186.229C277.896 235.369 258.323 259.439 253.741 285.298C249.158 311.157 262.125 246.23 263.464 223.617C264.803 201.004 270.168 181.975 255.624 174.814C241.079 167.653 223.97 214.105 210.435 224.076C196.9 234.046 205.96 219.374 223.525 193.516C241.089 167.657 272.624 152.421 220.379 146.723Z" fill="white"/>
<path d="M313.76 367.626C313.76 367.626 314.612 372.457 315.031 377.237C315.069 377.681 315.016 378.127 314.876 378.55C314.737 378.972 314.513 379.362 314.219 379.695C313.924 380.029 313.565 380.299 313.164 380.49C312.762 380.681 312.326 380.789 311.881 380.806C305.518 381.072 291.908 381.587 287.022 381.37C286.852 381.361 286.686 381.312 286.538 381.227C286.39 381.141 286.265 381.022 286.173 380.878C286.081 380.734 286.024 380.57 286.008 380.4C285.992 380.23 286.017 380.059 286.08 379.9C286.308 379.328 286.747 378.865 287.307 378.608L309.791 368.269L313.76 367.626Z" fill="url(#paint3_linear_556_329)"/>
<path d="M314.459 364.788L313.777 370.566C313.777 370.566 309.838 372.401 307.149 370.334L308.785 363.896L314.459 364.788Z" fill="url(#paint4_linear_556_329)"/>
<path d="M313.944 256.173C314.24 257.682 315.533 331.461 307.651 364.525C307.586 364.785 307.617 365.06 307.738 365.299C307.859 365.539 308.061 365.727 308.309 365.829C310.359 366.624 312.529 367.065 314.727 367.135C315.155 367.149 315.576 367.021 315.923 366.769C316.27 366.518 316.524 366.159 316.644 365.747C318.897 358.077 329.693 319.643 331.097 282.927C332.671 241.902 331.097 281.53 331.097 281.53L330.174 256.171L313.944 256.173Z" fill="url(#paint5_linear_556_329)"/>
<path d="M339.624 370.146C339.624 370.146 340.981 372.585 342.295 379.064C342.352 379.34 342.351 379.625 342.29 379.901C342.23 380.176 342.113 380.436 341.945 380.663C341.778 380.89 341.565 381.079 341.32 381.218C341.075 381.357 340.803 381.443 340.523 381.471C338.422 381.677 335.188 381.943 332.596 381.925C332.314 381.924 332.035 381.864 331.778 381.748C331.521 381.632 331.291 381.463 331.104 381.252C330.917 381.041 330.777 380.793 330.692 380.524C330.607 380.254 330.58 379.971 330.613 379.69C330.899 377.325 331.794 373.445 334.556 370.42L339.624 370.146Z" fill="url(#paint6_linear_556_329)"/>
<path d="M340.816 362.716L339.215 371.447C339.215 371.447 337.632 372.626 334.502 371.772L335.265 362.372L340.816 362.716Z" fill="url(#paint7_linear_556_329)"/>
<path d="M345.141 258.438C351.586 297.364 343.742 354.647 341.097 365.859C341.019 366.195 340.843 366.5 340.592 366.737C340.341 366.973 340.026 367.129 339.686 367.187C338.505 367.383 336.561 367.543 334.641 366.986C334.319 366.892 334.034 366.698 333.828 366.433C333.622 366.169 333.503 365.846 333.49 365.51C333.134 356.446 333.774 300.799 327.763 278.808C327.46 277.694 326.779 276.72 325.837 276.052L314.179 267.759L313.286 254.355L345.141 258.438Z" fill="url(#paint8_linear_556_329)"/>
<path d="M304.065 184.679C323.383 184.36 344.697 189.754 344.697 189.754C350.455 223.374 345.703 262.151 345.703 262.151C330.747 266.077 313.876 259.753 313.876 259.753C311.391 245.701 299.793 206.153 299.793 206.153C290.353 204.981 282.579 202.257 276.175 198.649C281.06 192.985 283.362 185.776 284.362 181.515C291.195 183.644 298.106 184.777 304.065 184.679Z" fill="url(#paint9_linear_556_329)"/>
<path d="M247.002 156.208C248.899 153.915 251.302 154.999 251.302 154.999C254.144 167.014 269.05 176.758 284.365 181.52C283.364 185.78 281.062 192.989 276.177 198.654C250.763 184.356 247.002 156.208 247.002 156.208Z" fill="url(#paint10_linear_556_329)"/>
<path d="M250.979 148.25C249.382 146.067 247.181 143.678 245.125 141.592C244.224 141.592 242.882 142.531 242.882 142.531C242.108 143.932 241.163 145.114 240.72 146.808C240.396 148.1 240.581 149.468 241.237 150.628C241.887 151.8 242.775 153.322 243.613 154.515C245.2 156.771 247.462 156.789 247.462 156.789C247.265 157.421 249.563 158.383 250.917 155.799C250.965 154.564 251.718 149.26 250.979 148.25Z" fill="url(#paint11_linear_556_329)"/>
<path d="M337.289 208.472L344.699 189.754C344.699 189.754 362.742 202.022 365.711 217.576C362.302 217.827 356.097 218.715 350.031 221.782C348.69 214.438 337.289 208.472 337.289 208.472Z" fill="url(#paint12_linear_556_329)"/>
<path d="M321.517 226.084C321.517 226.084 341.777 237.544 348.612 227.758C350.032 225.726 350.371 223.707 350.021 221.782C356.094 218.715 362.292 217.826 365.701 217.576C366.596 222.265 366.122 227.252 363.368 232.293C351.395 254.209 318.83 231.081 318.83 231.081L321.517 226.084Z" fill="url(#paint13_linear_556_329)"/>
<path d="M323.632 168.987L329.78 186.773C329.83 186.916 329.828 187.071 329.774 187.213C329.721 187.354 329.62 187.472 329.488 187.546C327.812 188.472 321.775 191.151 314.501 186.536C314.125 186.301 313.806 185.986 313.566 185.614C313.326 185.242 313.171 184.821 313.111 184.382L311.121 168.987H323.632Z" fill="url(#paint14_linear_556_329)"/>
<path d="M310.259 152.516C310.259 152.516 303.508 165.23 304.374 170.365C305.24 175.5 313.604 175.132 320.909 170.961L326.017 157.234L310.259 152.516Z" fill="url(#paint15_linear_556_329)"/>
<path d="M320.586 164.219C320.516 164.189 320.454 164.143 320.403 164.086C320.353 164.029 320.315 163.962 320.294 163.889C320.272 163.816 320.266 163.739 320.277 163.664C320.288 163.588 320.315 163.516 320.357 163.452C320.902 162.626 321.911 160.939 322.236 159.463C322.236 159.463 323.449 158.686 319.148 157.655C314.846 156.625 308.431 155.025 307.082 151.362C305.768 147.79 309.221 138.811 314.733 145.965C314.781 146.028 314.844 146.08 314.916 146.115C314.988 146.15 315.067 146.169 315.147 146.169C315.227 146.169 315.306 146.15 315.378 146.115C315.45 146.08 315.513 146.028 315.562 145.965C316.466 144.788 318.834 142.347 322.138 143.827C325.223 145.212 325.571 147.475 325.529 148.614C325.525 148.693 325.54 148.771 325.571 148.843C325.602 148.915 325.649 148.979 325.709 149.03C325.768 149.082 325.838 149.119 325.914 149.139C325.99 149.159 326.069 149.162 326.146 149.148C327.706 148.85 331.45 148.602 333.197 152.438C334.637 155.604 333.701 157.395 332.849 158.271C332.786 158.335 332.74 158.415 332.717 158.502C332.694 158.589 332.693 158.681 332.716 158.768C332.738 158.855 332.783 158.935 332.845 159C332.908 159.065 332.986 159.113 333.073 159.138C334.098 159.452 335.422 160.323 335.29 162.727C335.106 166.05 331.393 165.757 330.336 165.605C330.251 165.592 330.164 165.601 330.083 165.629C330.002 165.658 329.929 165.707 329.871 165.77C328.965 166.773 324.881 171.035 320.463 171.549C320.375 171.559 320.286 171.545 320.204 171.511C320.122 171.476 320.05 171.422 319.995 171.352C319.939 171.283 319.902 171.2 319.887 171.113C319.872 171.025 319.88 170.935 319.908 170.851L321.817 165.287C321.861 165.163 321.856 165.026 321.803 164.905C321.751 164.784 321.654 164.687 321.534 164.634L320.586 164.219Z" fill="url(#paint16_linear_556_329)"/>
<path d="M319.817 165.009C319.817 165.009 324.623 161.71 324.974 164.488C325.324 167.265 320.646 168.512 318.33 167.477L319.817 165.009Z" fill="url(#paint17_linear_556_329)"/>
<path d="M309.392 187.318C307.832 187.318 306.678 186.772 305.963 185.681C303.615 182.134 307.053 173.948 307.19 173.605C307.213 173.549 307.246 173.497 307.289 173.454C307.332 173.41 307.384 173.376 307.44 173.352C307.497 173.329 307.557 173.317 307.618 173.317C307.679 173.318 307.74 173.33 307.796 173.354C307.852 173.378 307.903 173.413 307.946 173.457C307.988 173.501 308.022 173.553 308.044 173.61C308.066 173.667 308.077 173.727 308.075 173.789C308.074 173.85 308.06 173.91 308.035 173.966C308.001 174.046 304.647 182.03 306.723 185.173C307.269 185.992 308.136 186.392 309.385 186.392C318.929 186.392 320.823 165.927 320.838 165.72C320.851 165.599 320.911 165.488 321.004 165.411C321.097 165.333 321.216 165.294 321.337 165.302C321.397 165.308 321.456 165.325 321.509 165.352C321.563 165.38 321.611 165.418 321.649 165.465C321.688 165.511 321.717 165.564 321.735 165.622C321.753 165.68 321.76 165.74 321.755 165.8C321.755 165.854 321.273 171.187 319.558 176.449C317.251 183.562 313.733 187.318 309.392 187.318Z" fill="url(#paint18_linear_556_329)"/>
<path d="M287.422 201.356C285.864 201.352 284.307 201.257 282.76 201.07C269.855 199.551 259.191 190.741 251.925 175.594C246.459 164.2 244.798 153.104 244.781 152.994C244.772 152.934 244.775 152.873 244.79 152.814C244.805 152.756 244.831 152.7 244.866 152.652C244.902 152.603 244.947 152.562 244.999 152.531C245.051 152.5 245.108 152.479 245.168 152.47C245.228 152.461 245.289 152.464 245.347 152.479C245.406 152.494 245.461 152.52 245.509 152.555C245.558 152.591 245.599 152.636 245.63 152.688C245.661 152.74 245.682 152.797 245.691 152.857C245.707 152.966 247.353 163.942 252.763 175.211C257.731 185.558 266.986 198.282 282.868 200.152C291.838 201.207 298.883 199.221 303.244 194.408C306.524 190.784 307.158 186.824 307.165 186.784C307.172 186.723 307.191 186.663 307.221 186.609C307.252 186.555 307.292 186.508 307.342 186.47C307.391 186.432 307.447 186.405 307.507 186.389C307.566 186.374 307.629 186.37 307.69 186.38C307.751 186.389 307.81 186.41 307.863 186.443C307.915 186.475 307.961 186.518 307.997 186.569C308.033 186.619 308.058 186.676 308.071 186.737C308.084 186.797 308.085 186.86 308.073 186.921C308.05 187.083 305.65 201.356 287.422 201.356Z" fill="url(#paint19_linear_556_329)"/>
<path d="M323.954 240.577L312.897 201.944C312.837 201.728 312.715 201.535 312.545 201.39C312.375 201.244 312.165 201.152 311.943 201.126C309.94 200.892 304.134 200.236 297.433 199.669C289.359 198.986 279.98 198.431 274.382 198.903C274.198 198.918 274.02 198.977 273.865 199.076C273.709 199.175 273.58 199.311 273.489 199.471C273.398 199.632 273.348 199.812 273.342 199.997C273.337 200.181 273.377 200.364 273.458 200.529C276.645 206.978 289.749 233.211 296.311 241.806C296.418 241.946 296.556 242.059 296.714 242.137C296.872 242.215 297.046 242.255 297.223 242.253L322.877 242.015C323.05 242.013 323.221 241.971 323.376 241.893C323.531 241.814 323.666 241.701 323.77 241.562C323.875 241.423 323.945 241.262 323.977 241.091C324.009 240.92 324.001 240.744 323.954 240.577Z" fill="url(#paint20_linear_556_329)"/>
<path d="M296.293 196.323L288.276 194.986C288.178 194.97 288.077 194.979 287.984 195.013C287.891 195.047 287.808 195.104 287.744 195.18C287.679 195.255 287.635 195.346 287.616 195.443C287.597 195.541 287.603 195.641 287.635 195.735L288.428 198.141C288.462 198.243 288.524 198.334 288.607 198.403C288.691 198.472 288.792 198.516 288.899 198.531L296.613 199.562C296.706 199.575 296.799 199.564 296.887 199.532C296.974 199.5 297.053 199.448 297.115 199.379C297.178 199.31 297.223 199.227 297.246 199.136C297.27 199.046 297.271 198.952 297.25 198.861L296.758 196.76C296.732 196.649 296.674 196.549 296.591 196.471C296.509 196.393 296.405 196.342 296.293 196.323Z" fill="#91B3FA"/>
<path d="M302.292 203.113L301.632 199.671C301.6 199.503 301.514 199.35 301.388 199.235C301.262 199.119 301.102 199.048 300.931 199.03L284.74 197.386C284.614 197.373 284.486 197.391 284.368 197.437C284.25 197.484 284.145 197.558 284.061 197.654C283.977 197.75 283.918 197.864 283.888 197.987C283.857 198.111 283.857 198.239 283.886 198.363L284.916 202.652C284.956 202.819 285.049 202.969 285.182 203.078C285.314 203.188 285.478 203.252 285.649 203.261L301.466 204.059C301.587 204.066 301.707 204.045 301.819 203.998C301.931 203.951 302.03 203.879 302.11 203.788C302.189 203.697 302.247 203.589 302.279 203.472C302.31 203.355 302.315 203.232 302.292 203.113Z" fill="#91B3FA"/>
<path d="M321.283 231.242C321.283 231.242 322.823 224.905 322.202 222.657C321.58 220.409 320.377 217.519 316.365 218.155C312.352 218.791 307.619 220.489 307.619 220.489C307.619 220.489 307.858 223.417 310.908 222.473L309.017 223.937C309.017 223.937 309.289 226.282 311.862 225.028L310.103 226.969C310.103 226.969 311.211 228.894 313.103 227.66C314.996 226.425 315.909 232.005 321.283 231.242Z" fill="url(#paint21_linear_556_329)"/>
<path d="M249.36 150.176C249.36 153.468 247.514 156.137 245.237 156.137C242.96 156.137 241.112 153.468 241.112 150.176C241.112 146.884 242.958 144.216 245.237 144.216C247.515 144.216 249.36 146.884 249.36 150.176Z" fill="url(#paint22_linear_556_329)"/>
<path d="M244.495 148.286L248.403 150.361L250.046 152.919L247.819 156.825C247.819 156.825 245.624 151.516 244.629 150.481C243.634 149.445 243.887 148.785 244.495 148.286Z" fill="url(#paint23_linear_556_329)"/>
<defs>
<linearGradient id="paint0_linear_556_329" x1="155.818" y1="320.153" x2="229.711" y2="72.373" gradientUnits="userSpaceOnUse">
<stop stop-color="#E1473D"/>
<stop offset="1" stop-color="#E9605A"/>
</linearGradient>
<linearGradient id="paint1_linear_556_329" x1="200.407" y1="136.474" x2="245.297" y2="-39.53" gradientUnits="userSpaceOnUse">
<stop stop-color="#E1473D"/>
<stop offset="1" stop-color="#E9605A"/>
</linearGradient>
<linearGradient id="paint2_linear_556_329" x1="107.896" y1="319.117" x2="126.315" y2="61.4094" gradientUnits="userSpaceOnUse">
<stop stop-color="#E1473D"/>
<stop offset="1" stop-color="#E9605A"/>
</linearGradient>
<linearGradient id="paint3_linear_556_329" x1="287.735" y1="360.951" x2="370.122" y2="450.513" gradientUnits="userSpaceOnUse">
<stop stop-color="#09005D"/>
<stop offset="1" stop-color="#1A0F91"/>
</linearGradient>
<linearGradient id="paint4_linear_556_329" x1="314.46" y1="367.607" x2="307.146" y2="367.607" gradientUnits="userSpaceOnUse">
<stop stop-color="#FEBBBA"/>
<stop offset="1" stop-color="#FF928E"/>
</linearGradient>
<linearGradient id="paint5_linear_556_329" x1="315.628" y1="167.526" x2="319.082" y2="291.772" gradientUnits="userSpaceOnUse">
<stop stop-color="#4F52FF"/>
<stop offset="1" stop-color="#4042E2"/>
</linearGradient>
<linearGradient id="paint6_linear_556_329" x1="306.205" y1="343.96" x2="388.592" y2="433.522" gradientUnits="userSpaceOnUse">
<stop stop-color="#09005D"/>
<stop offset="1" stop-color="#1A0F91"/>
</linearGradient>
<linearGradient id="paint7_linear_556_329" x1="340.817" y1="367.232" x2="334.502" y2="367.232" gradientUnits="userSpaceOnUse">
<stop stop-color="#FEBBBA"/>
<stop offset="1" stop-color="#FF928E"/>
</linearGradient>
<linearGradient id="paint8_linear_556_329" x1="327.551" y1="167.195" x2="331.004" y2="291.44" gradientUnits="userSpaceOnUse">
<stop stop-color="#4F52FF"/>
<stop offset="1" stop-color="#4042E2"/>
</linearGradient>
<linearGradient id="paint9_linear_556_329" x1="357.385" y1="244.985" x2="242.264" y2="162.185" gradientUnits="userSpaceOnUse">
<stop stop-color="#4F52FF"/>
<stop offset="1" stop-color="#4042E2"/>
</linearGradient>
<linearGradient id="paint10_linear_556_329" x1="284.365" y1="176.698" x2="247.002" y2="176.698" gradientUnits="userSpaceOnUse">
<stop stop-color="#FEBBBA"/>
<stop offset="1" stop-color="#FF928E"/>
</linearGradient>
<linearGradient id="paint11_linear_556_329" x1="255.221" y1="170.193" x2="279.861" y2="226.222" gradientUnits="userSpaceOnUse">
<stop stop-color="#FEBBBA"/>
<stop offset="1" stop-color="#FF928E"/>
</linearGradient>
<linearGradient id="paint12_linear_556_329" x1="372.549" y1="223.902" x2="257.427" y2="141.101" gradientUnits="userSpaceOnUse">
<stop stop-color="#4F52FF"/>
<stop offset="1" stop-color="#4042E2"/>
</linearGradient>
<linearGradient id="paint13_linear_556_329" x1="366.122" y1="229.653" x2="318.839" y2="229.653" gradientUnits="userSpaceOnUse">
<stop stop-color="#FEBBBA"/>
<stop offset="1" stop-color="#FF928E"/>
</linearGradient>
<linearGradient id="paint14_linear_556_329" x1="329.815" y1="179.075" x2="311.122" y2="179.075" gradientUnits="userSpaceOnUse">
<stop stop-color="#FEBBBA"/>
<stop offset="1" stop-color="#FF928E"/>
</linearGradient>
<linearGradient id="paint15_linear_556_329" x1="310.426" y1="169.218" x2="331.108" y2="156.621" gradientUnits="userSpaceOnUse">
<stop stop-color="#FEBBBA"/>
<stop offset="1" stop-color="#FF928E"/>
</linearGradient>
<linearGradient id="paint16_linear_556_329" x1="342.049" y1="143.317" x2="315.324" y2="164.396" gradientUnits="userSpaceOnUse">
<stop stop-color="#09005D"/>
<stop offset="1" stop-color="#1A0F91"/>
</linearGradient>
<linearGradient id="paint17_linear_556_329" x1="315.853" y1="173.925" x2="334.462" y2="162.591" gradientUnits="userSpaceOnUse">
<stop stop-color="#FEBBBA"/>
<stop offset="1" stop-color="#FF928E"/>
</linearGradient>
<linearGradient id="paint18_linear_556_329" x1="305.145" y1="176.312" x2="321.767" y2="176.312" gradientUnits="userSpaceOnUse">
<stop stop-color="#2B3582"/>
<stop offset="1" stop-color="#150E42"/>
</linearGradient>
<linearGradient id="paint19_linear_556_329" x1="244.776" y1="176.911" x2="308.079" y2="176.911" gradientUnits="userSpaceOnUse">
<stop stop-color="#2B3582"/>
<stop offset="1" stop-color="#150E42"/>
</linearGradient>
<linearGradient id="paint20_linear_556_329" x1="308.017" y1="205.238" x2="231.771" y2="329.288" gradientUnits="userSpaceOnUse">
<stop stop-color="#09005D"/>
<stop offset="1" stop-color="#1A0F91"/>
</linearGradient>
<linearGradient id="paint21_linear_556_329" x1="322.35" y1="224.692" x2="307.619" y2="224.692" gradientUnits="userSpaceOnUse">
<stop stop-color="#FEBBBA"/>
<stop offset="1" stop-color="#FF928E"/>
</linearGradient>
<linearGradient id="paint22_linear_556_329" x1="241.112" y1="150.176" x2="249.36" y2="150.176" gradientUnits="userSpaceOnUse">
<stop stop-color="#09005D"/>
<stop offset="1" stop-color="#1A0F91"/>
</linearGradient>
<linearGradient id="paint23_linear_556_329" x1="247.288" y1="154.09" x2="233.649" y2="140.523" gradientUnits="userSpaceOnUse">
<stop stop-color="#FEBBBA"/>
<stop offset="1" stop-color="#FF928E"/>
</linearGradient>
</defs>
</svg>
