<svg width="269" height="113" viewBox="0 0 269 113" fill="none" xmlns="http://www.w3.org/2000/svg">
<g opacity="0.68">
<path d="M137 111C169.585 111 196 86.5995 196 56.5C196 26.4005 169.585 2 137 2C104.415 2 78 26.4005 78 56.5C78 86.5995 104.415 111 137 111Z" stroke="black" stroke-width="3" stroke-miterlimit="10"/>
</g>
<path d="M148.592 52.7865C152.104 50.1929 154.718 46.5364 156.059 42.341C157.4 38.1457 157.399 33.6268 156.057 29.4318C154.715 25.2369 152.1 21.5813 148.587 18.9888C145.074 16.3963 140.843 15 136.501 15C132.159 15 127.928 16.3963 124.415 18.9888C120.902 21.5813 118.287 25.2369 116.945 29.4318C115.603 33.6268 115.602 38.1457 116.943 42.341C118.284 46.5364 120.898 50.1929 124.41 52.7865C116.914 55.2478 110.307 59.9162 105.428 66.1992C100.548 72.4821 97.6168 80.0962 97.005 88.0748C96.9537 89.0869 97.2993 90.0784 97.9663 90.832C98.3069 91.2012 98.7186 91.4953 99.1757 91.6962C99.6328 91.8971 100.126 92.0005 100.624 92H172.378C172.866 92.0004 173.349 91.9005 173.799 91.7062C174.248 91.512 174.654 91.2274 174.992 90.8697C175.33 90.5119 175.593 90.0883 175.766 89.6245C175.939 89.1606 176.017 88.6661 175.997 88.1706C175.411 80.1727 172.49 72.5342 167.608 66.2312C162.727 59.9283 156.106 55.2473 148.592 52.7865ZM173.66 89.5109C173.497 89.6919 173.299 89.8365 173.078 89.9354C172.858 90.0343 172.619 90.0854 172.378 90.0853H100.624C100.383 90.0842 100.145 90.0326 99.9241 89.9338C99.7035 89.8349 99.5054 89.691 99.3422 89.5109C99.182 89.3415 99.0589 89.1397 98.9809 88.9186C98.903 88.6975 98.8719 88.4621 98.8898 88.228C99.4894 80.3596 102.457 72.869 107.39 66.7721C112.322 60.6753 118.982 56.2673 126.464 54.146C129.527 55.9026 132.984 56.8257 136.501 56.8257C140.018 56.8257 143.475 55.9026 146.537 54.146C154.022 56.2648 160.682 60.6721 165.615 66.7695C170.549 72.8668 173.515 80.3588 174.112 88.228C174.133 88.4653 174.103 88.7043 174.025 88.9289C173.947 89.1535 173.822 89.3585 173.66 89.53V89.5109ZM155.17 35.8987C155.169 39.1465 154.344 42.3393 152.776 45.1696C151.208 48 148.949 50.3726 146.217 52.0589C145.84 52.3078 145.463 52.5376 145.067 52.7482C144.672 52.9588 144.163 53.2077 143.691 53.3992C141.415 54.3719 138.97 54.8729 136.501 54.8729C134.031 54.8729 131.587 54.3719 129.31 53.3992C128.848 53.2054 128.395 52.9881 127.953 52.7482C127.558 52.5376 127.162 52.3078 126.785 52.0589C124.006 50.3346 121.719 47.9013 120.152 45.001C118.585 42.1007 117.793 38.8343 117.854 35.5266C117.915 32.2188 118.827 28.9849 120.5 26.1462C122.172 23.3075 124.547 20.963 127.388 19.3456C130.229 17.7282 133.437 16.8943 136.693 16.9268C139.95 16.9592 143.141 17.8569 145.95 19.5307C148.76 21.2044 151.089 23.5959 152.706 26.4674C154.323 29.3388 155.173 32.5903 155.17 35.8987Z" fill="black"/>
<path opacity="0.68" d="M0 57H78" stroke="#051001" stroke-width="3" stroke-miterlimit="10"/>
<path opacity="0.68" d="M196 57H268.89" stroke="#040D01" stroke-width="3" stroke-miterlimit="10"/>
</svg>
