<svg width="20" height="17" viewBox="0 0 20 17" fill="none" xmlns="http://www.w3.org/2000/svg">
<g id="&#240;&#159;&#166;&#134; icon &#34;copyright&#34;">
<g id="Group">
<path id="Vector" d="M10.0189 16.3934C4.82875 16.3934 0.610107 12.7182 0.610107 8.1967C0.610107 3.67517 4.82875 0 10.0189 0C15.2091 0 19.4277 3.67517 19.4277 8.1967C19.4277 12.7182 15.2091 16.3934 10.0189 16.3934ZM10.0189 1.14373C5.5552 1.14373 1.92296 4.30803 1.92296 8.1967C1.92296 12.0854 5.5552 15.2497 10.0189 15.2497C14.4826 15.2497 18.1149 12.0854 18.1149 8.1967C18.1149 4.30803 14.4826 1.14373 10.0189 1.14373Z" fill="white"/>
<path id="Vector_2" d="M10.2291 11.8185C7.93603 11.8185 6.07178 10.1945 6.07178 8.19675C6.07178 6.19904 7.93603 4.57495 10.2291 4.57495C11.2357 4.57495 12.2159 4.89519 12.9686 5.48231C13.2399 5.68818 13.2662 6.05417 13.0299 6.29054C12.7936 6.52691 12.3735 6.54979 12.1021 6.34392C11.5857 5.94743 10.9206 5.72631 10.2291 5.72631C8.66245 5.72631 7.38463 6.83953 7.38463 8.20437C7.38463 9.56922 8.66245 10.6824 10.2291 10.6824C10.9118 10.6824 11.5857 10.4613 12.1021 10.0648C12.3735 9.85896 12.7936 9.88184 13.0299 10.1182C13.2662 10.3546 13.2399 10.7206 12.9686 10.9264C12.2072 11.4983 11.2357 11.8185 10.2291 11.8185Z" fill="white"/>
</g>
</g>
</svg>
