<svg width="538" height="421" viewBox="0 0 538 421" fill="none" xmlns="http://www.w3.org/2000/svg">
<g clip-path="url(#clip0_459_168)">
<path d="M269 421C417.565 421 538 413.412 538 404.052C538 394.691 417.565 387.103 269 387.103C120.435 387.103 0 394.691 0 404.052C0 413.412 120.435 421 269 421Z" fill="#F5F5F5"/>
<path d="M426.399 -7.42809e-05H381.226L349.316 394.14H394.489C400.829 394.008 406.905 391.377 411.572 386.743C416.239 382.11 419.173 375.794 419.823 368.987L447.695 25.138C448.019 21.9343 447.707 18.6929 446.779 15.6297C445.85 12.5665 444.328 9.7519 442.313 7.37336C440.298 4.99482 437.837 3.10698 435.092 1.83557C432.348 0.564158 429.385 -0.0616209 426.399 -7.42809e-05Z" fill="#407BFF"/>
<path d="M417.187 -0.000310975H264.297C257.956 0.127853 251.879 2.75497 247.209 7.38567C242.54 12.0164 239.602 18.3306 238.949 25.1378L211.077 368.987C210.756 372.188 211.069 375.427 211.996 378.487C212.923 381.548 214.443 384.361 216.454 386.74C218.466 389.118 220.923 391.008 223.662 392.284C226.402 393.56 229.362 394.192 232.345 394.14H385.221C391.553 393.993 397.618 391.357 402.275 386.725C406.933 382.093 409.862 375.785 410.513 368.987L438.386 25.1378C438.708 21.943 438.398 18.7106 437.476 15.6549C436.554 12.5992 435.04 9.78986 433.036 7.41304C431.031 5.03621 428.582 3.14616 425.85 1.86812C423.117 0.590066 420.164 -0.0468095 417.187 -0.000310975Z" fill="#407BFF"/>
<path opacity="0.3" d="M417.187 -0.000310975H264.297C257.956 0.127853 251.879 2.75497 247.209 7.38567C242.54 12.0164 239.602 18.3306 238.949 25.1378L211.077 368.987C210.756 372.188 211.069 375.427 211.996 378.487C212.923 381.548 214.443 384.361 216.454 386.74C218.466 389.118 220.923 391.008 223.662 392.284C226.402 393.56 229.362 394.192 232.345 394.14H385.221C391.553 393.993 397.618 391.357 402.275 386.725C406.933 382.093 409.862 375.785 410.513 368.987L438.386 25.1378C438.708 21.943 438.398 18.7106 437.476 15.6549C436.554 12.5992 435.04 9.78986 433.036 7.41304C431.031 5.03621 428.582 3.14616 425.85 1.86812C423.117 0.590066 420.164 -0.0468095 417.187 -0.000310975Z" fill="white"/>
<path opacity="0.4" d="M416.535 8.05497H376.217C375.015 8.06558 373.844 8.46503 372.854 9.20171C371.865 9.93838 371.103 10.9784 370.668 12.1873C369.077 16.6278 366.297 20.4563 362.682 23.1843C359.067 25.9123 354.781 27.4161 350.37 27.5037H326.59C322.436 27.5941 318.383 26.1184 315.129 23.3309C311.875 20.5433 309.624 16.6184 308.762 12.2322C308.533 11.0454 307.926 9.98271 307.047 9.22805C306.167 8.47338 305.071 8.07429 303.948 8.09989H263.645C259.335 8.18211 255.203 9.96599 252.031 13.114C248.858 16.262 246.864 20.5558 246.427 25.183L218.541 369.032C218.318 371.209 218.527 373.413 219.155 375.495C219.784 377.578 220.816 379.493 222.184 381.111C223.553 382.729 225.225 384.013 227.089 384.879C228.954 385.744 230.968 386.171 232.997 386.13H385.887C390.198 386.044 394.33 384.257 397.502 381.107C400.675 377.956 402.668 373.661 403.105 369.032L430.977 25.183C431.205 23.0048 430.999 20.7993 430.373 18.7139C429.747 16.6285 428.717 14.7111 427.35 13.0899C425.983 11.4687 424.311 10.181 422.446 9.31269C420.581 8.44442 418.565 8.01564 416.535 8.05497Z" fill="white"/>
<path d="M378.437 194.892H271.442C270.707 194.905 269.977 194.749 269.302 194.434C268.626 194.12 268.021 193.655 267.525 193.068C267.029 192.482 266.654 191.789 266.425 191.035C266.196 190.28 266.119 189.482 266.198 188.693L266.739 182.075C266.898 180.397 267.621 178.84 268.771 177.698C269.921 176.556 271.419 175.908 272.982 175.877H379.991C380.726 175.864 381.456 176.02 382.131 176.334C382.806 176.648 383.412 177.114 383.908 177.7C384.404 178.286 384.779 178.98 385.008 179.734C385.236 180.488 385.314 181.286 385.235 182.075L384.708 188.693C384.545 190.375 383.818 191.934 382.662 193.076C381.507 194.218 380.004 194.864 378.437 194.892Z" fill="white"/>
<path d="M376.134 223.339H269.125C268.39 223.352 267.661 223.196 266.986 222.882C266.312 222.567 265.707 222.101 265.212 221.515C264.717 220.928 264.343 220.235 264.116 219.481C263.889 218.726 263.814 217.928 263.894 217.14L264.422 210.522C264.584 208.846 265.307 207.291 266.457 206.149C267.607 205.008 269.103 204.359 270.665 204.324H377.674C378.409 204.311 379.139 204.467 379.814 204.781C380.489 205.095 381.095 205.561 381.591 206.147C382.087 206.733 382.462 207.427 382.691 208.181C382.919 208.935 382.997 209.733 382.918 210.522L382.377 217.14C382.215 218.817 381.491 220.372 380.342 221.513C379.192 222.655 377.696 223.304 376.134 223.339Z" fill="white"/>
<path opacity="0.1" d="M345.931 14.493C345.754 16.3562 344.951 18.0849 343.672 19.3515C342.394 20.6181 340.729 21.3346 338.994 21.3652C338.178 21.3811 337.369 21.2092 336.619 20.8612C335.87 20.5132 335.198 19.9969 334.648 19.3467C334.098 18.6965 333.683 17.9274 333.43 17.0905C333.177 16.2536 333.092 15.3681 333.18 14.493C333.357 12.6298 334.16 10.9011 335.439 9.6345C336.717 8.36791 338.382 7.65144 340.117 7.62082C340.933 7.60495 341.742 7.77677 342.492 8.12481C343.241 8.47286 343.913 8.98914 344.463 9.63932C345.013 10.2895 345.428 11.0586 345.681 11.8955C345.934 12.7324 346.019 13.6179 345.931 14.493Z" fill="black"/>
<path opacity="0.1" d="M343.045 14.493C342.947 15.5102 342.508 16.4536 341.81 17.1457C341.113 17.8378 340.205 18.2309 339.257 18.251C338.811 18.2604 338.368 18.1669 337.958 17.9767C337.548 17.7866 337.181 17.5043 336.88 17.1485C336.579 16.7928 336.352 16.3719 336.214 15.914C336.076 15.456 336.031 14.9716 336.08 14.493C336.175 13.4746 336.613 12.5294 337.312 11.8366C338.01 11.1439 338.919 10.7519 339.868 10.735C340.313 10.7281 340.755 10.8232 341.164 11.0142C341.573 11.2051 341.939 11.4875 342.24 11.8427C342.54 12.1979 342.767 12.6178 342.906 13.0746C343.045 13.5315 343.092 14.0149 343.045 14.493Z" fill="black"/>
<g opacity="0.8">
<path d="M397.708 25.9616C397.468 25.9652 397.231 25.9139 397.011 25.8112C396.791 25.7084 396.594 25.5564 396.433 25.3654C396.272 25.1744 396.15 24.9485 396.075 24.7029C396.001 24.4573 395.976 24.1974 396.001 23.9404L396.306 20.2573C396.357 19.713 396.592 19.2079 396.965 18.8381C397.339 18.4682 397.825 18.2593 398.332 18.251C398.57 18.2477 398.806 18.2986 399.025 18.4005C399.244 18.5024 399.44 18.6529 399.601 18.8423C399.762 19.0316 399.884 19.2556 399.96 19.4994C400.035 19.7432 400.062 20.0015 400.039 20.2573L399.733 23.9404C399.683 24.4861 399.449 24.9929 399.075 25.3653C398.702 25.7376 398.216 25.9497 397.708 25.9616Z" fill="white"/>
<path d="M412.636 25.9616C412.396 25.9652 412.159 25.9139 411.939 25.8112C411.72 25.7084 411.523 25.5564 411.361 25.3654C411.2 25.1744 411.078 24.9486 411.004 24.7029C410.929 24.4573 410.904 24.1974 410.929 23.9404L411.637 15.3015C411.688 14.7573 411.923 14.2522 412.296 13.8823C412.669 13.5124 413.156 13.3035 413.663 13.2953C413.901 13.2919 414.137 13.3428 414.356 13.4447C414.574 13.5466 414.771 13.6971 414.932 13.8865C415.093 14.0759 415.215 14.2998 415.29 14.5436C415.366 14.7874 415.393 15.0457 415.369 15.3015L414.662 23.9404C414.611 24.4861 414.377 24.9929 414.004 25.3653C413.631 25.7376 413.144 25.9497 412.636 25.9616Z" fill="white"/>
<path d="M405.172 25.9616C404.932 25.9652 404.695 25.9139 404.475 25.8112C404.255 25.7084 404.058 25.5564 403.897 25.3654C403.736 25.1744 403.614 24.9486 403.539 24.7029C403.465 24.4573 403.44 24.1974 403.465 23.9404L403.965 17.7869C404.016 17.2387 404.252 16.7298 404.628 16.3571C405.004 15.9844 405.494 15.7739 406.004 15.7656C406.243 15.7618 406.48 15.813 406.699 15.9159C406.918 16.0188 407.115 16.1711 407.275 16.3624C407.435 16.5537 407.556 16.7798 407.628 17.0255C407.701 17.2711 407.725 17.5307 407.697 17.7869L407.197 23.9404C407.147 24.4861 406.913 24.9929 406.54 25.3653C406.166 25.7376 405.68 25.9497 405.172 25.9616Z" fill="white"/>
</g>
<g opacity="0.8">
<path d="M269.888 25.9616H260.509C260.374 25.9647 260.24 25.9366 260.116 25.8791C259.992 25.8215 259.881 25.736 259.79 25.6281C259.7 25.5202 259.631 25.3926 259.59 25.2538C259.549 25.1151 259.536 24.9684 259.552 24.8237L259.982 19.3888C260.012 19.0803 260.146 18.7943 260.358 18.5848C260.57 18.3752 260.846 18.2565 261.134 18.251H270.512C270.647 18.2478 270.781 18.276 270.905 18.3335C271.029 18.391 271.141 18.4766 271.231 18.5845C271.322 18.6923 271.39 18.82 271.431 18.9587C271.472 19.0975 271.486 19.2442 271.47 19.3888L271.026 24.8237C271.001 25.1322 270.871 25.4199 270.661 25.6304C270.451 25.8408 270.175 25.959 269.888 25.9616Z" fill="white"/>
<path d="M274.231 24.4794C274.095 24.4822 273.961 24.4541 273.836 24.3967C273.711 24.3393 273.599 24.254 273.508 24.1464C273.416 24.0388 273.346 23.9115 273.303 23.7727C273.261 23.634 273.246 23.487 273.259 23.3415L273.467 20.8561C273.495 20.5463 273.628 20.2585 273.841 20.0483C274.053 19.8382 274.331 19.7205 274.619 19.7183C274.754 19.7151 274.888 19.7432 275.012 19.8008C275.136 19.8583 275.247 19.9439 275.338 20.0518C275.429 20.1596 275.497 20.2872 275.538 20.426C275.579 20.5648 275.592 20.7115 275.576 20.8561L275.382 23.3415C275.352 23.6501 275.218 23.936 275.006 24.1455C274.794 24.3551 274.518 24.4738 274.231 24.4794Z" fill="white"/>
</g>
<path d="M360.807 151.384C379.476 132.097 381.338 101.5 364.966 83.0426C348.593 64.5856 320.186 65.2584 301.516 84.5453C282.847 103.832 280.985 134.43 297.357 152.887C313.73 171.343 342.137 170.671 360.807 151.384Z" fill="white"/>
<path d="M331.321 116.109C319.556 116.109 309.609 120.944 308.763 131.44L307.819 143.103H350.453L351.397 131.44C352.243 120.944 343.1 116.109 331.321 116.109Z" fill="#407BFF"/>
<path d="M331.71 111.302C337.176 111.302 339.701 106.526 340.173 100.627C340.645 94.7283 338.91 89.9523 333.444 89.9523C327.978 89.9523 325.467 94.7433 324.981 100.627C324.495 106.511 326.244 111.302 331.71 111.302Z" fill="#407BFF"/>
<path d="M373.553 184.98C370.654 184.98 368.198 186.178 368.004 188.768L367.768 191.658H378.298L378.534 188.768C378.728 186.178 376.467 184.98 373.553 184.98Z" fill="#407BFF"/>
<path d="M373.651 183.797C375.038 183.797 375.621 182.614 375.746 181.162C375.87 179.71 375.426 178.527 374.081 178.527C372.735 178.527 372.111 179.71 371.986 181.162C371.861 182.614 372.305 183.797 373.651 183.797Z" fill="#407BFF"/>
<path d="M341.144 251.786H299.522C298.394 251.808 297.274 251.57 296.237 251.089C295.2 250.607 294.27 249.893 293.509 248.994C292.748 248.094 292.172 247.03 291.822 245.872C291.471 244.714 291.353 243.489 291.476 242.278C291.723 239.704 292.834 237.316 294.6 235.564C296.366 233.813 298.664 232.819 301.062 232.771H342.684C343.812 232.751 344.931 232.991 345.967 233.473C347.003 233.955 347.932 234.669 348.692 235.568C349.453 236.467 350.028 237.53 350.38 238.687C350.731 239.844 350.851 241.068 350.731 242.278C350.487 244.854 349.377 247.244 347.61 248.996C345.843 250.748 343.543 251.74 341.144 251.786Z" fill="#407BFF"/>
<path d="M336.108 357.818H291.559C290.364 357.853 289.176 357.609 288.076 357.105C286.975 356.6 285.989 355.845 285.183 354.892C284.378 353.938 283.772 352.809 283.407 351.58C283.042 350.352 282.926 349.053 283.068 347.772L285.912 312.707C286.167 309.987 287.337 307.462 289.201 305.61C291.065 303.759 293.493 302.709 296.026 302.661H340.589C341.781 302.638 342.964 302.89 344.058 303.399C345.153 303.908 346.135 304.663 346.938 305.613C347.741 306.564 348.348 307.688 348.717 308.911C349.086 310.134 349.21 311.428 349.08 312.707L346.236 347.772C345.975 350.492 344.802 353.015 342.936 354.866C341.07 356.716 338.641 357.767 336.108 357.818Z" fill="#407BFF"/>
<g opacity="0.6">
<path d="M322.373 321.555C322.446 320.79 322.367 320.017 322.142 319.287C321.918 318.557 321.552 317.887 321.069 317.321C320.587 316.755 319.998 316.306 319.343 316.003C318.687 315.701 317.98 315.552 317.267 315.567C315.749 315.59 314.292 316.212 313.17 317.315C312.048 318.419 311.339 319.927 311.177 321.555C311.088 322.466 311.213 323.387 311.541 324.232C311.868 325.077 312.387 325.819 313.05 326.391L312.078 338.474C312.031 338.932 312.074 339.395 312.206 339.833C312.338 340.271 312.555 340.674 312.843 341.014C313.13 341.354 313.482 341.624 313.874 341.806C314.266 341.987 314.69 342.076 315.117 342.067C316.021 342.047 316.887 341.67 317.551 341.008C318.216 340.346 318.633 339.445 318.724 338.474L319.709 326.391C320.452 325.843 321.076 325.126 321.536 324.291C321.996 323.456 322.282 322.522 322.373 321.555Z" fill="white"/>
</g>
<path d="M340.978 309.967H335.234L336.621 292.614C336.863 290.206 336.628 287.77 335.931 285.467C335.234 283.164 334.092 281.048 332.579 279.258C331.066 277.468 329.218 276.046 327.157 275.086C325.096 274.126 322.869 273.65 320.625 273.69C315.855 273.79 311.283 275.77 307.772 279.256C304.261 282.742 302.052 287.493 301.562 292.614L300.175 309.967H294.431L295.818 292.614C296.464 285.818 299.394 279.511 304.053 274.886C308.713 270.26 314.78 267.635 321.11 267.506C324.089 267.451 327.045 268.081 329.782 269.354C332.518 270.626 334.972 272.513 336.981 274.887C338.99 277.262 340.508 280.071 341.434 283.127C342.36 286.184 342.672 289.418 342.351 292.614L340.978 309.967Z" fill="#407BFF"/>
<path d="M374.261 211.556L374.441 209.864C374.478 209.472 374.438 209.075 374.324 208.701C374.209 208.327 374.023 207.983 373.777 207.692C373.53 207.401 373.23 207.169 372.895 207.012C372.56 206.854 372.198 206.775 371.833 206.779C371.056 206.797 370.311 207.12 369.739 207.688C369.167 208.256 368.806 209.029 368.725 209.864L368.587 211.526C368.276 211.535 367.979 211.666 367.752 211.895C367.524 212.124 367.382 212.434 367.352 212.768L366.991 217.26C366.973 217.417 366.987 217.576 367.031 217.727C367.075 217.878 367.15 218.016 367.249 218.133C367.348 218.25 367.469 218.342 367.604 218.403C367.739 218.464 367.885 218.493 368.032 218.488H373.748C374.057 218.482 374.354 218.354 374.582 218.127C374.809 217.901 374.952 217.592 374.982 217.26L375.343 212.768C375.355 212.61 375.336 212.45 375.286 212.3C375.236 212.15 375.158 212.013 375.056 211.899C374.953 211.784 374.829 211.694 374.692 211.635C374.555 211.576 374.408 211.549 374.261 211.556ZM371.667 207.573C371.942 207.569 372.215 207.629 372.467 207.747C372.72 207.865 372.947 208.039 373.133 208.258C373.318 208.477 373.459 208.736 373.546 209.018C373.633 209.3 373.664 209.598 373.637 209.894L373.498 211.556H369.197L369.336 209.894C369.396 209.267 369.666 208.686 370.095 208.259C370.524 207.832 371.083 207.588 371.667 207.573Z" fill="#407BFF"/>
<path d="M288.215 213.337L286.218 212.888C286.162 212.876 286.11 212.85 286.065 212.813C286.019 212.775 285.983 212.728 285.957 212.673C285.932 212.618 285.919 212.558 285.918 212.496C285.917 212.435 285.93 212.374 285.954 212.319L286.786 210.193C286.821 210.101 286.824 209.999 286.796 209.905C286.767 209.811 286.709 209.73 286.631 209.678C286.552 209.626 286.46 209.606 286.369 209.62C286.278 209.635 286.195 209.684 286.134 209.759L284.622 211.436C284.586 211.486 284.539 211.526 284.486 211.554C284.434 211.581 284.376 211.596 284.317 211.596C284.258 211.596 284.2 211.581 284.147 211.554C284.094 211.526 284.048 211.486 284.012 211.436L282.777 209.759C282.513 209.4 281.944 209.759 282.041 210.193L282.527 212.319C282.541 212.381 282.543 212.446 282.533 212.509C282.523 212.572 282.501 212.632 282.469 212.685C282.436 212.739 282.394 212.784 282.344 212.819C282.294 212.854 282.239 212.877 282.18 212.888L280.113 213.337C279.669 213.427 279.614 214.101 280.044 214.191L282.041 214.64C282.097 214.651 282.15 214.677 282.195 214.714C282.24 214.752 282.276 214.8 282.301 214.856C282.325 214.911 282.337 214.972 282.335 215.033C282.334 215.095 282.318 215.155 282.291 215.209L281.487 217.35C281.452 217.442 281.449 217.544 281.477 217.638C281.506 217.732 281.564 217.812 281.642 217.864C281.721 217.917 281.813 217.937 281.904 217.922C281.995 217.907 282.078 217.858 282.139 217.784L283.651 216.107C283.69 216.062 283.737 216.025 283.79 216.001C283.842 215.976 283.899 215.963 283.956 215.963C284.013 215.963 284.07 215.976 284.123 216.001C284.175 216.025 284.222 216.062 284.261 216.107L285.496 217.784C285.76 218.143 286.329 217.784 286.218 217.35L285.732 215.224C285.712 215.097 285.738 214.966 285.805 214.86C285.873 214.754 285.976 214.68 286.093 214.655L288.16 214.206C288.59 214.101 288.645 213.427 288.215 213.337Z" fill="#263238"/>
<path d="M301.34 213.337L299.342 212.888C299.287 212.876 299.234 212.85 299.189 212.813C299.144 212.775 299.107 212.728 299.082 212.673C299.057 212.618 299.043 212.558 299.043 212.496C299.042 212.435 299.054 212.374 299.079 212.319L299.911 210.193C299.946 210.101 299.949 209.999 299.92 209.905C299.892 209.811 299.833 209.73 299.755 209.678C299.677 209.626 299.584 209.606 299.493 209.62C299.402 209.635 299.319 209.684 299.259 209.759L297.747 211.436C297.71 211.486 297.664 211.526 297.611 211.554C297.558 211.581 297.5 211.596 297.441 211.596C297.383 211.596 297.325 211.581 297.272 211.554C297.219 211.526 297.173 211.486 297.136 211.436L295.901 209.759C295.638 209.4 295.069 209.759 295.18 210.193L295.666 212.319C295.678 212.382 295.678 212.447 295.666 212.51C295.654 212.573 295.631 212.633 295.597 212.686C295.563 212.739 295.52 212.785 295.47 212.819C295.42 212.854 295.364 212.877 295.305 212.888L293.238 213.337C292.794 213.427 292.738 214.101 293.168 214.191L295.166 214.64C295.222 214.652 295.274 214.678 295.319 214.715C295.364 214.752 295.401 214.8 295.426 214.855C295.452 214.91 295.465 214.97 295.466 215.031C295.466 215.093 295.454 215.153 295.43 215.209L294.597 217.335C294.563 217.427 294.559 217.529 294.588 217.623C294.616 217.717 294.675 217.797 294.753 217.85C294.831 217.902 294.924 217.922 295.015 217.907C295.106 217.893 295.189 217.843 295.249 217.769L296.762 216.092C296.801 216.047 296.848 216.011 296.9 215.986C296.953 215.961 297.01 215.948 297.067 215.948C297.124 215.948 297.181 215.961 297.233 215.986C297.286 216.011 297.333 216.047 297.372 216.092L298.607 217.769C298.87 218.128 299.439 217.769 299.342 217.335L298.857 215.209C298.844 215.147 298.844 215.083 298.855 215.021C298.866 214.958 298.888 214.899 298.92 214.846C298.952 214.793 298.994 214.748 299.043 214.712C299.091 214.677 299.146 214.652 299.203 214.64L301.271 214.191C301.715 214.101 301.77 213.427 301.34 213.337Z" fill="#263238"/>
<path d="M314.465 213.337L312.481 212.888C312.424 212.879 312.369 212.855 312.323 212.818C312.276 212.781 312.238 212.733 312.212 212.677C312.186 212.622 312.173 212.56 312.174 212.498C312.175 212.435 312.19 212.374 312.217 212.319L313.05 210.193C313.103 210.098 313.119 209.983 313.094 209.875C313.07 209.767 313.006 209.674 312.918 209.617C312.829 209.559 312.723 209.542 312.623 209.568C312.523 209.595 312.437 209.664 312.384 209.759L310.885 211.436C310.847 211.486 310.8 211.526 310.746 211.554C310.692 211.582 310.633 211.596 310.573 211.596C310.513 211.596 310.454 211.582 310.4 211.554C310.346 211.526 310.299 211.486 310.261 211.436L309.026 209.759C308.763 209.4 308.194 209.759 308.305 210.193L308.79 212.319C308.802 212.381 308.803 212.445 308.792 212.507C308.781 212.569 308.759 212.629 308.727 212.682C308.695 212.735 308.653 212.78 308.604 212.815C308.556 212.851 308.501 212.876 308.443 212.888L306.376 213.337C305.932 213.427 305.877 214.101 306.307 214.191L308.291 214.64C308.346 214.652 308.399 214.678 308.444 214.715C308.489 214.752 308.525 214.8 308.551 214.855C308.576 214.91 308.59 214.97 308.59 215.031C308.591 215.093 308.579 215.153 308.554 215.209L307.722 217.335C307.669 217.43 307.653 217.544 307.677 217.652C307.702 217.761 307.765 217.854 307.854 217.911C307.942 217.969 308.048 217.986 308.148 217.959C308.248 217.933 308.335 217.864 308.388 217.769L309.886 216.092C309.925 216.047 309.972 216.011 310.025 215.986C310.078 215.961 310.134 215.948 310.192 215.948C310.249 215.948 310.306 215.961 310.358 215.986C310.411 216.011 310.458 216.047 310.497 216.092L311.745 217.769C312.009 218.128 312.578 217.769 312.467 217.335L311.981 215.209C311.96 215.084 311.985 214.955 312.049 214.849C312.114 214.744 312.214 214.668 312.328 214.64L314.395 214.191C314.784 214.101 314.895 213.427 314.465 213.337Z" fill="#263238"/>
<path d="M327.603 213.337L325.605 212.888C325.55 212.876 325.497 212.85 325.452 212.813C325.407 212.775 325.371 212.728 325.345 212.673C325.32 212.618 325.306 212.558 325.306 212.496C325.305 212.435 325.317 212.374 325.342 212.319L326.174 210.193C326.209 210.101 326.212 209.999 326.184 209.905C326.155 209.811 326.097 209.73 326.018 209.678C325.94 209.626 325.847 209.606 325.757 209.62C325.666 209.635 325.583 209.684 325.522 209.759L324.01 211.436C323.973 211.486 323.927 211.526 323.874 211.554C323.821 211.581 323.763 211.596 323.705 211.596C323.646 211.596 323.588 211.581 323.535 211.554C323.482 211.526 323.436 211.486 323.399 211.436L322.165 209.759C321.901 209.4 321.332 209.759 321.429 210.193L321.915 212.319C321.929 212.381 321.931 212.446 321.921 212.509C321.911 212.572 321.889 212.632 321.857 212.685C321.824 212.739 321.782 212.784 321.732 212.819C321.682 212.854 321.626 212.877 321.568 212.888L319.501 213.337C319.057 213.427 319.001 214.101 319.501 214.191L321.499 214.64C321.555 214.651 321.607 214.677 321.652 214.714C321.697 214.752 321.733 214.8 321.758 214.856C321.782 214.911 321.794 214.972 321.792 215.033C321.791 215.095 321.776 215.155 321.748 215.209L320.93 217.335C320.895 217.427 320.892 217.529 320.92 217.623C320.949 217.717 321.007 217.797 321.086 217.85C321.164 217.902 321.257 217.922 321.347 217.907C321.438 217.893 321.521 217.843 321.582 217.769L323.094 216.092C323.133 216.047 323.18 216.011 323.233 215.986C323.285 215.961 323.342 215.948 323.399 215.948C323.457 215.948 323.513 215.961 323.566 215.986C323.618 216.011 323.666 216.047 323.705 216.092L324.939 217.769C325.203 218.128 325.772 217.769 325.661 217.335L325.175 215.209C325.155 215.082 325.181 214.951 325.248 214.845C325.316 214.739 325.419 214.665 325.536 214.64L327.603 214.191C327.978 214.101 328.033 213.427 327.603 213.337Z" fill="#263238"/>
<path d="M340.728 213.337L338.73 212.888C338.674 212.876 338.622 212.85 338.577 212.813C338.532 212.775 338.495 212.728 338.47 212.673C338.445 212.618 338.431 212.558 338.43 212.496C338.43 212.435 338.442 212.374 338.466 212.319L339.299 210.193C339.333 210.101 339.337 209.999 339.308 209.905C339.28 209.811 339.221 209.73 339.143 209.678C339.065 209.626 338.972 209.606 338.881 209.62C338.79 209.635 338.707 209.684 338.647 209.759L337.134 211.436C337.098 211.486 337.052 211.526 336.999 211.554C336.946 211.581 336.888 211.596 336.829 211.596C336.771 211.596 336.712 211.581 336.66 211.554C336.607 211.526 336.56 211.486 336.524 211.436L335.289 209.759C335.026 209.4 334.457 209.759 334.568 210.193L335.053 212.319C335.065 212.382 335.066 212.447 335.054 212.51C335.042 212.573 335.019 212.633 334.985 212.686C334.951 212.739 334.908 212.785 334.858 212.819C334.808 212.854 334.751 212.877 334.693 212.888L332.625 213.337C332.182 213.427 332.126 214.101 332.556 214.191L334.554 214.64C334.61 214.652 334.662 214.678 334.707 214.715C334.752 214.752 334.789 214.8 334.814 214.855C334.839 214.91 334.853 214.97 334.854 215.031C334.854 215.093 334.842 215.153 334.818 215.209L333.985 217.335C333.95 217.427 333.947 217.529 333.976 217.623C334.004 217.717 334.063 217.797 334.141 217.85C334.219 217.902 334.312 217.922 334.403 217.907C334.494 217.893 334.577 217.843 334.637 217.769L336.149 216.092C336.188 216.047 336.236 216.011 336.288 215.986C336.341 215.961 336.397 215.948 336.455 215.948C336.512 215.948 336.569 215.961 336.621 215.986C336.674 216.011 336.721 216.047 336.76 216.092L337.995 217.769C338.258 218.128 338.827 217.769 338.73 217.335L338.244 215.209C338.232 215.147 338.232 215.083 338.242 215.021C338.253 214.958 338.276 214.899 338.308 214.846C338.34 214.793 338.382 214.748 338.43 214.712C338.479 214.677 338.534 214.652 338.591 214.64L340.658 214.191C341.144 214.101 341.144 213.427 340.728 213.337Z" fill="#263238"/>
<path d="M353.852 213.337L351.855 212.888C351.799 212.877 351.746 212.851 351.701 212.814C351.656 212.776 351.62 212.728 351.596 212.672C351.571 212.617 351.559 212.556 351.561 212.494C351.563 212.433 351.578 212.373 351.605 212.319L352.437 210.193C352.464 210.146 352.481 210.094 352.489 210.039C352.497 209.985 352.494 209.929 352.482 209.875C352.47 209.822 352.448 209.771 352.418 209.727C352.387 209.683 352.349 209.645 352.306 209.617C352.262 209.588 352.213 209.569 352.163 209.561C352.112 209.553 352.061 209.555 352.011 209.568C351.962 209.582 351.915 209.605 351.874 209.638C351.833 209.671 351.798 209.712 351.771 209.759L350.273 211.436C350.235 211.486 350.188 211.526 350.134 211.554C350.08 211.582 350.021 211.596 349.961 211.596C349.901 211.596 349.842 211.582 349.788 211.554C349.734 211.526 349.686 211.486 349.649 211.436L348.414 209.759C348.15 209.4 347.582 209.759 347.692 210.193L348.178 212.319C348.19 212.381 348.191 212.445 348.18 212.507C348.169 212.569 348.147 212.629 348.115 212.682C348.082 212.735 348.041 212.78 347.992 212.815C347.943 212.851 347.889 212.876 347.831 212.888L345.764 213.337C345.32 213.427 345.265 214.101 345.695 214.191L347.679 214.64C347.734 214.652 347.787 214.678 347.832 214.715C347.877 214.752 347.913 214.8 347.939 214.855C347.964 214.91 347.978 214.97 347.978 215.031C347.979 215.093 347.967 215.153 347.942 215.209L347.11 217.335C347.056 217.43 347.04 217.544 347.065 217.652C347.09 217.761 347.153 217.854 347.242 217.911C347.33 217.969 347.436 217.986 347.536 217.959C347.636 217.933 347.722 217.864 347.776 217.769L349.274 216.092C349.313 216.047 349.36 216.011 349.413 215.986C349.465 215.961 349.522 215.948 349.579 215.948C349.637 215.948 349.693 215.961 349.746 215.986C349.798 216.011 349.846 216.047 349.885 216.092L351.119 217.769C351.184 217.847 351.271 217.9 351.367 217.918C351.463 217.936 351.562 217.918 351.647 217.868C351.732 217.817 351.799 217.737 351.837 217.64C351.875 217.543 351.881 217.436 351.855 217.335L351.369 215.209C351.348 215.084 351.373 214.955 351.437 214.849C351.502 214.744 351.602 214.668 351.716 214.64L353.783 214.191C354.227 214.101 354.283 213.427 353.852 213.337Z" fill="#263238"/>
<path d="M322.206 182.33H297.566C296.81 182.344 296.085 182.656 295.528 183.208C294.97 183.76 294.62 184.513 294.542 185.324C294.502 185.706 294.539 186.093 294.649 186.459C294.759 186.824 294.941 187.16 295.181 187.444C295.422 187.727 295.716 187.952 296.043 188.103C296.371 188.254 296.725 188.328 297.081 188.319H321.721C322.477 188.305 323.202 187.993 323.759 187.441C324.317 186.889 324.667 186.136 324.745 185.324C324.782 184.943 324.744 184.557 324.633 184.193C324.522 183.828 324.341 183.493 324.101 183.21C323.861 182.927 323.568 182.702 323.241 182.551C322.914 182.399 322.562 182.324 322.206 182.33Z" fill="#263238"/>
<path d="M347.235 182.33H332.931C332.176 182.344 331.453 182.657 330.898 183.209C330.343 183.761 329.995 184.514 329.92 185.324C329.881 185.705 329.917 186.091 330.026 186.455C330.136 186.82 330.316 187.155 330.555 187.438C330.794 187.722 331.086 187.947 331.412 188.099C331.738 188.25 332.09 188.326 332.445 188.319H346.694C347.448 188.305 348.172 187.992 348.727 187.44C349.282 186.888 349.63 186.135 349.704 185.324C349.743 184.949 349.708 184.568 349.602 184.208C349.496 183.848 349.321 183.516 349.088 183.233C348.855 182.951 348.57 182.725 348.25 182.569C347.931 182.413 347.585 182.332 347.235 182.33Z" fill="#263238"/>
<path d="M366.117 318.052C357.408 321.632 349.546 327.257 343.1 334.521C339.186 331.242 334.52 329.172 329.601 328.532L328.949 328.428L328.672 331.961L329.032 332.111C334.427 334.254 338.99 338.308 341.977 343.609L342.448 344.448L342.962 343.549C348.707 333.651 356.816 325.604 366.436 320.253L366.755 320.073L366.936 317.738L366.117 318.052Z" fill="#263238"/>
<path opacity="0.2" d="M242.14 23.2666C240.372 26.5983 239.284 30.2991 238.949 34.1214L218.291 288.976H282.222L295.069 235.84L290.837 182.689L303.685 129.553L299.522 76.4175L312.37 23.2666H242.14Z" fill="black"/>
<path d="M293.903 61.4454L306.751 8.30951H145.079L132.245 61.4454L136.463 114.581L123.63 167.732L127.847 220.868L115 274.004H276.672L289.519 220.868L285.288 167.732L298.135 114.581L293.903 61.4454Z" fill="#407BFF"/>
<path opacity="0.7" d="M293.903 61.4454L306.751 8.30951H145.079L132.245 61.4454L136.463 114.581L123.63 167.732L127.847 220.868L115 274.004H276.672L289.519 220.868L285.288 167.732L298.135 114.581L293.903 61.4454Z" fill="white"/>
<path opacity="0.5" d="M293.904 61.4454H132.245L145.079 8.30951H306.751L293.904 61.4454Z" fill="white"/>
<path opacity="0.5" d="M285.288 167.732H123.63L136.463 114.581H298.135L285.288 167.732Z" fill="white"/>
<path opacity="0.5" d="M276.672 274.004H115L127.847 220.868H289.519L276.672 274.004Z" fill="white"/>
<path opacity="0.2" d="M272.274 83.649C270.615 84.1663 268.895 84.4186 267.169 84.3976C264.827 84.5094 262.497 83.9951 260.384 82.9004C260.002 82.656 259.566 82.5268 259.122 82.5261C258.714 82.5322 258.314 82.6453 257.956 82.8555H257.873C257.253 83.2309 256.591 83.5178 255.903 83.7089C254.35 84.1512 252.75 84.3677 251.144 84.3527C250.659 84.3527 250.187 84.3527 249.757 84.3527C248.511 84.2664 247.278 84.0304 246.08 83.649C245.904 83.5925 245.723 83.5573 245.539 83.5442C245.234 83.5174 244.927 83.5589 244.638 83.6663C244.348 83.7737 244.082 83.9445 243.857 84.1681C243.631 84.3917 243.451 84.6631 243.328 84.9655C243.204 85.2678 243.14 85.5944 243.139 85.9248V87.5418H180.207C179.051 87.5418 177.906 87.7878 176.838 88.2658C175.77 88.7437 174.8 89.4443 173.983 90.3273C173.166 91.2103 172.518 92.2585 172.077 93.4119C171.636 94.5653 171.409 95.8012 171.411 97.049V106.616C171.408 107.865 171.632 109.103 172.073 110.258C172.513 111.413 173.161 112.463 173.978 113.348C174.795 114.232 175.766 114.934 176.835 115.413C177.904 115.892 179.05 116.138 180.207 116.138H251.699H252.171C252.934 116.827 253.739 117.516 254.599 118.22C255.459 118.923 256.68 119.896 257.804 120.765C258.187 121.064 258.648 121.226 259.122 121.226C259.595 121.226 260.056 121.064 260.44 120.765C269.43 113.728 275.202 108.877 275.202 95.5518V85.9697C275.206 85.5865 275.125 85.2077 274.967 84.8647C274.809 84.5218 274.577 84.2245 274.29 83.9976C274.004 83.7707 273.672 83.6208 273.321 83.5601C272.971 83.4995 272.612 83.53 272.274 83.649Z" fill="black"/>
<path d="M250.326 82.2866H178.848C173.982 82.2866 170.038 86.5431 170.038 91.7938V101.361C170.038 106.612 173.982 110.868 178.848 110.868H250.326C255.191 110.868 259.136 106.612 259.136 101.361V91.7938C259.136 86.5431 255.191 82.2866 250.326 82.2866Z" fill="#407BFF"/>
<path d="M265.795 79.1275C263.454 79.2356 261.124 78.7214 259.011 77.6302C258.635 77.3813 258.203 77.2496 257.762 77.2496C257.321 77.2496 256.889 77.3813 256.514 77.6302C254.395 78.7233 252.061 79.2374 249.715 79.1275C247.989 79.1473 246.269 78.8951 244.61 78.3789C244.276 78.2576 243.919 78.2239 243.571 78.2808C243.222 78.3376 242.891 78.4833 242.605 78.7057C242.319 78.9282 242.086 79.221 241.925 79.5599C241.765 79.8988 241.682 80.2741 241.682 80.6546V90.2368C241.682 103.577 247.454 108.428 256.444 115.465C256.828 115.764 257.289 115.926 257.762 115.926C258.236 115.926 258.697 115.764 259.08 115.465C268.07 108.428 273.842 103.577 273.842 90.2368V80.6546C273.84 80.2734 273.755 79.8981 273.593 79.5594C273.431 79.2207 273.197 78.9283 272.91 78.7062C272.623 78.4841 272.291 78.3386 271.942 78.2817C271.593 78.2248 271.236 78.2581 270.901 78.3789C269.242 78.8962 267.522 79.1484 265.795 79.1275Z" fill="#407BFF"/>
<path opacity="0.3" d="M265.795 79.1275C263.454 79.2356 261.124 78.7214 259.011 77.6302C258.635 77.3813 258.203 77.2496 257.762 77.2496C257.321 77.2496 256.889 77.3813 256.514 77.6302C254.395 78.7233 252.061 79.2374 249.715 79.1275C247.989 79.1473 246.269 78.8951 244.61 78.3789C244.276 78.2576 243.919 78.2239 243.571 78.2808C243.222 78.3376 242.891 78.4833 242.605 78.7057C242.319 78.9282 242.086 79.221 241.925 79.5599C241.765 79.8988 241.682 80.2741 241.682 80.6546V90.2368C241.682 103.577 247.454 108.428 256.444 115.465C256.828 115.764 257.289 115.926 257.762 115.926C258.236 115.926 258.697 115.764 259.08 115.465C268.07 108.428 273.842 103.577 273.842 90.2368V80.6546C273.84 80.2734 273.755 79.8981 273.593 79.5594C273.431 79.2207 273.197 78.9283 272.91 78.7062C272.623 78.4841 272.291 78.3386 271.942 78.2817C271.593 78.2248 271.236 78.2581 270.901 78.3789C269.242 78.8962 267.522 79.1484 265.795 79.1275Z" fill="white"/>
<path opacity="0.2" d="M256.514 77.6004C254.395 78.6934 252.061 79.2075 249.715 79.0976C247.989 79.1164 246.269 78.8642 244.61 78.349C244.276 78.2277 243.919 78.1941 243.571 78.2509C243.222 78.3077 242.891 78.4534 242.605 78.6758C242.319 78.8983 242.086 79.1911 241.925 79.53C241.765 79.8689 241.682 80.2442 241.682 80.6247V90.2069C241.682 103.547 247.454 108.398 256.444 115.435C256.847 115.75 257.334 115.913 257.832 115.899V77.2111C257.367 77.2011 256.909 77.3363 256.514 77.6004Z" fill="white"/>
<path d="M270.651 87.6317C265.243 89.9182 260.426 93.5804 256.611 98.3068C253.95 96.1901 250.831 94.8447 247.551 94.3991H247.121V96.6898L247.357 96.7796C251.004 98.2003 254.148 100.818 256.347 104.266L256.694 104.805L256.985 104.221C260.175 97.8242 265.032 92.5772 270.956 89.1289L271.164 89.0241V87.5269L270.651 87.6317Z" fill="#263238"/>
<path d="M303.893 23.2517H297.76C296.971 23.2675 296.188 23.1016 295.464 22.765C294.739 22.4284 294.089 21.9289 293.557 21.2998C293.025 20.6707 292.624 19.9265 292.38 19.1167C292.136 18.307 292.055 17.4504 292.141 16.6041L292.683 9.9864C292.849 8.18663 293.622 6.51542 294.854 5.28999C296.087 4.06456 297.694 3.37022 299.37 3.3388H305.502C306.292 3.32081 307.077 3.48513 307.803 3.82075C308.53 4.15637 309.181 4.65557 309.715 5.28492C310.248 5.91427 310.65 6.65927 310.895 7.47008C311.14 8.28088 311.222 9.13879 311.135 9.9864L310.594 16.6041C310.407 18.3977 309.626 20.0583 308.395 21.2798C307.163 22.5013 305.565 23.2016 303.893 23.2517Z" fill="#407BFF"/>
<path d="M306.445 9.97142L305.114 8.39935L301.756 11.7232L298.954 8.39935L297.358 9.97142L300.174 13.2952L296.817 16.619L298.163 18.1911L301.506 14.8673L304.309 18.1911L305.904 16.619L303.088 13.2952L306.445 9.97142Z" fill="white"/>
<path d="M166.847 80.3401C170.399 84.5174 173.784 88.8443 177.155 93.2012C180.526 97.558 183.787 102.005 187.033 106.466C187.172 106.661 187.117 106.586 187.144 106.646C187.172 106.706 187.144 106.721 187.144 106.736C187.168 106.791 187.201 106.842 187.241 106.886C187.36 107.067 187.51 107.221 187.684 107.339C187.858 107.458 188.052 107.538 188.254 107.574C188.411 107.597 188.569 107.597 188.726 107.574C188.809 107.581 188.892 107.581 188.976 107.574H189.1C189.17 107.574 189.1 107.574 189.322 107.485L192.791 105.448C197.453 102.783 202.156 100.178 207.012 97.8425L211.077 103.277C207.164 107.155 203.085 112.021 198.965 115.584L195.857 118.219C195.664 118.39 195.46 118.545 195.247 118.684C195.011 118.864 194.765 119.029 194.511 119.178C194.009 119.49 193.49 119.77 192.957 120.016C191.882 120.504 190.754 120.841 189.6 121.019C187.266 121.389 184.883 121.132 182.663 120.271C181.534 119.838 180.461 119.249 179.472 118.519C178.973 118.16 178.501 117.74 178.085 117.336C177.849 117.127 177.655 116.887 177.433 116.662L176.878 116.064C173.201 111.991 169.58 107.889 166.028 103.712C162.477 99.5344 158.966 95.3272 155.609 90.9553L166.847 80.3401Z" fill="#B55B52"/>
<path d="M205.18 101.136L208.413 89.9222L216.931 94.5037C216.931 94.5037 215.683 102.678 209.495 104.101L205.18 101.136Z" fill="#B55B52"/>
<path d="M211.812 86.8231L219.498 89.1138L216.918 94.5188L208.399 89.9373L211.812 86.8231Z" fill="#B55B52"/>
<path d="M122.062 83.3944C121.146 88.1556 120.009 92.8718 118.829 97.573C117.65 102.274 116.36 106.931 115.014 111.587L114.515 113.339L114.265 114.207C114.231 114.332 114.185 114.453 114.126 114.566C113.968 115.048 113.879 115.553 113.863 116.064C113.833 117.151 114.114 118.223 114.667 119.133C114.94 119.532 115.242 119.907 115.569 120.256L116.721 121.618L118.996 124.358C120.48 126.215 121.979 128.071 123.394 130.018L118.552 136.006C116.554 134.779 114.64 133.446 112.725 132.129L109.881 130.092L108.493 129.059C108.022 128.7 107.633 128.46 106.87 127.787C104.156 125.29 102.283 121.895 101.543 118.13C101.17 116.21 101.081 114.24 101.279 112.291C101.279 111.811 101.418 111.272 101.487 110.793L101.64 109.895L101.931 108.098C102.708 103.292 103.54 98.5013 104.47 93.7402C105.4 88.979 106.398 84.2329 107.578 79.5466L122.062 83.3944Z" fill="#B55B52"/>
<path d="M118.649 129.539L124.365 126.379L126.89 136.86C126.89 136.86 122.298 138.761 118.746 136.321L118.649 129.539Z" fill="#B55B52"/>
<path d="M132.273 123.026L132.537 132.653L126.141 137.159L123.921 126.589L132.273 123.026Z" fill="#B55B52"/>
<path d="M150.989 33.8968C151.128 34.6304 151.613 35.1544 152.057 35.0646C152.501 34.9748 152.765 34.286 152.626 33.5674C152.487 32.8487 152.002 32.3097 151.558 32.3996C151.114 32.4894 150.85 33.1931 150.989 33.8968Z" fill="#263238"/>
<path d="M151.544 35.1694C152.793 37.2576 154.301 39.1516 156.025 40.7989C155.624 41.2656 155.133 41.632 154.586 41.8726C154.04 42.1131 153.451 42.2218 152.862 42.1913L151.544 35.1694Z" fill="#A02724"/>
<path d="M147.701 30.3334C147.621 30.3324 147.543 30.3065 147.476 30.259C147.41 30.2114 147.357 30.1441 147.325 30.0652C147.293 29.9862 147.282 29.8989 147.295 29.8138C147.307 29.7286 147.342 29.6491 147.396 29.5848C147.83 29.0544 148.374 28.6424 148.984 28.3822C149.594 28.122 150.253 28.021 150.906 28.0876C150.96 28.0984 151.011 28.1205 151.057 28.1527C151.102 28.1849 151.142 28.2265 151.173 28.2752C151.204 28.3238 151.226 28.3786 151.237 28.4363C151.248 28.494 151.249 28.5536 151.239 28.6116C151.23 28.669 151.211 28.724 151.183 28.7734C151.155 28.8227 151.117 28.8654 151.073 28.8989C151.029 28.9324 150.98 28.9561 150.927 28.9684C150.874 28.9808 150.82 28.9817 150.767 28.9709C150.25 28.9174 149.728 28.9982 149.245 29.2065C148.762 29.4149 148.333 29.7448 147.992 30.1687C147.918 30.2618 147.814 30.3208 147.701 30.3334Z" fill="#263238"/>
<path d="M130.983 44.3323C132.509 51.2045 134.049 63.796 128.583 68.3625C128.583 68.3625 130.719 75.3395 145.231 75.3395C161.186 75.3395 152.862 70.8479 152.862 70.8479C144.149 69.0213 144.371 60.8615 145.925 55.5165L130.983 44.3323Z" fill="#B55B52"/>
<path d="M126.876 69.6351C125.933 67.7337 124.878 65.5477 127.043 64.859C129.429 64.1104 144.732 62.718 149.241 64.1254C147.853 66.7755 150.198 70.1142 150.198 70.1142L126.876 69.6351Z" fill="#263238"/>
<path d="M139.543 390.906H149.56L150.559 369.167H140.542L139.543 390.906Z" fill="#B55B52"/>
<path d="M76.0287 387.912L86.1705 388.496L92.3305 367.071L82.1887 366.502L76.0287 387.912Z" fill="#B55B52"/>
<path d="M85.8652 387.627L76.3061 385.396C76.1387 385.355 75.9633 385.377 75.8092 385.459C75.6552 385.541 75.5318 385.677 75.4598 385.846L72.144 393.616C72.0623 393.805 72.0218 394.011 72.0256 394.219C72.0294 394.427 72.0774 394.632 72.1658 394.817C72.2542 395.002 72.3807 395.163 72.5357 395.287C72.6906 395.411 72.8699 395.495 73.0596 395.532C76.4032 396.251 78.0681 396.416 82.2719 397.404C84.8524 398.003 90.6933 399.545 94.2589 400.398C97.8244 401.252 99.0592 397.539 97.6718 396.85C91.4286 393.781 88.8203 391.071 87.1277 388.541C86.8239 388.08 86.375 387.756 85.8652 387.627Z" fill="#263238"/>
<path d="M149.033 389.813H139.529C139.357 389.815 139.191 389.88 139.058 389.997C138.924 390.114 138.831 390.276 138.794 390.457L137.074 398.796C137.029 398.998 137.028 399.208 137.07 399.411C137.113 399.613 137.197 399.803 137.318 399.964C137.438 400.126 137.591 400.256 137.765 400.344C137.939 400.432 138.13 400.477 138.322 400.473C141.749 400.473 146.647 400.189 151.017 400.189C156.053 400.189 160.395 400.488 166.278 400.488C169.844 400.488 170.842 396.595 169.344 396.236C162.532 394.634 156.983 394.454 151.1 390.547C150.485 390.105 149.771 389.851 149.033 389.813Z" fill="#263238"/>
<path d="M110.45 71.5366C102.902 75.4144 100.849 98.9205 100.849 98.9205L119.537 108.233C122.696 102.483 124.417 95.9468 124.532 89.2635C124.906 77.1212 118.177 67.6289 110.45 71.5366Z" fill="#263238"/>
<path opacity="0.4" d="M120.55 86.0295C117.178 91.689 117.498 100.433 118.663 107.814L119.495 108.233C122.651 102.482 124.372 95.9463 124.49 89.2635C124.49 88.5449 124.49 87.7663 124.49 87.1225L120.55 86.0295Z" fill="black"/>
<path d="M162.601 70.9676C162.601 70.9676 171.869 82.2566 163.115 152.116H116.596C116.277 144.406 120.758 106.811 113.821 70.4885C118.962 69.4212 124.162 68.7111 129.387 68.3625C135.977 67.9579 142.582 67.9579 149.171 68.3625C153.703 68.8578 158.193 69.7288 162.601 70.9676Z" fill="#407BFF"/>
<path opacity="0.6" d="M162.601 70.9676C162.601 70.9676 171.869 82.2566 163.115 152.116H116.596C116.277 144.406 120.758 106.811 113.821 70.4885C118.962 69.4212 124.162 68.7111 129.387 68.3625C135.977 67.9579 142.582 67.9579 149.171 68.3625C153.703 68.8578 158.193 69.7288 162.601 70.9676Z" fill="#FAFAFA"/>
<path opacity="0.2" d="M166.666 92.3179L166.5 92.1532L157.246 86.8231C156.303 102.199 162.671 111.841 166.458 116.049C166.933 108.149 167.003 100.226 166.666 92.3179Z" fill="black"/>
<path opacity="0.2" d="M150.559 369.182L150.046 380.381H140.029L140.542 369.182H150.559Z" fill="black"/>
<path opacity="0.2" d="M82.1886 366.502L92.3304 367.085L89.1533 378.12L79.0115 377.536L82.1886 366.502Z" fill="black"/>
<path d="M127.764 37.3553C129.998 46.3386 130.886 51.7435 136.088 55.4865C143.83 61.116 153.459 54.6481 153.764 45.1109C154.027 36.5319 150.337 23.2516 141.388 21.44C139.413 21.0181 137.37 21.15 135.455 21.823C133.54 22.496 131.817 23.6876 130.45 25.2841C129.083 26.8805 128.119 28.8285 127.649 30.9418C127.178 33.0551 127.218 35.2633 127.764 37.3553Z" fill="#B55B52"/>
<path d="M146.619 152.116C146.619 152.116 136.741 223.848 131.358 250.737C125.392 280.232 93.5652 377.551 93.5652 377.551L77.9849 373.913C77.9849 373.913 97.9493 294.561 102.958 253.417C104.9 237.352 107.245 211.496 110.214 189.891C113.086 168.93 116.624 152.131 116.624 152.131L146.619 152.116Z" fill="#263238"/>
<path d="M97.2972 371.936L94.3837 378.015L76.8749 373.913L78.3455 368.238L97.2972 371.936Z" fill="#407BFF"/>
<path opacity="0.6" d="M97.2972 371.936L94.3837 378.015L76.8749 373.913L78.3455 368.238L97.2972 371.936Z" fill="white"/>
<path opacity="0.6" d="M140.376 177.674C128.957 180.084 130.164 226.033 131.538 249.659C134.84 232.951 139.654 200.821 142.942 178.003C142.147 177.58 141.241 177.464 140.376 177.674Z" fill="black"/>
<path d="M163.578 152.015C163.578 152.015 168.226 222.204 167.282 250.831C166.297 280.61 153.214 378.093 153.214 378.093H138.48C138.48 378.093 137.939 282.272 137.287 253.092C136.566 221.201 133 152 133 152L163.578 152.015Z" fill="#263238"/>
<path d="M155.581 371.877C155.651 371.877 154.749 378.479 154.749 378.479H136.824L136.338 372.58L155.581 371.877Z" fill="#407BFF"/>
<path opacity="0.6" d="M155.581 371.877C155.651 371.877 154.749 378.479 154.749 378.479H136.824L136.338 372.58L155.581 371.877Z" fill="white"/>
<path d="M157.177 84.0982C157.177 102.933 166.458 110.689 166.458 110.689L181.595 94.7882C178.012 88.3268 173.933 82.2017 169.4 76.4774C160.645 65.6526 157.177 72.0007 157.177 84.0982Z" fill="#263238"/>
<path opacity="0.2" d="M153.181 48.5245C152.872 49.4684 152.355 50.3165 151.673 50.995C150.991 51.6735 150.165 52.1617 149.269 52.4172C148.282 52.6344 147.387 53.1884 146.715 53.9972C146.043 54.8061 145.629 55.827 145.537 56.9088C147.333 56.2605 148.962 55.1631 150.291 53.7059C151.619 52.2488 152.61 50.4734 153.181 48.5245Z" fill="black"/>
<path d="M149.269 19.4637C152.376 15.2266 147.59 14.9721 147.59 14.9721C148.839 9.92647 143.234 12.6364 143.234 12.6364C139.876 7.63574 137.975 13.7294 137.975 13.7294C134.493 9.49227 133.813 16.4094 133.813 16.4094C130.317 11.0344 128.541 18.7899 128.541 18.7899C125.322 13.2054 123.352 20.4668 123.352 20.4668C116.707 17.9066 119.856 25.3627 119.856 25.3627C114.196 25.5274 118.746 30.2735 118.746 30.2735C111.948 30.2735 117.942 34.4807 117.942 34.4807C112.545 38.2986 119.329 39.3316 119.329 39.3316C114.931 46.8177 122.492 44.0029 122.492 44.0029C119.426 51.3692 126.21 48.1203 126.21 48.1203C125.78 55.217 129.568 53.2856 131.399 51.9681C131.746 53.4653 132.412 54.9625 133.633 55.0823C136.005 55.4266 136.408 50.5906 136.408 50.5906C136.408 50.5906 138.6 52.4472 140.445 51.4441C142.29 50.4409 141.596 47.9106 141.596 47.9106C141.997 48.2338 142.484 48.4085 142.984 48.4085C143.484 48.4085 143.971 48.2338 144.371 47.9106C145.162 47.2519 145.162 42.4907 144.163 40.8139L147.77 39.3167C147.77 39.3167 150.448 38.9124 149.255 35.0945C148.535 32.9002 148.472 30.5173 149.074 28.2822C153.153 26.2161 149.796 23.7906 149.796 23.7906C154.527 20.5117 149.269 19.4637 149.269 19.4637Z" fill="#263238"/>
<path d="M141.957 37.6847C142.522 39.9184 143.756 41.8874 145.467 43.2843C147.729 45.1109 149.421 43.2843 149.255 40.5444C149.116 38.059 147.756 34.1213 145.259 33.3727C142.762 32.6241 141.361 35.0346 141.957 37.6847Z" fill="#B55B52"/>
</g>
<defs>
<clipPath id="clip0_459_168">
<rect width="538" height="421" fill="white"/>
</clipPath>
</defs>
</svg>
