<svg width="491" height="491" viewBox="0 0 491 491" fill="none" xmlns="http://www.w3.org/2000/svg">
<circle cx="245.5" cy="245.5" r="245.5" fill="#D9D9D9"/>
<circle cx="245.5" cy="245.5" r="224.5" fill="white"/>
<path d="M318.957 211.124H318.858C318.377 211.103 317.922 210.902 317.583 210.56C317.245 210.219 317.047 209.762 317.031 209.281L315.174 150.343L310.823 179.419C310.745 179.878 310.504 180.294 310.143 180.589C309.783 180.884 309.328 181.039 308.863 181.024C308.398 181.01 307.953 180.828 307.612 180.511C307.27 180.194 307.055 179.765 307.005 179.302L303.324 136.444L298.576 187.235C298.536 187.647 298.364 188.035 298.085 188.341C297.806 188.646 297.435 188.853 297.028 188.929C296.622 189.009 296.2 188.956 295.825 188.778C295.451 188.599 295.144 188.305 294.949 187.939L282.187 163.67H153.474L145.722 205.777C145.636 206.226 145.394 206.63 145.038 206.917C144.682 207.204 144.236 207.355 143.779 207.343C143.322 207.332 142.884 207.159 142.543 206.854C142.202 206.55 141.98 206.134 141.917 205.682L131.827 128.554L121.867 158.159C121.722 158.581 121.436 158.939 121.058 159.174C120.679 159.408 120.231 159.505 119.789 159.446C119.348 159.388 118.94 159.179 118.635 158.854C118.331 158.529 118.147 158.109 118.117 157.664L116.072 121.47L104.706 186.193C104.626 186.623 104.402 187.013 104.072 187.299C103.742 187.585 103.324 187.751 102.887 187.769C102.451 187.787 102.021 187.657 101.668 187.398C101.315 187.14 101.06 186.77 100.945 186.348L92.2912 153.532L84.8125 168.203C84.6502 168.519 84.4037 168.785 84.1003 168.97C83.7969 169.154 83.4483 169.252 83.0931 169.251H53.9417C53.6803 169.27 53.4179 169.234 53.1709 169.147C52.9238 169.059 52.6973 168.922 52.5056 168.743C52.3139 168.565 52.161 168.348 52.0564 168.108C51.9519 167.867 51.8979 167.608 51.8979 167.346C51.8979 167.084 51.9519 166.824 52.0564 166.584C52.161 166.343 52.3139 166.127 52.5056 165.948C52.6973 165.77 52.9238 165.632 53.1709 165.545C53.4179 165.458 53.6803 165.422 53.9417 165.441H81.9205L91.1609 147.311C91.3395 146.964 91.6184 146.68 91.9611 146.495C92.3038 146.31 92.6943 146.233 93.0816 146.274C93.4688 146.315 93.8347 146.472 94.1314 146.724C94.428 146.977 94.6416 147.313 94.7441 147.689L102.444 176.884L115.171 104.405C115.257 103.945 115.509 103.531 115.878 103.242C116.247 102.954 116.708 102.809 117.176 102.836C117.644 102.863 118.086 103.059 118.419 103.389C118.753 103.718 118.955 104.157 118.988 104.625L121.408 147.48L130.837 119.455C130.978 119.044 131.253 118.694 131.617 118.459C131.982 118.224 132.415 118.119 132.846 118.16C133.278 118.201 133.683 118.387 133.997 118.686C134.31 118.986 134.513 119.383 134.574 119.812L144.151 193.044L149.963 161.43C150.046 160.988 150.281 160.59 150.627 160.304C150.974 160.018 151.409 159.863 151.858 159.865H283.353C283.704 159.864 284.049 159.959 284.35 160.14C284.651 160.321 284.897 160.58 285.061 160.891L295.34 180.435L301.476 114.699C301.524 114.223 301.746 113.783 302.101 113.463C302.456 113.143 302.917 112.967 303.395 112.969C303.873 112.969 304.334 113.148 304.687 113.471C305.04 113.794 305.26 114.237 305.303 114.714L309.423 162.671L314.522 128.68C314.597 128.208 314.845 127.781 315.217 127.481C315.589 127.181 316.059 127.03 316.536 127.058C317.013 127.085 317.463 127.289 317.798 127.629C318.134 127.969 318.331 128.422 318.352 128.9L320.148 185.947L325.566 145.781C325.63 145.321 325.859 144.899 326.21 144.594C326.561 144.289 327.01 144.122 327.475 144.124C327.941 144.122 328.391 144.289 328.743 144.595C329.094 144.901 329.322 145.325 329.384 145.787L333.408 176.935L337.205 162.274C337.311 161.877 337.541 161.524 337.861 161.266C338.181 161.009 338.575 160.86 338.985 160.841C339.396 160.823 339.801 160.936 340.143 161.164C340.485 161.392 340.745 161.723 340.886 162.109L353.368 196.857L366.424 162.405C366.565 162.04 366.812 161.727 367.134 161.506C367.456 161.285 367.838 161.168 368.228 161.169H395.395C395.656 161.15 395.918 161.186 396.165 161.273C396.412 161.361 396.639 161.498 396.831 161.677C397.022 161.855 397.175 162.072 397.28 162.312C397.384 162.553 397.438 162.812 397.438 163.074C397.438 163.336 397.384 163.596 397.28 163.836C397.175 164.077 397.022 164.293 396.831 164.472C396.639 164.65 396.412 164.788 396.165 164.875C395.918 164.962 395.656 164.998 395.395 164.979H369.563L355.121 203.081C354.977 203.446 354.726 203.759 354.402 203.98C354.078 204.2 353.694 204.318 353.302 204.317C352.909 204.315 352.526 204.193 352.204 203.966C351.882 203.74 351.638 203.42 351.504 203.05L339.369 169.27L334.64 187.531C334.526 187.962 334.266 188.34 333.904 188.6C333.543 188.861 333.102 188.989 332.658 188.961C332.213 188.934 331.791 188.753 331.465 188.451C331.138 188.148 330.926 187.741 330.865 187.299L327.433 160.742L320.865 209.473C320.8 209.932 320.571 210.353 320.22 210.656C319.87 210.959 319.421 211.126 318.957 211.124Z" fill="#91B3FA"/>
<path d="M334.663 356.636H334.56C334.058 356.612 333.583 356.4 333.229 356.043C332.876 355.685 332.669 355.208 332.651 354.705L330.707 293.004L326.151 323.447C326.073 323.931 325.821 324.371 325.443 324.683C325.065 324.996 324.585 325.16 324.095 325.144C323.605 325.129 323.137 324.936 322.778 324.601C322.42 324.265 322.196 323.811 322.148 323.322L318.295 278.452L313.329 331.63C313.287 332.061 313.106 332.466 312.814 332.786C312.522 333.106 312.134 333.322 311.709 333.403C311.283 333.487 310.84 333.432 310.447 333.245C310.054 333.059 309.732 332.75 309.528 332.366L296.165 306.958H135.6L127.497 351.039C127.405 351.509 127.151 351.93 126.778 352.23C126.406 352.529 125.939 352.687 125.462 352.675C124.984 352.663 124.526 352.482 124.169 352.164C123.812 351.846 123.58 351.412 123.512 350.938L112.954 270.183L102.527 301.179C102.375 301.62 102.076 301.995 101.679 302.241C101.283 302.486 100.813 302.587 100.351 302.526C99.8888 302.464 99.4619 302.245 99.1427 301.905C98.8236 301.565 98.6319 301.124 98.6001 300.659L96.4608 262.766L84.5603 330.529C84.4773 330.979 84.2437 331.389 83.8977 331.689C83.5518 331.99 83.114 332.164 82.6562 332.183C82.1984 332.202 81.7478 332.064 81.3783 331.793C81.0088 331.522 80.7423 331.133 80.6225 330.691L71.5635 296.333L63.7344 311.695C63.5632 312.024 63.3046 312.301 62.9869 312.493C62.6691 312.686 62.3046 312.787 61.9332 312.786H46.324C46.0622 312.786 45.803 312.734 45.5611 312.634C45.3193 312.534 45.0995 312.387 44.9144 312.202C44.7293 312.017 44.5825 311.797 44.4823 311.555C44.3821 311.313 44.3306 311.053 44.3306 310.791C44.3306 310.529 44.3821 310.27 44.4823 310.028C44.5825 309.786 44.7293 309.566 44.9144 309.381C45.0995 309.196 45.3193 309.049 45.5611 308.949C45.803 308.848 46.0622 308.797 46.324 308.797H60.6924L70.3732 289.816C70.5602 289.453 70.8523 289.156 71.2112 288.962C71.5701 288.768 71.979 288.687 72.3845 288.73C72.79 288.773 73.1731 288.937 73.4837 289.201C73.7944 289.466 74.0181 289.818 74.1255 290.211L82.1837 320.785L95.5104 244.902C95.6009 244.419 95.8641 243.986 96.2508 243.683C96.6375 243.38 97.1212 243.229 97.6114 243.257C98.1016 243.285 98.5647 243.491 98.914 243.836C99.2634 244.182 99.4751 244.642 99.5096 245.132L102.043 290L111.908 260.658C112.056 260.229 112.344 259.862 112.725 259.616C113.107 259.371 113.56 259.261 114.011 259.304C114.463 259.347 114.887 259.541 115.215 259.854C115.543 260.168 115.757 260.582 115.821 261.032L125.847 337.705L131.932 304.606C132.019 304.144 132.265 303.728 132.627 303.429C132.99 303.13 133.445 302.967 133.914 302.969H297.39C297.758 302.968 298.119 303.067 298.434 303.257C298.749 303.446 299.007 303.718 299.179 304.044L309.941 324.508L316.367 255.684C316.416 255.186 316.649 254.724 317.02 254.389C317.391 254.054 317.874 253.87 318.374 253.872H318.382C318.883 253.871 319.366 254.058 319.737 254.395C320.107 254.732 320.338 255.196 320.385 255.695L324.696 305.9L330.021 270.32C330.098 269.825 330.357 269.376 330.747 269.061C331.137 268.746 331.63 268.587 332.13 268.616C332.631 268.645 333.102 268.859 333.454 269.216C333.805 269.574 334.011 270.05 334.031 270.55L335.912 330.276L341.58 288.223C341.648 287.742 341.888 287.301 342.255 286.983C342.623 286.665 343.093 286.491 343.579 286.494C344.066 286.492 344.537 286.668 344.904 286.989C345.271 287.309 345.509 287.752 345.574 288.234L349.787 320.841L353.762 305.493C353.873 305.077 354.114 304.709 354.449 304.439C354.784 304.17 355.196 304.015 355.625 303.995C356.054 303.976 356.479 304.094 356.836 304.332C357.194 304.57 357.467 304.916 357.615 305.319L370.684 341.699L384.356 305.63C384.502 305.248 384.761 304.92 385.098 304.689C385.435 304.458 385.834 304.334 386.243 304.336H403.803C404.065 304.336 404.324 304.387 404.566 304.487C404.808 304.588 405.028 304.735 405.213 304.92C405.398 305.105 405.545 305.325 405.645 305.567C405.745 305.809 405.797 306.068 405.797 306.33C405.797 306.592 405.745 306.852 405.645 307.094C405.545 307.336 405.398 307.555 405.213 307.741C405.028 307.926 404.808 308.073 404.566 308.173C404.324 308.273 404.065 308.325 403.803 308.325H387.646L372.526 348.221C372.375 348.603 372.112 348.932 371.772 349.163C371.431 349.394 371.029 349.517 370.617 349.515C370.206 349.513 369.804 349.384 369.468 349.147C369.131 348.91 368.875 348.575 368.734 348.188L356.031 312.822L351.08 331.941C350.96 332.392 350.687 332.787 350.309 333.06C349.93 333.333 349.469 333.467 349.004 333.438C348.538 333.41 348.096 333.221 347.754 332.903C347.412 332.586 347.19 332.16 347.126 331.698L343.533 303.894L336.661 354.906C336.593 355.387 336.353 355.827 335.986 356.145C335.619 356.463 335.149 356.637 334.663 356.636Z" fill="#91B3FA"/>
<path d="M110.953 235.868C110.953 235.868 94.9623 275.384 113.088 297.993C131.215 320.602 182.684 351.936 218.823 375.772C254.962 399.609 280.022 397.366 293.222 388.187C306.422 379.008 317.042 339.042 317.711 324.49C318.381 309.939 331.223 191.168 282.109 180.318C282.109 180.318 283.674 174.498 289.94 177.18C296.205 179.862 304.597 186.244 304.597 186.244C304.597 186.244 330.213 167.554 317.568 147.287C317.568 147.287 268.004 128.826 247.868 130.397C227.732 131.969 201.782 170.928 186.458 182.907C171.134 194.887 120.465 222.322 110.953 235.868Z" fill="url(#paint0_linear_987_3)"/>
<path d="M184.445 161.64C184.445 161.64 201.17 181.791 213.624 184.808C226.078 187.824 227.972 174.729 229.873 168.124C231.773 161.52 242.616 112.375 267.565 121.214L270.586 127.146C270.586 127.146 286.251 140.353 304.596 127.812C304.596 127.812 312.98 88.7444 290.157 77.1071C267.333 65.4697 206.689 46.8977 184.445 161.64Z" fill="url(#paint1_linear_987_3)"/>
<path d="M179.732 75.2271C179.732 75.2271 161.052 127.505 145.958 143.291C130.864 159.077 95.175 188.3 92.8366 245.726C90.4983 303.151 105.037 284.335 111.076 270.237C117.115 256.138 170.695 213.249 195.192 201.492C219.69 189.734 219.462 172.943 200.783 166.79C182.103 160.637 183.217 153.693 192.498 129.85C201.779 106.008 217.324 78.3541 217.324 78.3541C217.324 78.3541 210.382 51.2621 179.732 75.2271Z" fill="url(#paint2_linear_987_3)"/>
<path opacity="0.48" d="M218.016 203.387C218.016 203.387 160.181 225.897 170.487 303.58C180.794 381.262 179.213 328.653 174.403 305.258C169.593 281.863 177.305 263.841 184.463 262.272C191.621 260.703 176.082 314.325 190.07 331.449C204.058 348.574 185.592 313.764 190.285 283.316C194.607 255.271 187.479 229.255 218.016 203.387Z" fill="white"/>
<path opacity="0.48" d="M255.379 189.723C255.379 189.723 295.651 180.089 304.274 229.229C312.896 278.369 293.323 302.439 288.741 328.298C284.158 354.157 297.125 289.23 298.464 266.617C299.803 244.004 305.168 224.975 290.624 217.814C276.079 210.653 258.97 257.105 245.435 267.076C231.9 277.046 240.96 262.374 258.525 236.516C276.089 210.657 307.624 195.421 255.379 189.723Z" fill="white"/>
<path d="M348.76 410.626C348.76 410.626 349.612 415.457 350.031 420.237C350.069 420.681 350.016 421.127 349.876 421.55C349.737 421.972 349.513 422.362 349.219 422.695C348.924 423.029 348.565 423.299 348.164 423.49C347.762 423.681 347.326 423.789 346.881 423.806C340.518 424.072 326.908 424.587 322.022 424.37C321.852 424.361 321.686 424.312 321.538 424.227C321.39 424.141 321.265 424.022 321.173 423.878C321.081 423.734 321.024 423.57 321.008 423.4C320.992 423.23 321.017 423.059 321.08 422.9C321.308 422.328 321.747 421.865 322.307 421.608L344.791 411.269L348.76 410.626Z" fill="url(#paint3_linear_987_3)"/>
<path d="M349.459 407.788L348.777 413.566C348.777 413.566 344.838 415.401 342.149 413.334L343.785 406.896L349.459 407.788Z" fill="url(#paint4_linear_987_3)"/>
<path d="M348.944 299.173C349.24 300.682 350.533 374.461 342.651 407.525C342.586 407.785 342.617 408.06 342.738 408.299C342.859 408.539 343.061 408.727 343.309 408.829C345.359 409.624 347.529 410.065 349.727 410.135C350.155 410.149 350.576 410.021 350.923 409.769C351.27 409.518 351.524 409.159 351.644 408.747C353.897 401.077 364.693 362.643 366.097 325.927C367.671 284.902 366.097 324.53 366.097 324.53L365.174 299.171L348.944 299.173Z" fill="url(#paint5_linear_987_3)"/>
<path d="M374.624 413.146C374.624 413.146 375.981 415.585 377.295 422.064C377.352 422.34 377.351 422.625 377.29 422.901C377.23 423.176 377.113 423.436 376.945 423.663C376.778 423.89 376.565 424.079 376.32 424.218C376.075 424.357 375.803 424.443 375.523 424.471C373.422 424.677 370.188 424.943 367.596 424.925C367.314 424.924 367.035 424.864 366.778 424.748C366.521 424.632 366.291 424.463 366.104 424.252C365.917 424.041 365.777 423.793 365.692 423.524C365.607 423.254 365.58 422.971 365.613 422.69C365.899 420.325 366.794 416.445 369.556 413.42L374.624 413.146Z" fill="url(#paint6_linear_987_3)"/>
<path d="M375.816 405.716L374.215 414.447C374.215 414.447 372.632 415.626 369.502 414.772L370.265 405.372L375.816 405.716Z" fill="url(#paint7_linear_987_3)"/>
<path d="M380.141 301.438C386.586 340.364 378.742 397.647 376.097 408.859C376.019 409.195 375.843 409.5 375.592 409.737C375.341 409.973 375.026 410.129 374.686 410.187C373.505 410.383 371.561 410.543 369.641 409.986C369.319 409.892 369.034 409.698 368.828 409.433C368.622 409.169 368.503 408.846 368.49 408.51C368.134 399.446 368.774 343.799 362.763 321.808C362.46 320.694 361.779 319.72 360.837 319.052L349.179 310.759L348.286 297.355L380.141 301.438Z" fill="url(#paint8_linear_987_3)"/>
<path d="M339.065 227.679C358.383 227.36 379.697 232.754 379.697 232.754C385.455 266.374 380.703 305.151 380.703 305.151C365.747 309.077 348.876 302.753 348.876 302.753C346.391 288.701 334.793 249.153 334.793 249.153C325.353 247.981 317.579 245.257 311.175 241.649C316.06 235.985 318.362 228.776 319.362 224.515C326.195 226.644 333.106 227.777 339.065 227.679Z" fill="url(#paint9_linear_987_3)"/>
<path d="M282.002 199.208C283.899 196.915 286.302 197.999 286.302 197.999C289.144 210.014 304.05 219.758 319.365 224.52C318.364 228.78 316.062 235.989 311.177 241.654C285.763 227.356 282.002 199.208 282.002 199.208Z" fill="url(#paint10_linear_987_3)"/>
<path d="M285.979 191.25C284.382 189.067 282.181 186.678 280.125 184.592C279.224 184.592 277.882 185.531 277.882 185.531C277.108 186.932 276.163 188.114 275.72 189.808C275.396 191.1 275.581 192.468 276.237 193.628C276.887 194.8 277.775 196.322 278.613 197.515C280.2 199.771 282.462 199.789 282.462 199.789C282.265 200.421 284.563 201.383 285.917 198.799C285.965 197.564 286.718 192.26 285.979 191.25Z" fill="url(#paint11_linear_987_3)"/>
<path d="M372.289 251.472L379.699 232.754C379.699 232.754 397.742 245.022 400.711 260.576C397.302 260.827 391.097 261.715 385.031 264.782C383.69 257.438 372.289 251.472 372.289 251.472Z" fill="url(#paint12_linear_987_3)"/>
<path d="M356.517 269.084C356.517 269.084 376.777 280.544 383.612 270.758C385.032 268.726 385.371 266.707 385.021 264.782C391.094 261.715 397.292 260.826 400.701 260.576C401.596 265.265 401.122 270.252 398.368 275.293C386.395 297.209 353.83 274.081 353.83 274.081L356.517 269.084Z" fill="url(#paint13_linear_987_3)"/>
<path d="M358.632 211.987L364.78 229.773C364.83 229.916 364.828 230.071 364.774 230.213C364.721 230.354 364.62 230.472 364.488 230.546C362.812 231.472 356.775 234.151 349.501 229.536C349.125 229.301 348.806 228.986 348.566 228.614C348.326 228.242 348.171 227.821 348.111 227.382L346.121 211.987H358.632Z" fill="url(#paint14_linear_987_3)"/>
<path d="M345.259 195.516C345.259 195.516 338.508 208.23 339.374 213.365C340.24 218.5 348.604 218.132 355.909 213.961L361.017 200.234L345.259 195.516Z" fill="url(#paint15_linear_987_3)"/>
<path d="M355.586 207.219C355.516 207.189 355.454 207.143 355.403 207.086C355.353 207.029 355.315 206.962 355.294 206.889C355.272 206.816 355.266 206.739 355.277 206.664C355.288 206.588 355.315 206.516 355.357 206.452C355.902 205.626 356.911 203.939 357.236 202.463C357.236 202.463 358.449 201.686 354.148 200.655C349.846 199.625 343.431 198.025 342.082 194.362C340.768 190.79 344.221 181.811 349.733 188.965C349.781 189.028 349.844 189.08 349.916 189.115C349.988 189.15 350.067 189.169 350.147 189.169C350.227 189.169 350.306 189.15 350.378 189.115C350.45 189.08 350.513 189.028 350.562 188.965C351.466 187.788 353.834 185.347 357.138 186.827C360.223 188.212 360.571 190.475 360.529 191.614C360.525 191.693 360.54 191.771 360.571 191.843C360.602 191.915 360.649 191.979 360.709 192.03C360.768 192.082 360.838 192.119 360.914 192.139C360.99 192.159 361.069 192.162 361.146 192.148C362.706 191.85 366.45 191.602 368.197 195.438C369.637 198.604 368.701 200.395 367.849 201.271C367.786 201.335 367.74 201.415 367.717 201.502C367.694 201.589 367.693 201.681 367.716 201.768C367.738 201.855 367.783 201.935 367.845 202C367.908 202.065 367.986 202.113 368.073 202.138C369.098 202.452 370.422 203.323 370.29 205.727C370.106 209.05 366.393 208.757 365.336 208.605C365.251 208.592 365.164 208.601 365.083 208.629C365.002 208.658 364.929 208.707 364.871 208.77C363.965 209.773 359.881 214.035 355.463 214.549C355.375 214.559 355.286 214.545 355.204 214.511C355.122 214.476 355.05 214.422 354.995 214.352C354.939 214.283 354.902 214.2 354.887 214.113C354.872 214.025 354.88 213.935 354.908 213.851L356.817 208.287C356.861 208.163 356.856 208.026 356.803 207.905C356.751 207.784 356.654 207.687 356.534 207.634L355.586 207.219Z" fill="url(#paint16_linear_987_3)"/>
<path d="M354.817 208.009C354.817 208.009 359.623 204.71 359.974 207.488C360.324 210.265 355.646 211.512 353.33 210.477L354.817 208.009Z" fill="url(#paint17_linear_987_3)"/>
<path d="M344.392 230.318C342.832 230.318 341.678 229.772 340.963 228.681C338.615 225.134 342.053 216.948 342.19 216.605C342.213 216.549 342.246 216.497 342.289 216.454C342.332 216.41 342.384 216.376 342.44 216.352C342.497 216.329 342.557 216.317 342.618 216.317C342.679 216.318 342.74 216.33 342.796 216.354C342.852 216.378 342.903 216.413 342.946 216.457C342.988 216.501 343.022 216.553 343.044 216.61C343.066 216.667 343.077 216.727 343.075 216.789C343.074 216.85 343.06 216.91 343.035 216.966C343.001 217.046 339.647 225.03 341.723 228.173C342.269 228.992 343.136 229.392 344.385 229.392C353.929 229.392 355.823 208.927 355.838 208.72C355.851 208.599 355.911 208.488 356.004 208.411C356.097 208.333 356.216 208.294 356.337 208.302C356.397 208.308 356.456 208.325 356.509 208.352C356.563 208.38 356.611 208.418 356.649 208.465C356.688 208.511 356.717 208.564 356.735 208.622C356.753 208.68 356.76 208.74 356.755 208.8C356.755 208.854 356.273 214.187 354.558 219.449C352.251 226.562 348.733 230.318 344.392 230.318Z" fill="url(#paint18_linear_987_3)"/>
<path d="M322.422 244.356C320.864 244.352 319.307 244.257 317.76 244.07C304.855 242.551 294.191 233.741 286.925 218.594C281.459 207.2 279.798 196.104 279.781 195.994C279.772 195.934 279.775 195.873 279.79 195.814C279.805 195.756 279.831 195.7 279.866 195.652C279.902 195.603 279.947 195.562 279.999 195.531C280.051 195.5 280.108 195.479 280.168 195.47C280.228 195.461 280.289 195.464 280.347 195.479C280.406 195.494 280.461 195.52 280.509 195.555C280.558 195.591 280.599 195.636 280.63 195.688C280.661 195.74 280.682 195.797 280.691 195.857C280.707 195.966 282.353 206.942 287.763 218.211C292.731 228.558 301.986 241.282 317.868 243.152C326.838 244.207 333.883 242.221 338.244 237.408C341.524 233.784 342.158 229.824 342.165 229.784C342.172 229.723 342.191 229.663 342.221 229.609C342.252 229.555 342.292 229.508 342.342 229.47C342.391 229.432 342.447 229.405 342.507 229.389C342.566 229.374 342.629 229.37 342.69 229.38C342.751 229.389 342.81 229.41 342.863 229.443C342.915 229.475 342.961 229.518 342.997 229.569C343.033 229.619 343.058 229.676 343.071 229.737C343.084 229.797 343.085 229.86 343.073 229.921C343.05 230.083 340.65 244.356 322.422 244.356Z" fill="url(#paint19_linear_987_3)"/>
<path d="M358.954 283.577L347.897 244.944C347.837 244.728 347.715 244.535 347.545 244.39C347.375 244.244 347.165 244.152 346.943 244.126C344.94 243.892 339.134 243.236 332.433 242.669C324.359 241.986 314.98 241.431 309.382 241.903C309.198 241.918 309.02 241.977 308.865 242.076C308.709 242.175 308.58 242.311 308.489 242.471C308.398 242.632 308.348 242.812 308.342 242.997C308.337 243.181 308.377 243.364 308.458 243.529C311.645 249.978 324.749 276.211 331.311 284.806C331.418 284.946 331.556 285.059 331.714 285.137C331.872 285.215 332.046 285.255 332.223 285.253L357.877 285.015C358.05 285.013 358.221 284.971 358.376 284.893C358.531 284.814 358.666 284.701 358.77 284.562C358.875 284.423 358.945 284.262 358.977 284.091C359.009 283.92 359.001 283.744 358.954 283.577Z" fill="url(#paint20_linear_987_3)"/>
<path d="M331.293 239.323L323.276 237.986C323.178 237.97 323.077 237.979 322.984 238.013C322.891 238.047 322.808 238.104 322.744 238.18C322.679 238.255 322.635 238.346 322.616 238.443C322.597 238.541 322.603 238.641 322.635 238.735L323.428 241.141C323.462 241.243 323.524 241.334 323.607 241.403C323.691 241.472 323.792 241.516 323.899 241.531L331.613 242.562C331.706 242.575 331.799 242.564 331.887 242.532C331.974 242.5 332.053 242.448 332.115 242.379C332.178 242.31 332.223 242.227 332.246 242.136C332.27 242.046 332.271 241.952 332.25 241.861L331.758 239.76C331.732 239.649 331.674 239.549 331.591 239.471C331.509 239.393 331.405 239.342 331.293 239.323Z" fill="#91B3FA"/>
<path d="M337.292 246.113L336.632 242.671C336.6 242.503 336.514 242.35 336.388 242.235C336.262 242.119 336.102 242.048 335.931 242.03L319.74 240.386C319.614 240.373 319.486 240.391 319.368 240.437C319.25 240.484 319.145 240.558 319.061 240.654C318.977 240.75 318.918 240.864 318.888 240.987C318.857 241.111 318.857 241.239 318.886 241.363L319.916 245.652C319.956 245.819 320.049 245.969 320.182 246.078C320.314 246.188 320.478 246.252 320.649 246.261L336.466 247.059C336.587 247.066 336.707 247.045 336.819 246.998C336.931 246.951 337.03 246.879 337.11 246.788C337.189 246.697 337.247 246.589 337.279 246.472C337.31 246.355 337.315 246.232 337.292 246.113Z" fill="#91B3FA"/>
<path d="M356.283 274.242C356.283 274.242 357.823 267.905 357.202 265.657C356.58 263.409 355.377 260.519 351.365 261.155C347.352 261.791 342.619 263.489 342.619 263.489C342.619 263.489 342.858 266.417 345.908 265.473L344.017 266.937C344.017 266.937 344.289 269.282 346.862 268.028L345.103 269.969C345.103 269.969 346.211 271.894 348.103 270.66C349.996 269.425 350.909 275.005 356.283 274.242Z" fill="url(#paint21_linear_987_3)"/>
<path d="M284.36 193.176C284.36 196.468 282.514 199.137 280.237 199.137C277.96 199.137 276.112 196.468 276.112 193.176C276.112 189.884 277.958 187.216 280.237 187.216C282.515 187.216 284.36 189.884 284.36 193.176Z" fill="url(#paint22_linear_987_3)"/>
<path d="M279.495 191.286L283.403 193.361L285.046 195.919L282.819 199.825C282.819 199.825 280.624 194.516 279.629 193.481C278.634 192.445 278.887 191.785 279.495 191.286Z" fill="url(#paint23_linear_987_3)"/>
<defs>
<linearGradient id="paint0_linear_987_3" x1="190.818" y1="363.153" x2="264.711" y2="115.373" gradientUnits="userSpaceOnUse">
<stop stop-color="#E1473D"/>
<stop offset="1" stop-color="#E9605A"/>
</linearGradient>
<linearGradient id="paint1_linear_987_3" x1="235.407" y1="179.474" x2="280.297" y2="3.47004" gradientUnits="userSpaceOnUse">
<stop stop-color="#E1473D"/>
<stop offset="1" stop-color="#E9605A"/>
</linearGradient>
<linearGradient id="paint2_linear_987_3" x1="142.896" y1="362.117" x2="161.315" y2="104.409" gradientUnits="userSpaceOnUse">
<stop stop-color="#E1473D"/>
<stop offset="1" stop-color="#E9605A"/>
</linearGradient>
<linearGradient id="paint3_linear_987_3" x1="322.735" y1="403.951" x2="405.122" y2="493.513" gradientUnits="userSpaceOnUse">
<stop stop-color="#09005D"/>
<stop offset="1" stop-color="#1A0F91"/>
</linearGradient>
<linearGradient id="paint4_linear_987_3" x1="349.46" y1="410.607" x2="342.146" y2="410.607" gradientUnits="userSpaceOnUse">
<stop stop-color="#FEBBBA"/>
<stop offset="1" stop-color="#FF928E"/>
</linearGradient>
<linearGradient id="paint5_linear_987_3" x1="350.628" y1="210.526" x2="354.082" y2="334.772" gradientUnits="userSpaceOnUse">
<stop stop-color="#4F52FF"/>
<stop offset="1" stop-color="#4042E2"/>
</linearGradient>
<linearGradient id="paint6_linear_987_3" x1="341.205" y1="386.96" x2="423.592" y2="476.522" gradientUnits="userSpaceOnUse">
<stop stop-color="#09005D"/>
<stop offset="1" stop-color="#1A0F91"/>
</linearGradient>
<linearGradient id="paint7_linear_987_3" x1="375.817" y1="410.232" x2="369.502" y2="410.232" gradientUnits="userSpaceOnUse">
<stop stop-color="#FEBBBA"/>
<stop offset="1" stop-color="#FF928E"/>
</linearGradient>
<linearGradient id="paint8_linear_987_3" x1="362.551" y1="210.195" x2="366.004" y2="334.44" gradientUnits="userSpaceOnUse">
<stop stop-color="#4F52FF"/>
<stop offset="1" stop-color="#4042E2"/>
</linearGradient>
<linearGradient id="paint9_linear_987_3" x1="392.385" y1="287.985" x2="277.264" y2="205.185" gradientUnits="userSpaceOnUse">
<stop stop-color="#4F52FF"/>
<stop offset="1" stop-color="#4042E2"/>
</linearGradient>
<linearGradient id="paint10_linear_987_3" x1="319.365" y1="219.698" x2="282.002" y2="219.698" gradientUnits="userSpaceOnUse">
<stop stop-color="#FEBBBA"/>
<stop offset="1" stop-color="#FF928E"/>
</linearGradient>
<linearGradient id="paint11_linear_987_3" x1="290.221" y1="213.193" x2="314.861" y2="269.222" gradientUnits="userSpaceOnUse">
<stop stop-color="#FEBBBA"/>
<stop offset="1" stop-color="#FF928E"/>
</linearGradient>
<linearGradient id="paint12_linear_987_3" x1="407.549" y1="266.902" x2="292.427" y2="184.101" gradientUnits="userSpaceOnUse">
<stop stop-color="#4F52FF"/>
<stop offset="1" stop-color="#4042E2"/>
</linearGradient>
<linearGradient id="paint13_linear_987_3" x1="401.122" y1="272.653" x2="353.839" y2="272.653" gradientUnits="userSpaceOnUse">
<stop stop-color="#FEBBBA"/>
<stop offset="1" stop-color="#FF928E"/>
</linearGradient>
<linearGradient id="paint14_linear_987_3" x1="364.815" y1="222.075" x2="346.122" y2="222.075" gradientUnits="userSpaceOnUse">
<stop stop-color="#FEBBBA"/>
<stop offset="1" stop-color="#FF928E"/>
</linearGradient>
<linearGradient id="paint15_linear_987_3" x1="345.426" y1="212.218" x2="366.108" y2="199.621" gradientUnits="userSpaceOnUse">
<stop stop-color="#FEBBBA"/>
<stop offset="1" stop-color="#FF928E"/>
</linearGradient>
<linearGradient id="paint16_linear_987_3" x1="377.049" y1="186.317" x2="350.324" y2="207.396" gradientUnits="userSpaceOnUse">
<stop stop-color="#09005D"/>
<stop offset="1" stop-color="#1A0F91"/>
</linearGradient>
<linearGradient id="paint17_linear_987_3" x1="350.853" y1="216.925" x2="369.462" y2="205.591" gradientUnits="userSpaceOnUse">
<stop stop-color="#FEBBBA"/>
<stop offset="1" stop-color="#FF928E"/>
</linearGradient>
<linearGradient id="paint18_linear_987_3" x1="340.145" y1="219.312" x2="356.767" y2="219.312" gradientUnits="userSpaceOnUse">
<stop stop-color="#2B3582"/>
<stop offset="1" stop-color="#150E42"/>
</linearGradient>
<linearGradient id="paint19_linear_987_3" x1="279.776" y1="219.911" x2="343.079" y2="219.911" gradientUnits="userSpaceOnUse">
<stop stop-color="#2B3582"/>
<stop offset="1" stop-color="#150E42"/>
</linearGradient>
<linearGradient id="paint20_linear_987_3" x1="343.017" y1="248.238" x2="266.771" y2="372.288" gradientUnits="userSpaceOnUse">
<stop stop-color="#09005D"/>
<stop offset="1" stop-color="#1A0F91"/>
</linearGradient>
<linearGradient id="paint21_linear_987_3" x1="357.35" y1="267.692" x2="342.619" y2="267.692" gradientUnits="userSpaceOnUse">
<stop stop-color="#FEBBBA"/>
<stop offset="1" stop-color="#FF928E"/>
</linearGradient>
<linearGradient id="paint22_linear_987_3" x1="276.112" y1="193.176" x2="284.36" y2="193.176" gradientUnits="userSpaceOnUse">
<stop stop-color="#09005D"/>
<stop offset="1" stop-color="#1A0F91"/>
</linearGradient>
<linearGradient id="paint23_linear_987_3" x1="282.288" y1="197.09" x2="268.649" y2="183.523" gradientUnits="userSpaceOnUse">
<stop stop-color="#FEBBBA"/>
<stop offset="1" stop-color="#FF928E"/>
</linearGradient>
</defs>
</svg>
